<svg width="430" height="585" viewBox="0 0 430 585" fill="none" xmlns="http://www.w3.org/2000/svg">
<path d="M215.08 0.380005C215.08 0.380005 246.06 41.55 322.43 44.35C386.52 46.7 409.61 25.64 409.61 25.64C409.61 25.64 471.46 247.12 375.64 428.62C325.32 523.93 225.23 582.28 215.09 584.93C204.95 582.28 104.86 523.93 54.5398 428.62C-41.2802 247.12 20.5598 25.64 20.5598 25.64C20.5598 25.64 43.6398 46.71 107.74 44.35C184.1 41.55 215.08 0.380005 215.08 0.380005Z" fill="url(#paint0_radial_485_91)"/>
<path d="M29.7901 100.33C24.3801 107.63 26.5301 116.33 28.2701 121.53C30.0101 126.73 34.3601 135.36 49.9001 141.76C49.9001 141.76 44.4601 152 50.9901 158.67C57.5101 165.34 63.4601 162.82 63.4601 162.82C63.4601 162.82 67.4101 183.25 78.0601 193.17C81.1601 196.05 84.6901 198.28 92.8001 199.77C92.8001 199.77 101.65 212.96 121.44 209.75C121.44 209.75 130.9 213.92 137.36 211.76C137.36 211.76 147.13 223.8 164.45 219.29C164.45 219.29 177.71 223.66 189.89 218.38C189.89 218.38 192.56 220.2 196.94 221.6C201.83 223.16 208.86 224.2 216.69 221.59C216.69 221.59 233.78 225.49 247.6 219.2C258.04 214.44 261.88 205.83 261.88 205.83C261.88 205.83 279.62 218.48 301.15 214.79C322.68 211.1 327.41 198.14 327.41 198.14C327.41 198.14 334.08 198.45 338.13 193.55C338.13 193.55 353.88 195.5 364.32 176.23C364.32 176.23 375.3 179.16 380.74 171.49C380.74 171.49 390.73 157.64 379.65 143.98C379.65 143.98 385.63 134.85 381.88 122.12C381.88 122.12 393.73 107.3 376.01 88.19C376.01 88.19 366.24 78.8 355.44 76.73C355.44 76.73 326.38 80.92 322.69 106.03C322.69 106.03 316.52 101.44 313.03 100.42C311.71 100.03 309.62 99.88 308.27 100.16C303.18 101.23 294.74 104.62 285.82 116.3C285.82 116.3 263.75 114.32 255.82 136.67C255.82 136.67 243.21 123.69 227.07 133.64C227.07 133.64 221.21 129.99 215.47 128.02C212.98 127.16 209.33 126.71 206.74 127.17C200.06 128.34 188.48 132.39 180.49 141.69C180.49 141.69 173.8 130.76 162.01 131.35C152.02 131.85 146.47 141.41 146.47 141.41C146.47 141.41 140.05 132.44 132.28 132.01C124.56 131.58 116.9 137.24 116.9 137.24C116.9 137.24 113.63 130.37 106.35 128.47C99.0701 126.57 95.2201 129.34 95.2201 129.34C95.2201 129.34 89.9101 123.39 82.5401 119.66C75.1801 115.94 65.4501 116.72 60.1301 115.75C54.8201 114.77 48.2901 113.93 46.2901 108.92C44.2801 103.86 45.9901 97.82 49.3801 95.97C49.3601 95.98 36.6401 91.09 29.7901 100.33Z" fill="white" stroke="white" stroke-width="4.0688" stroke-miterlimit="10"/>
<path d="M341.16 108.46C341.16 108.46 339.51 104.12 344.46 104.64C347.41 104.95 349.92 112.32 345.24 114.89C339.07 118.28 334.5 111.94 334.68 108.37C334.85 104.79 336.69 100.99 340.29 99.95C344.81 98.65 349.67 100.12 351.23 104.47C352.79 108.81 353.31 117.07 347.23 120.11C342.81 122.32 333.51 123.06 329.16 115.94C324.82 108.82 330.8 98.46 333.5 95.27C340.1 87.45 351.74 82.76 355.04 82.76C358.34 82.76 371.72 89.19 376.06 98.57C380.4 107.95 380.84 116.12 376.93 120.59C371.31 127.02 360.17 124.19 357.73 117.24C355.3 110.29 357.3 104.12 362.85 101.87C367.46 100 372.84 102.04 374.23 106.56C375.22 109.77 374.84 116.64 369.97 117.94C366.79 118.79 362.35 117.32 361.54 112.29C360.85 107.95 363.71 105.87 366.14 105.69C369.61 105.43 370.89 108.52 370.31 110.73C369.44 114.03 366.31 112.47 365.79 111.25M297.3 132.29C297.3 132.29 295.58 128.2 300.32 128.53C303.15 128.73 305.79 135.67 301.42 138.28C295.65 141.72 291.08 135.84 291.13 132.42C291.17 129.01 292.79 125.32 296.19 124.2C300.45 122.8 305.14 124.05 306.78 128.13C308.42 132.22 309.2 140.07 303.5 143.18C299.36 145.44 290.51 146.46 286.13 139.82C281.75 133.18 287.1 123.1 289.57 119.96C295.6 112.28 306.54 107.41 309.68 107.3C312.83 107.19 325.8 112.86 330.26 121.66C334.72 130.46 335.41 138.23 331.84 142.63C326.71 148.95 315.98 146.64 313.42 140.09C310.86 133.55 312.56 127.6 317.78 125.25C322.11 123.31 327.31 125.07 328.79 129.33C329.84 132.35 329.71 138.92 325.12 140.33C322.11 141.25 317.83 139.99 316.89 135.23C316.08 131.11 318.74 129.03 321.05 128.78C324.35 128.41 325.68 131.31 325.2 133.44C324.48 136.62 321.45 135.23 320.91 134.09" stroke="#ED1C24" stroke-width="2.0344" stroke-miterlimit="10"/>
<path d="M271.13 145.12C271.13 145.12 269.41 141.03 274.15 141.36C276.98 141.56 279.62 148.5 275.25 151.11C269.48 154.55 264.91 148.67 264.96 145.25C265 141.84 266.62 138.15 270.02 137.03C274.28 135.63 278.97 136.88 280.61 140.96C282.25 145.04 283.03 152.9 277.33 156.01C273.19 158.27 264.34 159.29 259.96 152.65C255.58 146.01 260.93 135.93 263.4 132.79C269.43 125.11 278.71 121.14 287.83 121.75M339.73 156.31C339.73 156.31 338.08 151.97 343.03 152.49C345.98 152.8 348.49 160.17 343.81 162.74C337.64 166.13 333.07 159.79 333.25 156.22C333.42 152.64 335.26 148.84 338.86 147.8C343.38 146.5 348.24 147.97 349.8 152.32C351.36 156.66 351.88 164.92 345.8 167.96C341.38 170.17 332.08 170.91 327.73 163.79C323.39 156.67 329.37 146.31 332.07 143.12C338.67 135.3 350.31 130.61 353.61 130.61C356.91 130.61 370.29 137.04 374.63 146.42C378.97 155.8 379.41 163.97 375.5 168.44C369.88 174.87 358.74 172.04 356.3 165.09C353.87 158.14 355.87 151.97 361.42 149.72C366.03 147.85 371.41 149.89 372.8 154.41C373.79 157.62 373.41 164.49 368.54 165.79C365.36 166.64 360.92 165.17 360.11 160.14C359.42 155.8 362.28 153.72 364.71 153.54C368.18 153.28 369.46 156.37 368.88 158.58C368.01 161.88 364.88 160.32 364.36 159.1M289.84 183.94C289.84 183.94 287.53 179.91 292.5 179.65C295.46 179.5 299.09 186.39 294.87 189.65C289.31 193.96 283.8 188.42 283.42 184.86C283.03 181.3 284.25 177.26 287.65 175.67C291.91 173.68 296.94 174.38 299.17 178.42C301.4 182.46 303.2 190.53 297.67 194.49C293.65 197.36 284.58 199.55 279.17 193.19C273.76 186.83 278.06 175.67 280.23 172.09C285.53 163.34 296.82 157.89 300.08 157.37C303.34 156.85 317.03 160.11 322.79 168.7C328.55 177.29 330.25 185.28 327.09 190.31C322.55 197.54 311.09 196.49 307.61 190.01C304.13 183.53 305.13 177.12 310.27 174.02C314.53 171.45 320.16 172.63 322.24 176.87C323.72 179.88 324.42 186.73 319.81 188.77C316.8 190.11 312.18 189.34 310.61 184.51C309.25 180.33 311.75 177.83 314.13 177.27C317.52 176.47 319.26 179.32 319.04 181.59C318.7 184.99 315.36 183.93 314.66 182.81" stroke="#ED1C24" stroke-width="2.0344" stroke-miterlimit="10"/>
<path d="M346.27 167.71C346.27 167.71 352.72 164.1 358.52 168.47M304.06 142.85C304.06 142.85 310.65 139.63 316.45 143.99M347.51 120.01C347.51 120.01 353.96 116.4 359.76 120.77M299.46 192.74C299.46 192.74 304.22 188.49 310.03 192.86M202.9 167.24C202.9 167.24 207.66 162.99 213.47 167.36M328.21 179.26C328.21 179.26 334.95 177.14 337.12 169.41M328.55 186.04C328.55 186.04 340.59 182.36 344.85 168.38" stroke="#ED1C24" stroke-width="2.0344" stroke-miterlimit="10"/>
<path d="M323.84 193.56C323.84 193.56 345.95 190.63 352.39 166.32" stroke="#ED1C24" stroke-width="2.0344" stroke-miterlimit="10"/>
<path d="M336.69 188.44C336.69 188.44 353.34 190.09 359.51 169.41M339.77 147.58C339.77 147.58 343.32 137.39 352.49 137.39C364.73 137.39 365.13 146.82 365.94 148.77M296.18 124.21C296.18 124.21 300.23 113.16 309.4 113.16C320.54 113.16 322.21 122.67 323.02 124.62" stroke="#ED1C24" stroke-width="2.0344" stroke-miterlimit="10"/>
<path d="M346.65 148.52C346.65 148.52 348.71 143.66 353.36 143.64C356.23 143.63 359.59 146.17 360.55 150.25M288.77 175.09C288.77 175.09 290.97 164.53 300.06 163.33C311.1 161.88 313.59 170.59 314.64 172.42" stroke="#ED1C24" stroke-width="2.0344" stroke-miterlimit="10"/>
<path d="M296.51 175.37C296.51 175.37 297.1 170.91 301.65 169.91C304.45 169.29 307.85 170.45 309.64 174.24M341.81 99.17C341.81 99.17 345.02 89.83 354.19 89.83C365.33 89.83 366.78 99.29 367.59 101.25" stroke="#ED1C24" stroke-width="2.0344" stroke-miterlimit="10"/>
<path d="M348.47 100.92C348.47 100.92 350.4 96.11 355.06 96.09C357.93 96.08 361.01 97.92 361.97 102M265.12 201.36C265.12 201.36 282.36 210.75 296.16 209.31C316.23 207.23 323.84 193.55 323.84 193.55" stroke="#ED1C24" stroke-width="2.0344" stroke-miterlimit="10"/>
<path d="M273.89 199.91C273.89 199.91 284.18 205.84 296.16 203.93C306.16 202.34 314.09 194.86 314.09 194.86" stroke="#ED1C24" stroke-width="2.0344" stroke-miterlimit="10"/>
<path d="M276.18 196.95C276.18 196.95 286.13 201.09 293.47 199.93C303.37 198.36 307.45 191.87 307.45 191.87M375.99 121.78C375.99 121.78 379.94 133.51 373.8 144.8M371.42 124.19C371.42 124.19 374.3 134.68 369.52 139.52M366.54 124.07C366.54 124.07 367.96 129.78 364.95 135.8M359.76 120.77C359.76 120.77 362.49 127.99 358.55 132.13M354.03 119C354.03 119 357.29 123.54 353.63 130.6M348.28 120.05C348.28 120.05 350.71 126.33 346.84 132.62M343.01 121.78C343.01 121.78 344.99 128.57 339.43 136.68M336.47 121.2C336.47 121.2 339.77 126.83 334.13 135.11M280.95 151.96C280.95 151.96 291.92 157.43 302.6 156.62C313.28 155.81 320 153.1 324.6 146.59" stroke="#ED1C24" stroke-width="2.0344" stroke-miterlimit="10"/>
<path d="M281.72 148.77C281.72 148.77 305.79 158.02 317.95 145.38" stroke="#ED1C24" stroke-width="2.0344" stroke-miterlimit="10"/>
<path d="M281.65 145.08C281.65 145.08 303.3 153.21 311.25 142.18M284.45 127.57C284.45 127.57 272.47 127.22 268.83 137.56M241.5 171.49C241.5 171.49 256.92 159.55 275.2 157.73C285.8 156.67 294.39 158.1 296.51 158.46" stroke="#ED1C24" stroke-width="2.0344" stroke-miterlimit="10"/>
<path d="M248.06 173.39C248.06 173.39 252.14 170.67 255.4 169.1C259.56 167.09 266.46 164.55 276.26 163.34C280.91 162.77 285.35 162.8 288.7 162.98M256.77 173.84C260.97 171.86 268.23 169.16 277.76 167.99C279.52 167.77 281.92 167.65 283.51 167.58M265.12 176.24C268.76 175.09 273.23 174.04 278.56 173.38L279.58 173.26M137.31 186.27C137.31 186.27 136.02 182.88 139.89 183.29C142.19 183.53 144.15 189.28 140.5 191.29C135.69 193.93 132.12 188.99 132.26 186.2C132.4 183.41 133.83 180.44 136.64 179.63C140.16 178.61 143.96 179.77 145.18 183.15C146.4 186.53 146.81 192.98 142.06 195.35C138.61 197.07 131.35 197.65 127.96 192.1C124.57 186.54 129.24 178.46 131.35 175.97C136.5 169.87 145.58 166.21 148.16 166.21C150.74 166.21 161.17 171.22 164.56 178.54C167.95 185.86 168.29 192.23 165.24 195.72C160.86 200.74 152.16 198.53 150.26 193.11C148.36 187.69 149.92 182.88 154.26 181.11C157.86 179.65 162.05 181.25 163.14 184.77C163.91 187.27 163.61 192.63 159.82 193.65C157.34 194.32 153.87 193.16 153.25 189.24C152.71 185.85 154.94 184.23 156.84 184.09C159.55 183.89 160.55 186.3 160.09 188.02C159.41 190.6 156.97 189.38 156.57 188.43" stroke="#ED1C24" stroke-width="2.0344" stroke-miterlimit="10"/>
<path d="M120.9 155.03C120.9 155.03 119.97 151.88 123.43 152.51C125.5 152.89 126.87 158.22 123.44 159.78C118.91 161.84 116.02 157.13 116.34 154.62C116.65 152.11 118.15 149.52 120.75 148.98C124 148.3 127.36 149.6 128.23 152.75C129.1 155.9 129.03 161.74 124.58 163.57C121.35 164.89 114.74 164.92 112.06 159.67C109.38 154.42 114.15 147.43 116.22 145.32C121.29 140.16 129.75 137.47 132.08 137.64C134.41 137.81 143.5 143.06 146.07 149.91C148.64 156.76 148.51 162.54 145.51 165.49C141.21 169.73 133.49 167.14 132.15 162.11C130.81 157.08 132.54 152.84 136.58 151.54C139.93 150.46 143.62 152.19 144.36 155.45C144.89 157.76 144.25 162.59 140.75 163.25C138.46 163.68 135.41 162.4 135.11 158.82C134.85 155.72 136.98 154.41 138.71 154.41C141.17 154.41 141.91 156.66 141.38 158.18C140.59 160.46 138.47 159.19 138.17 158.31" stroke="#ED1C24" stroke-width="2.0344" stroke-miterlimit="10"/>
<path d="M100.82 143.18C100.82 143.18 102.44 140.32 104.39 143.25C105.56 145 102.68 149.69 99.17 148.31C94.54 146.49 96.07 141.32 97.94 139.62C100.12 137.64 102.71 137.63 105.06 138.87C108.47 140.67 109.76 145.27 108.21 148.14C106.33 151.61 101.65 153.69 97.24 151.76C94.04 150.35 90.31 145.62 91.34 140.05C92.41 134.25 97.52 132.25 102.04 133.07C109.16 134.36 115.85 142.15 113.77 148.57M62.48 148.94C62.48 148.94 65.44 150.37 62.65 152.51C60.98 153.79 56.11 151.22 57.26 147.63C58.78 142.89 64.03 144.08 65.86 145.84C67.98 147.89 68.16 150.47 67.08 152.89C65.51 156.41 61 158 58.03 156.64C54.44 154.99 52.06 150.45 53.7 145.93C54.89 142.64 58.1 139.31 63.73 139.97C69.59 140.66 73.07 145.43 73.11 150.18C73.14 153.85 71.4 157.54 68.45 159.52M97.06 179.94C97.06 179.94 96.39 176.38 100.12 177.46C102.34 178.1 103.25 184.11 99.31 185.44C94.11 187.19 91.47 181.7 92.09 178.98C92.71 176.26 94.65 173.59 97.56 173.29C101.21 172.91 104.74 174.71 105.34 178.26C105.94 181.81 105.21 188.22 100.12 189.72C96.42 190.81 89.17 190.1 86.82 184.03C84.46 177.96 90.49 170.83 93 168.75C99.14 163.65 108.73 161.65 111.26 162.11C113.79 162.57 123.18 169.34 125.23 177.14C127.28 184.94 126.49 191.27 122.87 194.17C117.67 198.33 109.5 194.63 108.59 188.96C107.68 183.29 110.06 178.83 114.64 177.86C118.44 177.06 122.29 179.37 122.73 183.03C123.05 185.63 121.81 190.85 117.9 191.18C115.34 191.4 112.13 189.65 112.21 185.69C112.27 182.26 114.76 181.06 116.65 181.25C119.35 181.53 119.91 184.08 119.16 185.69C118.04 188.11 115.85 186.47 115.62 185.47M160.49 152.53C160.49 152.53 159.82 148.97 163.55 150.05C165.77 150.69 166.68 156.7 162.74 158.03C157.54 159.78 154.9 154.29 155.52 151.57C156.14 148.85 158.08 146.18 160.99 145.88C164.64 145.5 168.17 147.3 168.77 150.85C169.37 154.4 168.64 160.81 163.55 162.31C159.85 163.4 152.68 162.66 150.25 156.62C147.04 148.66 152.16 142.23 154.67 140.15C160.81 135.05 171.05 136.93 174.72 143.95C174.72 143.95 178.8 152.51 173.42 160.27C171.23 163.43 166.68 165.34 166.68 165.34" stroke="#ED1C24" stroke-width="2.0344" stroke-miterlimit="10"/>
<path d="M93.04 136.1C93.04 136.1 84.15 124.74 73.12 122.53C62.09 120.33 58.36 120.17 52.62 119.3C47.26 118.48 40.66 115.47 40.08 107.36C39.68 101.77 42.11 98.79 42.11 98.79C42.11 98.79 34.64 98.79 32.56 106.2C31 111.74 33.72 119.17 38.93 124.38C44.14 129.59 53.18 133.3 63.15 134.22C68.71 134.74 77.03 139.26 79.29 145.86C81.55 152.46 81.72 164.22 90.93 170.83" stroke="#ED1C24" stroke-width="2.0344" stroke-miterlimit="10"/>
<path d="M91.1601 141.76C91.1601 141.76 82.9201 129.72 67.5201 126.7C52.1201 123.69 49.2501 123.99 43.6601 120.56C32.7001 113.84 34.0601 102.95 42.1001 98.79" stroke="#ED1C24" stroke-width="2.0344" stroke-miterlimit="10"/>
<path d="M97.18 165.97C97.18 165.97 87.79 162.04 85.7 149.18C83.83 137.62 75.95 132.72 69.93 131.45C63.91 130.18 56.7 129.46 51.73 127.62C44.93 125.11 40.01 119.2 39.71 117.37M95.19 150.44C95.19 150.44 95.78 160.06 104.78 162.97" stroke="#ED1C24" stroke-width="2.0344" stroke-miterlimit="10"/>
<path d="M107.54 149.13C107.54 149.13 105.86 157.51 98.8799 158.67M73.1099 150.17C73.1099 150.17 74.0899 172.14 87.7899 175.47" stroke="#ED1C24" stroke-width="2.0344" stroke-miterlimit="10"/>
<path d="M68.45 159.51C68.45 159.51 71.5099 180.44 86.8699 191.1C96.8199 198.01 108.89 190.94 108.89 190.94M60.1099 139.88C60.1099 139.88 37.5299 134.82 34.4399 118.28M158.9 162.82C158.9 162.82 161.91 166.8 158.9 170.84M165.15 161.59C165.15 161.59 170.34 169.49 163.58 176.79" stroke="#ED1C24" stroke-width="2.0344" stroke-miterlimit="10"/>
<path d="M97.1802 194.07C97.1802 194.07 116.7 207.08 129.56 194.69" stroke="#ED1C24" stroke-width="2.0344" stroke-miterlimit="10"/>
<path d="M94.48 194.07C94.48 194.07 116.17 216.65 137.86 196.75M101.34 172.45C101.34 172.45 104.43 168.21 109.45 168.16C114.66 168.11 119.24 172.57 117.88 177.89M138.36 178.24C138.36 178.24 140.38 173.5 145.2 172.13C149.75 170.84 155.76 174.06 155.72 179.56M122.09 148.54C122.09 148.54 123.79 144.33 128.61 142.97C133.16 141.68 139.4 145.76 139.36 151.26" stroke="#ED1C24" stroke-width="2.0344" stroke-miterlimit="10"/>
<path d="M149.79 191.53C149.79 191.53 143.32 209.63 122.19 204.73" stroke="#ED1C24" stroke-width="2.0344" stroke-miterlimit="10"/>
<path d="M153.98 197.7C153.98 197.7 147.62 209.61 134.18 205.04" stroke="#ED1C24" stroke-width="2.0344" stroke-miterlimit="10"/>
<path d="M165.23 195.72C165.23 195.72 161.34 208.35 144.69 205.37M179.06 191.24C179.06 191.24 177.68 187.44 181.99 187.96C184.56 188.27 186.64 194.72 182.53 196.9C177.11 199.77 173.22 194.19 173.42 191.08C173.62 187.97 175.27 184.68 178.42 183.82C182.37 182.75 186.59 184.1 187.89 187.9C189.19 191.7 189.54 198.9 184.2 201.46C180.32 203.33 172.21 203.85 168.52 197.59C164.83 191.33 170.18 182.39 172.58 179.64C178.43 172.92 188.94 169.93 191.81 169.97C194.68 170.01 205.95 174.85 209.6 183.08C213.26 191.31 213.53 198.42 210.06 202.27C205.08 207.79 195.41 205.18 193.39 199.1C191.36 193.02 193.19 187.67 198.06 185.78C202.1 184.21 206.76 186.06 207.91 190.02C208.73 192.83 208.3 198.8 204.05 199.87C201.27 200.57 197.42 199.22 196.79 194.84C196.24 191.05 198.77 189.28 200.89 189.15C203.92 188.97 204.99 191.68 204.45 193.59C203.65 196.45 200.95 195.05 200.51 193.98" stroke="#ED1C24" stroke-width="2.0344" stroke-miterlimit="10"/>
<path d="M194.27 156.73C194.27 156.73 192.49 152.41 198.02 153.01C201.32 153.37 204.01 160.69 198.74 163.15C191.78 166.39 186.77 160.05 187.01 156.52C187.26 152.99 189.37 149.26 193.42 148.3C198.5 147.09 203.92 148.63 205.6 152.95C207.28 157.27 207.74 165.43 200.89 168.33C195.91 170.44 185.48 171.01 180.73 163.9C175.98 156.79 182.84 146.66 185.91 143.55C193.42 135.94 206.91 132.57 210.61 132.63C214.31 132.69 228.79 138.2 233.51 147.55C238.23 156.89 238.59 164.97 234.15 169.32C227.77 175.57 215.33 172.59 212.71 165.68C210.09 158.77 212.42 152.71 218.68 150.58C223.87 148.81 229.86 150.92 231.35 155.41C232.41 158.6 231.88 165.38 226.41 166.58C222.83 167.37 217.89 165.83 217.06 160.86C216.35 156.56 219.59 154.56 222.31 154.42C226.2 154.22 227.59 157.3 226.9 159.47C225.88 162.72 222.4 161.12 221.84 159.91" stroke="#ED1C24" stroke-width="2.0344" stroke-miterlimit="10"/>
<path d="M226.52 139.71C229.37 138.41 237.95 131.99 249.18 137.62C257.94 142.01 260.22 150.86 258.62 156.26C256.32 164.02 245.59 165.98 240.75 160.95C235.91 155.92 235.2 149.81 239.1 145.67C242.33 142.24 247.78 141.88 250.76 145.22C252.88 147.6 255.26 153.67 251.58 156.71C249.17 158.7 244.76 159.18 242.09 155.17C239.78 151.7 241.43 148.78 243.45 147.66C246.34 146.06 248.66 148.22 249.03 150.36C249.58 153.55 246.27 153.43 245.34 152.59M224.72 192.28C224.72 192.28 223.07 188.63 227.36 188.82C229.92 188.93 232.46 195.14 228.57 197.59C223.44 200.83 219.18 195.62 219.14 192.54C219.1 189.46 220.48 186.09 223.52 185C227.34 183.64 231.6 184.65 233.17 188.31C234.74 191.96 235.63 199.03 230.56 201.97C226.88 204.1 218.91 205.23 214.8 199.34C210.69 193.44 215.29 184.22 217.44 181.33C222.71 174.26 232.84 170.51 235.68 170.34C238.52 170.17 249.99 174.09 254.22 181.93C258.45 189.77 259.25 196.77 256.13 200.82C251.64 206.64 241.9 204.8 239.44 198.96C236.98 193.12 238.37 187.7 243.04 185.47C246.9 183.62 251.64 185.09 253.07 188.9C254.09 191.61 254.12 197.53 250.01 198.91C247.32 199.81 243.42 198.78 242.47 194.5C241.64 190.8 244 188.86 246.08 188.58C249.05 188.17 250.32 190.76 249.93 192.69C249.36 195.57 246.59 194.39 246.07 193.38M143.4 205.83C143.4 205.83 160.9 216.95 173.21 201.72" stroke="#ED1C24" stroke-width="2.0344" stroke-miterlimit="10"/>
<path d="M139.66 206.28C139.66 206.28 161.06 228.12 183.14 201.89" stroke="#ED1C24" stroke-width="2.0344" stroke-miterlimit="10"/>
<path d="M193.1 198.15C193.1 198.15 186.07 218.29 164.75 214.25" stroke="#ED1C24" stroke-width="2.0344" stroke-miterlimit="10"/>
<path d="M198.16 204.52C198.16 204.52 191.07 217.71 177.47 213.69" stroke="#ED1C24" stroke-width="2.0344" stroke-miterlimit="10"/>
<path d="M207.95 204C207.95 204 204.84 215.73 188.08 213.42" stroke="#ED1C24" stroke-width="2.0344" stroke-miterlimit="10"/>
<path d="M200.43 212.12C200.43 212.12 214.8 217.32 220.35 203.24" stroke="#ED1C24" stroke-width="2.0344" stroke-miterlimit="10"/>
<path d="M188.08 213.42C188.08 213.42 218.08 231.11 232.93 199.76" stroke="#ED1C24" stroke-width="2.0344" stroke-miterlimit="10"/>
<path d="M240.09 200.14C240.09 200.14 235.6 221.33 216.56 216.68" stroke="#ED1C24" stroke-width="2.0344" stroke-miterlimit="10"/>
<path d="M248.37 204.37C248.37 204.37 243.64 219.05 223.05 217.31" stroke="#ED1C24" stroke-width="2.0344" stroke-miterlimit="10"/>
<path d="M258.25 196C258.25 196 255.7 216.43 231.32 217.07M225.82 184.18C225.82 184.18 228.67 175.78 236.21 175.72C245.36 175.65 246.52 183 247.2 184.6M196.94 147.67C196.94 147.67 200.47 138.38 210.26 138.81C220.91 139.28 221.95 147.99 222.33 149.96M181.7 183.49C181.7 183.49 184.01 176.37 191.55 176.3C200.7 176.23 201.86 183.58 202.54 185.18M172.36 140.84C172.36 140.84 185.9 147.83 172.58 179.63" stroke="#ED1C24" stroke-width="2.0344" stroke-miterlimit="10"/>
<path d="M172.65 161.22C172.65 161.22 173.84 173.6 165.97 182.04M266.61 191.82C266.61 191.82 267.94 188.66 264.28 188.91C262.09 189.06 260.05 194.43 263.43 196.45C267.89 199.11 271.43 194.56 271.39 191.92C271.36 189.28 270.1 186.42 267.47 185.56C264.17 184.48 260.55 185.44 259.28 188.6C258.01 191.76 257.41 197.84 261.81 200.24C265.01 201.99 271.86 202.78 275.25 197.64C278.64 192.5 274.56 184.66 272.59 182.28C264.71 172.73 252.34 173.11 245.29 173.58M203.3 149.52C203.3 149.52 205.63 145.18 209.93 145.44C213.47 145.66 216.45 147.18 217.23 151.18M231.44 144.38C231.44 144.38 237.8 140.37 245.29 142.91M209.21 165.47C209.21 165.47 210.18 171.45 204.87 176.79M216.69 170.33C216.69 170.33 216.8 178.65 209.6 183.08M202.9 167.24C202.9 167.24 203.36 170.02 199.53 172.94" stroke="#ED1C24" stroke-width="2.0344" stroke-miterlimit="10"/>
<path d="M218.34 105.76H239.76C239.76 105.76 243.65 107.32 244.43 111.21C245.21 115.1 243.85 118.8 242.09 119.78C240.34 120.75 243.06 124.84 243.06 124.84C243.06 124.84 244.29 126.4 244.65 130.29C245.01 134.18 236.64 136.52 236.64 136.52V395.57L244.66 397.32V422.44L316.26 433.54V489.51L240.53 489.91H218.14M218.34 105.76H193.81C193.81 105.76 189.92 107.32 189.14 111.21C188.36 115.1 189.72 118.8 191.48 119.78C193.23 120.75 190.51 124.84 190.51 124.84C190.51 124.84 189.28 126.4 188.92 130.29C188.56 134.18 196.93 136.52 196.93 136.52V395.57L188.91 397.32V422.44L119.34 433.54V489.86L193.04 489.91H218.16" fill="white"/>
<path d="M238.98 57.58C238.98 57.58 243.66 58.56 244.03 60.53C244.4 62.5 242.31 63.48 242.31 63.48C242.31 63.48 243.29 66.93 239.97 66.93C236.65 66.93 234.43 65.58 234.31 64.34C234.31 64.34 231.97 66.43 228.77 66.93L227.42 67.48C227.42 67.48 224.59 68.4 227.13 68.65C229.67 68.9 237.8 70.1 240.96 74.87C244.35 79.98 243.96 83.96 242.56 87.73C241.16 91.5 237.09 93.93 234.78 94.67C232.47 95.41 228.28 94.18 228.28 94.18L227.54 96.72C227.54 96.72 228.61 104.52 228.61 106.9C228.61 109.28 228.45 107.88 228.45 107.88L222.79 108.29C222.79 108.29 218.69 104.68 218.77 97.71C218.85 90.73 218.77 94.76 218.77 94.76C218.77 94.76 215.65 90.82 216.56 86.96C216.56 86.96 215.99 86.55 213.93 87.37C211.87 88.19 210.65 90.98 211.06 92.21C211.47 93.44 214.84 95.49 215.33 96.72C215.82 97.95 218.37 102.88 215.49 106.08C212.62 109.28 213.6 108.29 213.6 108.29L191.28 110.1C191.28 110.1 196.04 109.69 196.94 105.01C197.84 100.33 198.09 92.53 201.13 90.07C204.17 87.61 207.29 87.28 207.29 87.28C207.29 87.28 208.42 81.43 210.24 79.32C212.48 76.72 215.25 74.81 220.01 76.2C224.77 77.59 225.92 78.42 225.92 78.42C225.92 78.42 217.14 75.47 216.97 73.66C216.97 73.66 216.17 72.16 216.17 71.42C216.17 70.68 215.05 71.24 213.14 72.71C211.23 74.19 208.72 76.72 207.87 80.6C207.37 82.84 207.68 94.38 207.68 94.38C207.68 94.38 202.36 84.4 204.05 79.48C204.41 78.44 203.37 75.17 207.62 70.62C211.87 66.06 213 64.83 213.14 63.91C213.28 62.99 212.66 61.02 214.33 57.57C215.99 54.12 218.95 51.41 220.98 50.74C220.98 50.74 217.74 51.29 217.7 48.59C217.66 45.88 218.58 45.39 218.58 45.39C218.58 45.39 221.47 48.53 222.7 48.53C223.93 48.53 223.25 48.71 224.67 47.36L225.22 43.36C225.22 43.36 228.11 46.25 229.22 46.25C230.33 46.25 233.65 45.7 236.11 46.5C238.57 47.3 241.16 51.42 241.16 51.42C241.16 51.42 243.05 50.16 244.1 49.76C246.03 49.02 249.43 50.2 249.47 52.22C249.55 55.61 246.16 56.03 243.38 57.14C241.91 57.72 238.98 57.58 238.98 57.58Z" fill="white"/>
<path d="M228.89 164.09V155.22H201.92V152.04H228.89V143.21H231.51V164.1H228.89V164.09ZM201.92 199.63L214.48 192.84C214.45 192.67 214.44 192.39 214.44 191.99V186.34H201.93V183.16H231.52V191.9C231.52 194.99 230.84 197.44 229.47 199.27C228.1 201.1 226.25 202.01 223.91 202.01H221.97C220.28 202.01 218.83 201.48 217.62 200.42C216.41 199.36 215.55 197.89 215.04 196.03L201.94 203.16V199.63H201.92ZM218.32 196.97C219.19 198.17 220.43 198.77 222.04 198.77H223.82C225.43 198.77 226.68 198.15 227.58 196.9C228.48 195.65 228.93 193.97 228.93 191.85V186.33H217.01V191.93C217.01 194.09 217.45 195.77 218.32 196.97ZM211.05 237.79V226.2L201.92 223.31V220.04L231.51 229.76V234.13L201.92 244.15V240.84L211.05 237.79ZM213.67 227.01V236.94L229.18 231.93L213.67 227.01ZM231.51 284.62H201.92V280.8L227.54 266.49H201.92V263.6H231.51V267.51L231.47 267.47L205.98 281.73H231.52V284.62H231.51ZM205.18 304.61L207.17 306.31C206.46 307.24 205.91 308.06 205.5 308.77C205.09 309.48 204.76 310.33 204.51 311.34C204.26 312.34 204.13 313.55 204.13 314.97C204.13 316.61 204.39 317.99 204.91 319.11C205.43 320.23 206.09 321.05 206.9 321.59C207.7 322.13 208.53 322.4 209.37 322.4H210.05C211.43 322.4 212.5 321.99 213.26 321.17C214.02 320.35 214.74 318.92 215.42 316.88L216.81 312.63C217.63 310.2 218.62 308.44 219.79 307.37C220.96 306.29 222.35 305.76 223.96 305.76H224.89C226.07 305.76 227.21 306.13 228.31 306.88C229.41 307.63 230.3 308.75 231 310.26C231.69 311.76 232.03 313.57 232.03 315.69C232.03 319.62 230.75 322.88 228.18 325.45L226.32 323.75C227.42 322.5 228.22 321.27 228.71 320.04C229.2 318.81 229.45 317.37 229.45 315.73C229.45 314.2 229.22 312.93 228.75 311.91C228.29 310.89 227.71 310.14 227.02 309.66C226.33 309.18 225.62 308.94 224.89 308.94H224C223.01 308.94 222.14 309.37 221.38 310.23C220.62 311.09 219.93 312.5 219.31 314.45L218.08 318.31C217.32 320.66 216.36 322.46 215.21 323.7C214.05 324.95 212.45 325.57 210.39 325.57H209.33C207.89 325.57 206.57 325.15 205.36 324.3C204.15 323.45 203.19 322.23 202.49 320.63C201.79 319.03 201.43 317.14 201.43 314.96C201.41 310.59 202.67 307.13 205.18 304.61ZM228.93 351.61H204.5V355.18H201.92V344.9H204.5V348.42H228.93V344.9H231.51V355.17H228.93V351.61ZM228.89 393.43V384.56H201.92V381.38H228.89V372.55H231.51V393.44H228.89V393.43ZM173.37 442.72H161.07V480.41H153.16V442.72H140.8V436.66H173.37V442.72ZM192.19 442.72V474.35H197.84V480.41H178.64V474.35H184.29V442.72H178.64V436.66H197.84V442.72H192.19ZM250.41 436.66V480.41H242.82V448.6L233.6 474.1L233.66 474.16H225.32L215.91 447.6V480.41H208.76V436.66H218.99L229.72 467.54L240.76 436.73L240.7 436.67H250.41V436.66ZM271.5 442.72V455.16H287.88V461.22H271.5V474.28H289.26V480.4H263.6V436.65H289.26V442.71H271.5V442.72Z" fill="#ED1C24"/>
<defs>
<radialGradient id="paint0_radial_485_91" cx="0" cy="0" r="1" gradientUnits="userSpaceOnUse" gradientTransform="translate(215.082 292.653) scale(256.211 256.211)">
<stop stop-color="#ED1C24"/>
<stop offset="0.14" stop-color="#E81D30"/>
<stop offset="0.788" stop-color="#A62226"/>
</radialGradient>
</defs>
</svg>
