<?xml version="1.0" encoding="UTF-8"?> <svg xmlns="http://www.w3.org/2000/svg" width="231" height="61" viewBox="0 0 231 61" fill="none"> <path d="M72.75 39.3317H76.794V44.0117H76.174V39.8997H73.37V44.0117H72.75V39.3317Z" fill="white"></path> <path d="M86.0531 39.8008C85.5371 39.8008 85.0941 39.9858 84.7241 40.3558C84.3531 40.7258 84.1691 41.1738 84.1691 41.6978C84.1691 42.0358 84.2521 42.3518 84.4211 42.6448C84.5911 42.9358 84.8191 43.1628 85.1071 43.3218C85.3931 43.4808 85.7091 43.5588 86.0531 43.5588C86.3971 43.5588 86.7121 43.4808 87.0001 43.3218C87.2871 43.1628 87.5151 42.9358 87.6851 42.6448C87.8531 42.3518 87.9381 42.0358 87.9381 41.6978C87.9381 41.1738 87.7521 40.7258 87.3801 40.3558C87.0081 39.9858 86.5661 39.8008 86.0531 39.8008ZM86.0551 39.2118C86.7981 39.2118 87.4131 39.4728 87.9011 39.9948C88.3451 40.4708 88.5671 41.0338 88.5671 41.6848C88.5671 42.3388 88.3321 42.9098 87.8641 43.3978C87.3941 43.8878 86.7911 44.1328 86.0551 44.1328C85.3161 44.1328 84.7121 43.8878 84.2421 43.3978C83.7741 42.9098 83.5391 42.3388 83.5391 41.6848C83.5391 41.0378 83.7611 40.4748 84.2051 39.9998C84.6931 39.4738 85.3101 39.2118 86.0551 39.2118Z" fill="white"></path> <path d="M97.3616 40.2617L95.9516 43.5007H98.7136L97.3616 40.2617ZM95.3496 43.5007L97.2086 39.3327H97.5316L99.3826 43.5007H99.9616V44.6097H99.3636V44.0117H95.3766V44.6357H94.7656V43.5007H95.3496Z" fill="white"></path> <path d="M108.721 39.7928C108.376 39.7928 108.058 39.8748 107.765 40.0408C107.473 40.2048 107.241 40.4368 107.069 40.7338C106.896 41.0308 106.81 41.3468 106.81 41.6788C106.81 42.0078 106.897 42.3238 107.071 42.6238C107.245 42.9248 107.479 43.1588 107.772 43.3258C108.066 43.4938 108.381 43.5778 108.717 43.5778C109.056 43.5778 109.378 43.4948 109.681 43.3278C109.985 43.1618 110.219 42.9378 110.383 42.6538C110.546 42.3708 110.628 42.0508 110.628 41.6948C110.628 41.1558 110.444 40.7018 110.077 40.3378C109.71 39.9748 109.259 39.7928 108.721 39.7928ZM111.2 39.3328V44.0118H110.589V43.2078C110.328 43.5148 110.037 43.7448 109.714 43.8988C109.39 44.0548 109.036 44.1328 108.653 44.1328C107.971 44.1328 107.388 43.8928 106.905 43.4128C106.423 42.9328 106.18 42.3468 106.18 41.6598C106.18 40.9858 106.424 40.4098 106.912 39.9308C107.399 39.4518 107.986 39.2118 108.671 39.2118C109.066 39.2118 109.425 39.2938 109.745 39.4568C110.065 39.6208 110.346 39.8668 110.589 40.1928V39.3328H111.2Z" fill="white"></path> <path d="M120.68 39.7926C120.144 39.7926 119.692 39.9746 119.326 40.3376C118.958 40.7016 118.775 41.1556 118.775 41.6946C118.775 42.0506 118.857 42.3706 119.02 42.6536C119.184 42.9376 119.419 43.1616 119.724 43.3276C120.028 43.4946 120.35 43.5776 120.689 43.5776C121.022 43.5776 121.335 43.4936 121.629 43.3256C121.922 43.1586 122.155 42.9246 122.329 42.6236C122.502 42.3236 122.589 42.0076 122.589 41.6786C122.589 41.3466 122.504 41.0306 122.331 40.7336C122.159 40.4366 121.926 40.2046 121.635 40.0406C121.344 39.8746 121.024 39.7926 120.68 39.7926ZM118.199 39.3326H118.82V40.1926C119.064 39.8666 119.347 39.6206 119.665 39.4566C119.983 39.2936 120.34 39.2116 120.731 39.2116C121.415 39.2116 122.001 39.4516 122.489 39.9306C122.975 40.4096 123.219 40.9856 123.219 41.6596C123.219 42.3466 122.977 42.9326 122.495 43.4126C122.012 43.8926 121.43 44.1326 120.749 44.1326C120.366 44.1326 120.013 44.0546 119.692 43.8986C119.369 43.7446 119.079 43.5146 118.82 43.2076V45.7236H118.199V39.3326Z" fill="white"></path> <path d="M129.977 39.3317H130.597V41.3037L132.83 39.3317H133.694L131.248 41.4737L133.886 44.0117H133.009L130.792 41.8477L130.597 42.0157V44.0117H129.977V39.3317Z" fill="white"></path> <path d="M140.749 39.3317V42.7937L144.288 39.3317H144.337V44.0117H143.717V40.5817L140.205 44.0117H140.129V39.3317H140.749Z" fill="white"></path> <path d="M164.103 40.3048L163.611 40.6008C163.186 40.0538 162.607 39.7808 161.872 39.7808C161.286 39.7808 160.798 39.9628 160.41 40.3298C160.022 40.6968 159.829 41.1418 159.829 41.6648C159.829 42.0058 159.917 42.3268 160.096 42.6278C160.274 42.9298 160.52 43.1608 160.83 43.3278C161.142 43.4938 161.49 43.5768 161.877 43.5768C162.584 43.5768 163.163 43.3048 163.611 42.7568L164.103 43.0708C163.872 43.4068 163.563 43.6678 163.175 43.8538C162.787 44.0398 162.344 44.1328 161.848 44.1328C161.086 44.1328 160.454 43.8978 159.952 43.4268C159.45 42.9568 159.199 42.3848 159.199 41.7108C159.199 41.2578 159.316 40.8368 159.552 40.4488C159.786 40.0598 160.109 39.7578 160.52 39.5388C160.93 39.3208 161.388 39.2108 161.897 39.2108C162.216 39.2108 162.523 39.2598 162.821 39.3538C163.118 39.4488 163.369 39.5728 163.576 39.7238C163.783 39.8758 163.958 40.0688 164.103 40.3048Z" fill="white"></path> <path d="M181.053 40.2617L179.643 43.5007H182.405L181.053 40.2617ZM179.041 43.5007L180.9 39.3327H181.223L183.074 43.5007H183.653V44.6097H183.055V44.0117H179.068V44.6357H178.457V43.5007H179.041Z" fill="white"></path> <path d="M189.57 39.3326H190.226L191.883 42.9366L193.49 39.3326H194.151L191.276 45.7236H190.621L191.549 43.6576L189.57 39.3326Z" fill="white"></path> <path d="M207.752 44.0117H200.549V39.3317H201.169V43.4447H203.827V39.3317H204.46V43.4447H207.119V39.3317H207.752V44.0117Z" fill="white"></path> <path d="M217.006 39.8008C216.49 39.8008 216.047 39.9858 215.677 40.3558C215.306 40.7258 215.122 41.1738 215.122 41.6978C215.122 42.0358 215.205 42.3518 215.374 42.6448C215.544 42.9358 215.772 43.1628 216.06 43.3218C216.346 43.4808 216.662 43.5588 217.006 43.5588C217.35 43.5588 217.665 43.4808 217.952 43.3218C218.24 43.1628 218.468 42.9358 218.638 42.6448C218.806 42.3518 218.891 42.0358 218.891 41.6978C218.891 41.1738 218.705 40.7258 218.333 40.3558C217.961 39.9858 217.519 39.8008 217.006 39.8008ZM217.008 39.2118C217.751 39.2118 218.366 39.4728 218.854 39.9948C219.298 40.4708 219.52 41.0338 219.52 41.6848C219.52 42.3388 219.285 42.9098 218.817 43.3978C218.347 43.8878 217.744 44.1328 217.008 44.1328C216.269 44.1328 215.665 43.8878 215.195 43.3978C214.727 42.9098 214.492 42.3388 214.492 41.6848C214.492 41.0378 214.714 40.4748 215.158 39.9998C215.646 39.4738 216.263 39.2118 217.008 39.2118Z" fill="white"></path> <path d="M226.798 37.4537H227.382C227.483 37.6027 227.617 37.7147 227.785 37.7897C227.954 37.8637 228.154 37.9007 228.388 37.9007C228.625 37.9007 228.815 37.8687 228.96 37.8017C229.105 37.7367 229.242 37.6207 229.371 37.4537H229.938C229.873 37.7117 229.707 37.9277 229.44 38.1007C229.173 38.2747 228.821 38.3607 228.383 38.3607C227.949 38.3607 227.595 38.2757 227.321 38.1057C227.046 37.9347 226.871 37.7177 226.798 37.4537ZM226.886 39.3327V42.7947L230.426 39.3327H230.474V44.0127H229.854V40.5827L226.341 44.0127H226.266V39.3327H226.886Z" fill="white"></path> <path d="M92.5502 28.1309H89.2422V14.8539H92.5502V28.1309Z" fill="white"></path> <path d="M104.752 14.8539V17.2869H98.9164V20.2529H104.752V22.6859H98.9164V28.1309H95.6094V14.8539H104.752Z" fill="white"></path> <path d="M119.349 14.8539V17.2869H114.54V28.1309H111.233V17.2869H106.424V14.8539H119.349Z" fill="white"></path> <path d="M139.145 24.0818V26.9798C137.485 27.8618 135.745 28.3018 133.928 28.3018C131.57 28.3018 129.694 27.6498 128.296 26.3478C126.899 25.0468 126.201 23.4418 126.201 21.5348C126.201 19.6278 126.937 18.0088 128.41 16.6788C129.883 15.3488 131.808 14.6828 134.184 14.6828C136.079 14.6828 137.682 15.0718 138.993 15.8518V18.8078C137.383 17.9018 135.86 17.4488 134.422 17.4488C133.009 17.4488 131.854 17.8278 130.957 18.5838C130.061 19.3408 129.613 20.3058 129.613 21.4778C129.613 22.6568 130.055 23.6288 130.938 24.3958C131.823 25.1628 132.955 25.5448 134.336 25.5448C135.02 25.5448 135.679 25.4558 136.313 25.2748C136.946 25.0938 137.89 24.6968 139.145 24.0818Z" fill="white"></path> <path d="M148.82 25.5448C150.075 25.5448 151.085 25.1728 151.852 24.4288C152.618 23.6848 153.001 22.7068 153.001 21.4968C153.001 20.2798 152.618 19.3018 151.852 18.5598C151.085 17.8178 150.075 17.4478 148.82 17.4478C147.559 17.4478 146.544 17.8178 145.774 18.5598C145.004 19.3018 144.619 20.2798 144.619 21.4968C144.619 22.7068 145.004 23.6848 145.774 24.4288C146.544 25.1728 147.559 25.5448 148.82 25.5448ZM148.82 14.6828C151.082 14.6828 152.912 15.3658 154.313 16.7298C155.713 18.0958 156.414 19.6848 156.414 21.4968C156.414 23.3348 155.704 24.9268 154.285 26.2768C152.865 27.6258 151.044 28.3018 148.82 28.3018C146.571 28.3018 144.739 27.6288 143.327 26.2868C141.914 24.9428 141.207 23.3468 141.207 21.4968C141.207 19.6778 141.909 18.0878 143.313 16.7268C144.716 15.3638 146.552 14.6828 148.82 14.6828Z" fill="white"></path> <path d="M165.952 19.7769L170.219 14.8539H173.094V28.1309H169.786V19.8429L166.2 24.0059H165.703L162.117 19.8429V28.1309H158.809V14.8539H161.681L165.952 19.7769Z" fill="white"></path> <path d="M179.47 17.2859V20.3649H181.01C182.385 20.3649 183.072 19.8529 183.072 18.8259C183.072 18.2489 182.889 17.8479 182.522 17.6229C182.154 17.3989 181.526 17.2859 180.64 17.2859H179.47ZM176.162 14.8529H182.084C183.428 14.8529 184.495 15.2429 185.287 16.0219C186.078 16.8019 186.475 17.7229 186.475 18.7869C186.475 19.8899 186.083 20.8349 185.301 21.6199C184.519 22.4069 183.452 22.7989 182.103 22.7989H179.47V28.1309H176.162V14.8529Z" fill="white"></path> <path d="M194.704 23.1879L192.552 18.0279L190.602 23.1879H194.704ZM194.424 14.8539L200.322 28.1299H196.766L195.671 25.5079H189.725L188.735 28.1299H185.23L190.593 14.8539H194.424Z" fill="white"></path> <path d="M215.3 14.8539V28.1309H212.507L205.178 19.6249V28.1309H201.871V14.8539H204.904L211.992 22.9699V14.8539H215.3Z" fill="white"></path> <path d="M222.039 28.1309V21.9349L216.803 14.8539H220.812L223.693 19.0269L226.586 14.8539H230.583L225.347 21.9389V28.1309H222.039Z" fill="white"></path> <path d="M85.9734 15.7758V18.6748C84.2824 17.8568 82.6284 17.4488 81.0124 17.4488C79.4534 17.4488 78.2534 17.8418 77.4104 18.6268C76.5684 19.4128 76.1464 20.4138 76.1464 21.6308C76.1464 22.7968 76.5684 23.7398 77.4104 24.4628C78.2534 25.1848 79.3624 25.5448 80.7374 25.5448C81.4654 25.5448 82.1974 25.3868 82.9324 25.0698V23.5218H81.0124V21.0878H86.2494V26.5148C85.7234 27.0408 84.9234 27.4698 83.8494 27.8028C82.7754 28.1358 81.7124 28.3018 80.6614 28.3018C78.3484 28.3018 76.4484 27.6628 74.9634 26.3868C73.4774 25.1098 72.7344 23.4868 72.7344 21.5168C72.7344 19.5008 73.4774 17.8588 74.9634 16.5878C76.4484 15.3188 78.3734 14.6838 80.7374 14.6838C82.6884 14.6838 84.4334 15.0468 85.9734 15.7758Z" fill="white"></path> <path d="M21.8213 34.539C21.8213 36.495 20.2353 38.082 18.2783 38.082C16.3223 38.082 14.7363 36.495 14.7363 34.539C14.7363 32.582 16.3223 30.996 18.2783 30.996C20.2353 30.996 21.8213 32.582 21.8213 34.539Z" fill="white"></path> <path d="M48.548 31.7121H34.485C32.977 31.7121 31.755 32.9341 31.755 34.4421C31.755 35.9501 32.977 37.1711 34.485 37.1711H45.634C44.298 47.0131 35.839 54.6211 25.639 54.6211C14.638 54.6211 5.681 45.7701 5.478 34.8171V29.7381C5.478 28.2251 4.252 26.9991 2.739 26.9991C1.226 26.9991 0 28.2251 0 29.7381V35.3821V35.4171C0.497 49.1191 11.817 60.0811 25.639 60.0811C39.777 60.0811 51.278 48.5801 51.278 34.4421C51.278 32.9341 50.056 31.7121 48.548 31.7121Z" fill="white"></path> <path d="M22.172 -0.000249863C11.312 -0.000249863 2.25 7.84875 0.361 18.1707C0.124 19.4697 0 20.3118 0 20.7388C0 22.2468 1.222 23.4688 2.73 23.4688C4.107 23.4688 5.233 22.4467 5.421 21.1217C5.46 20.8327 5.56 20.0888 5.615 19.7108C5.622 19.6718 5.63 19.6318 5.635 19.5928C5.713 19.1788 5.816 18.6908 5.943 18.1728C7.74 10.8828 14.334 5.45875 22.172 5.45875H45.819V14.3448C45.819 15.8528 47.041 17.0748 48.548 17.0748C50.056 17.0748 51.278 15.8528 51.278 14.3448V-0.000249863H22.172Z" fill="white"></path> </svg> 