<?xml version="1.0" encoding="UTF-8"?>
<!DOCTYPE svg PUBLIC "-//W3C//DTD SVG 1.1//EN" "http://www.w3.org/Graphics/SVG/1.1/DTD/svg11.dtd">
<!-- Creator: CorelDRAW 2017 -->
<svg xmlns="http://www.w3.org/2000/svg" xml:space="preserve" width="276px" height="32px" version="1.1" style="shape-rendering:geometricPrecision; text-rendering:geometricPrecision; image-rendering:optimizeQuality; fill-rule:evenodd; clip-rule:evenodd"
viewBox="0 0 276 32"
 xmlns:xlink="http://www.w3.org/1999/xlink">
 <defs>
<!--  <style type="text/css">-->
<!--   <![CDATA[-->
<!--    .fil0 {fill:white;fill-rule:nonzero}-->
<!--   ]]>-->
<!--  </style>-->
 </defs>
 <g id="Слой_x0020_1">
  <metadata id="CorelCorpID_0Corel-Layer"/>
  <path class="fil0" d="M220 13.5c0,-2 -1.5,-3.5 -3.5,-3.5l-9 0c-2,0 -3.5,1.5 -3.5,3.5l0 6c0,2 1.5,3.5 3.5,3.5l9 0c2.4,0 3.5,-1.19 3.5,-3.5l0 -6zm-11 0.5l6 0 0 5 -6 0 0 -5zm-26 -4l0 4 -14 0c0,-2.5 1,-4 3.5,-4l10.5 0zm-14 5l0 4.5c0,2 1.5,3.5 3.5,3.5l10.5 0 0 -4 -9 0 0 -4 -5 0zm-108 -5l15 0 0 13 -5 0 0 -9 -5 0 0 9 -5 -0.07 0 -12.93zm17 0l0 13 5 0 0 -9 12 0c0,-2.03 -1,-3.98 -3.96,-3.98l-13.04 -0.02zm6 5l11 0c0,2 -2,4 -4,4l-7 0 0 -4zm29 -1.5c0,-2 -1.5,-3.5 -3.5,-3.5l-9 0c-2,0 -3.5,1.5 -3.5,3.5l0 6c0,2 1.5,3.5 3.5,3.5l9 0c2.4,0 3.5,-1.19 3.5,-3.5l0 -6zm-11 0.5l6 0 0 5 -6 0 0 -5zm28.5 -4c2,0 3.5,1.5 3.5,3.5l0 6c0,2.08 -1.42,3.5 -3.5,3.5l-3.5 0 0 1 -4 0 0 -1 -3.5 0c-2,0 -3.5,-1.5 -3.5,-3.5l0 -6c0,-2.09 1.4,-3.5 3.5,-3.5l11 0zm-10.5 4l0 5 3 0 0 -4 4 0 0 4 3 0 0 -5 -10 0zm17 -4l14 0 0 4 -14 0 0 -4zm0 5l10 0 0 3 -6 0 0 1 10 0 0 4 -14 0 0 -8zm30 -5l0 4 -14 0c0,-2.5 1,-4 3.5,-4l10.5 0zm-14 5l0 4.5c0,2 1.5,3.5 3.5,3.5l10.5 0 0 -4 -9 0 0 -4 -5 0zm32 -5l5 0 0 13 -5 0 0 -13zm12 0l5 0 0 13 -5 0 0 -7.5 -6 6 0 -5 6 -6.5zm26 0l5 0 0 13 -5 0 0 -13zm10 0l5 0 0 13 -5 0 0 -5 -4 0 0 -4 4 0 0 -4zm19 5l0 -1 -6 0 0 9 -5 0 0 -9c0,-2 1.5,-4 4,-4l12 0 0 13 -5 0 0 -5 -5 0 0 -3 5 0zm12 -1l0 9 -5 0 0 -9c0,-2.5 1.5,-4 4,-4l12 0 0 13 -5 0 0 -9 -6 0zm-263 12l0 -20c0,-3 2,-5 5,-5l46 0c3,0 5,2 5,5l0 20c0,3 -2,5 -5,5l-46 0c-3,0 -5,-2 -5,-5zm4 -19l0 18c0,1.5 0.5,2 2,2l6 0 0 -18 12 0c1.56,0 3,1.45 3,3l0 8c0,1.55 -1.45,3 -3,3l-8 0 0 4 34 0c1.5,0 2,-0.5 2,-2l0 -18c0,-1.5 -0.5,-2 -2,-2l-16 0 0 4 8 0c1.56,0 3,1.45 3,3l0 8c0,1.55 -1.45,3 -3,3l-12 0 0 -18 -24 0c-1.5,0 -2,0.5 -2,2zm30 6l0 6 7 0 0 -6 -7 0zm-18 0l0 6 7 0 0 -6 -7 0z"/>
 </g>
</svg>
