<?xml version="1.0" standalone="no"?>
<!DOCTYPE svg PUBLIC "-//W3C//DTD SVG 20010904//EN"
 "http://www.w3.org/TR/2001/REC-SVG-20010904/DTD/svg10.dtd">
<svg version="1.0" xmlns="http://www.w3.org/2000/svg"
 width="1590.000000pt" height="882.000000pt" viewBox="0 0 1590.000000 882.000000"
 preserveAspectRatio="xMidYMid meet">

<g transform="translate(0.000000,882.000000) scale(0.100000,-0.100000)"
fill="currentColor" stroke="currentColor">
<path d="M166 4078 c-7 -115 -44 -797 -44 -818 0 -13 77 -15 649 -12 l649 2 1
233 c1 127 4 334 8 459 l6 227 -632 1 -631 0 -6 -92z"/>
<path d="M2135 4143 c29 -113 157 -669 175 -758 12 -60 23 -117 26 -125 3 -13
86 -15 684 -12 374 1 680 5 680 8 0 4 -48 160 -106 348 -95 308 -143 465 -163
536 l-7 25 -648 3 -648 2 7 -27z"/>
<path d="M4881 3738 c-12 -238 -25 -446 -27 -463 l-5 -30 514 0 515 0 6 130
c4 72 12 280 19 463 l12 332 -505 0 -506 0 -23 -432z"/>
<path d="M6465 4138 c8 -45 125 -870 125 -880 0 -4 326 -8 725 -8 573 0 725 3
726 13 3 29 9 58 33 162 27 120 156 728 156 739 0 3 -398 6 -885 6 l-886 0 6
-32z"/>
<path d="M8790 4148 c0 -13 -5 -167 -10 -343 -5 -176 -10 -373 -11 -438 l-1
-117 544 -3 545 -2 6 260 c4 143 7 351 7 463 l0 202 -540 0 -540 0 0 -22z"/>
<path d="M10816 4128 c-3 -24 -8 -113 -11 -198 -4 -85 -13 -265 -21 -400 -8
-135 -14 -254 -14 -265 0 -20 5 -20 2102 -18 l2103 2 58 88 c111 169 236 434
328 694 l48 139 -842 0 -842 0 -55 -63 c-201 -230 -409 -324 -815 -368 -113
-12 -603 -7 -638 6 -15 7 -17 19 -12 129 3 66 7 160 9 209 l3 87 -698 0 -698
0 -5 -42z"/>
<path d="M96 2933 c-3 -27 -8 -84 -11 -128 -14 -224 -26 -385 -30 -425 l-5
-45 680 0 680 0 0 216 c0 119 3 264 7 322 l6 107 -661 0 -660 0 -6 -47z"/>
<path d="M2390 2976 c0 -2 29 -147 65 -321 36 -175 65 -318 65 -319 0 -1 328
-1 730 -1 l729 0 -6 25 c-13 60 -78 275 -174 588 l-11 32 -699 0 c-384 0 -699
-2 -699 -4z"/>
<path d="M4830 2978 c0 -2 -11 -142 -25 -313 -14 -170 -25 -315 -25 -320 0 -7
186 -10 539 -10 l538 0 6 170 c4 93 7 239 7 323 l0 152 -520 0 c-286 0 -520
-1 -520 -2z"/>
<path d="M6630 2974 c0 -3 20 -145 45 -316 25 -171 45 -313 45 -317 0 -3 253
-6 563 -6 l563 0 64 300 c35 165 65 310 68 323 l4 22 -676 0 c-372 0 -676 -3
-676 -6z"/>
<path d="M8755 2968 c-2 -7 -6 -121 -9 -253 -4 -132 -9 -271 -12 -310 l-6 -70
571 0 571 0 0 111 c0 61 -3 206 -7 322 l-6 212 -549 0 c-430 0 -549 -3 -553
-12z"/>
<path d="M10746 2938 c-3 -24 -12 -162 -21 -308 -9 -146 -17 -272 -19 -280 -2
-13 140 -15 1233 -15 1114 1 1253 2 1406 18 625 66 904 171 1253 473 59 50
120 106 136 123 l30 31 -2007 0 -2006 0 -5 -42z"/>
<path d="M7742 1616 c-87 -28 -156 -96 -188 -183 -7 -21 -13 -70 -14 -109 0
-60 5 -81 31 -133 46 -93 93 -122 304 -190 204 -67 241 -100 233 -216 -7 -109
-72 -165 -200 -173 -81 -5 -155 17 -204 61 -42 36 -64 75 -79 142 l-12 50 -49
-3 c-27 -2 -53 -8 -58 -12 -13 -13 12 -127 41 -185 82 -165 286 -236 475 -165
120 45 195 149 205 284 8 107 -14 173 -80 240 -58 59 -106 81 -299 140 -132
41 -172 68 -188 127 -31 115 56 208 195 209 126 0 192 -45 222 -150 17 -64 18
-65 87 -53 l38 6 -5 49 c-13 110 -78 200 -177 247 -45 21 -72 26 -145 28 -56
2 -106 -3 -133 -11z"/>
<path d="M12333 1615 c-152 -47 -269 -194 -307 -387 -9 -42 -16 -126 -16 -186
0 -190 50 -332 155 -438 68 -69 137 -105 237 -125 120 -23 257 18 386 115 l62
48 0 214 0 214 -192 -2 -193 -3 0 -65 0 -65 133 -3 132 -3 0 -103 0 -104 -32
-28 c-87 -73 -223 -102 -333 -69 -78 22 -162 104 -193 188 -32 83 -45 189 -39
292 15 227 110 366 271 394 146 25 272 -45 308 -173 6 -23 15 -45 19 -50 4 -4
30 -1 58 9 48 15 51 18 44 43 -36 150 -123 250 -247 287 -61 18 -196 18 -253
0z"/>
<path d="M100 1050 l0 -560 55 0 55 0 0 472 c0 259 3 469 6 466 3 -3 63 -215
133 -470 l128 -463 51 -3 c46 -3 53 0 62 20 5 13 65 221 134 463 l125 440 3
-460 3 -460 58 -3 57 -3 0 561 0 560 -82 0 -83 0 -129 -463 c-71 -254 -132
-465 -135 -469 -3 -4 -58 183 -120 415 -63 232 -121 443 -129 470 l-14 47 -89
0 -89 0 0 -560z"/>
<path d="M1410 1606 c0 -3 -76 -249 -170 -548 -93 -299 -170 -549 -170 -556 0
-10 16 -12 62 -10 l61 3 47 165 47 165 195 3 195 2 12 -42 c7 -24 31 -101 53
-171 l40 -128 66 3 c37 2 66 6 65 11 -1 4 -84 255 -185 557 l-183 550 -67 0
c-38 0 -68 -2 -68 -4z m85 -183 c9 -32 43 -146 76 -253 32 -108 59 -201 59
-208 0 -9 -39 -12 -150 -12 -103 0 -150 3 -150 11 0 6 25 90 55 186 30 96 62
210 72 254 10 43 19 79 20 79 1 0 9 -26 18 -57z"/>
<path d="M2012 1053 l3 -558 60 0 60 0 2 245 2 245 108 0 c158 0 163 -5 331
-320 l90 -170 77 -3 c42 -2 75 1 73 5 -1 5 -41 80 -87 168 -97 185 -145 259
-195 303 -41 35 -43 42 -18 42 30 1 106 40 140 73 68 65 97 169 81 285 -11 75
-36 129 -84 176 -58 59 -102 66 -392 66 l-253 0 2 -557z m523 411 c101 -52
116 -221 26 -297 -48 -40 -94 -48 -266 -45 l-156 3 0 178 c0 97 1 180 1 183 0
3 80 4 178 2 155 -3 182 -6 217 -24z"/>
<path d="M2960 1050 l0 -560 60 0 60 0 0 560 0 560 -60 0 -60 0 0 -560z"/>
<path d="M3290 1050 l0 -560 55 0 55 0 0 437 c0 254 4 433 9 428 5 -6 114
-203 242 -438 l234 -428 60 3 60 3 3 558 2 557 -60 0 -60 0 0 -437 0 -438
-237 435 -238 435 -62 3 -63 3 0 -561z"/>
<path d="M4212 1053 l3 -558 340 0 340 0 0 65 0 65 -283 3 -282 2 2 188 3 187
253 3 252 2 0 65 0 65 -255 0 -255 0 0 170 0 170 270 0 270 0 0 65 0 65 -330
0 -330 0 2 -557z"/>
<path d="M5412 1053 l3 -558 170 -3 c183 -3 284 8 351 37 90 40 162 144 206
298 30 104 32 352 4 453 -41 149 -113 252 -211 300 -48 24 -59 25 -288 28
l-237 4 2 -559z m445 412 c52 -16 107 -64 136 -122 59 -114 68 -381 17 -528
-27 -79 -61 -126 -113 -156 -39 -22 -54 -24 -204 -27 l-163 -4 0 426 0 426
138 0 c94 0 155 -5 189 -15z"/>
<path d="M6360 1050 l0 -560 60 0 60 0 0 560 0 560 -60 0 -60 0 0 -560z"/>
<path d="M6692 1053 l3 -558 340 0 340 0 0 65 0 65 -283 3 -282 2 2 188 3 187
253 3 252 2 0 65 0 65 -255 0 -255 0 0 170 0 170 273 2 272 3 3 63 3 62 -336
0 -335 0 2 -557z"/>
<path d="M8400 1050 l0 -560 340 0 341 0 -3 67 -3 68 -277 3 -278 2 0 190 0
190 253 0 252 0 -3 65 -4 65 -249 0 -249 0 0 170 0 170 270 0 270 0 0 65 0 65
-330 0 -330 0 0 -560z"/>
<path d="M9240 1050 l0 -560 285 0 286 0 -3 67 -3 68 -222 3 -223 2 0 490 0
490 -60 0 -60 0 0 -560z"/>
<path d="M10262 1053 l3 -558 340 0 340 0 0 65 0 65 -280 3 -280 2 2 188 2
187 251 3 250 2 0 65 0 65 -252 0 -253 0 2 167 2 168 271 3 270 2 0 65 0 65
-335 0 -335 0 2 -557z"/>
<path d="M11110 1050 l0 -561 58 3 57 3 3 435 2 435 238 -435 238 -435 62 -3
62 -3 0 561 0 560 -60 0 -61 0 3 -430 c2 -237 1 -430 -2 -430 -3 0 -111 194
-240 430 l-234 430 -63 0 -63 0 0 -560z"/>
<path d="M13050 1050 l0 -560 60 0 60 0 0 560 0 560 -60 0 -60 0 0 -560z"/>
<path d="M13380 1050 l0 -561 58 3 57 3 0 433 c0 237 3 432 8 432 4 0 7 -4 7
-8 0 -8 427 -793 456 -840 12 -19 23 -22 74 -22 l60 0 0 560 0 560 -60 0 -60
0 -2 -430 -3 -431 -235 431 -235 430 -62 0 -63 0 0 -560z"/>
<path d="M14307 1053 l3 -558 340 -3 341 -2 -3 67 -3 68 -277 3 -278 2 0 190
0 190 250 0 250 0 0 65 0 65 -250 0 -250 0 0 170 0 170 270 0 270 0 0 65 0 65
-332 0 -333 0 2 -557z"/>
</g>
</svg>
