<svg xmlns="http://www.w3.org/2000/svg" version="1.1" xmlns:xlink="http://www.w3.org/1999/xlink" width="512" height="512" x="0" y="0" viewBox="0 0 64 64" style="enable-background:new 0 0 512 512" xml:space="preserve" class=""><g><path fill="#674025" d="M42 20v22l20-11V11z" opacity="1" data-original="#674025" class=""></path><path fill="#976947" d="M22 22V11l20 9v11z" opacity="1" data-original="#976947" class=""></path><path fill="#c18e59" d="M29 14.15 22 11l20-9 20 9-20 9-9-4.05" opacity="1" data-original="#c18e59" class=""></path><path fill="#976947" d="M42 31v20L22 62 2 51V31" opacity="1" data-original="#976947" class=""></path><path fill="#674025" d="M22 62 2 51V31l20 9z" opacity="1" data-original="#674025" class=""></path><path fill="#c18e59" d="M9 34.15 2 31l20-9 20 9-20 9-9-4.05" opacity="1" data-original="#c18e59" class=""></path><path fill="#f2c351" d="M28.322 24.845 9 34.15V41l4 2v-7.05l19.543-9.206" opacity="1" data-original="#f2c351"></path><path fill="#f7d881" d="m30.434 25.795-2.112-.95L9 34.15V41l2 1v-7.05z" opacity="1" data-original="#f7d881" class=""></path><path fill="#d5cec2" d="M26 43v11l12-6V38z" opacity="1" data-original="#d5cec2" class=""></path><path fill="#f2c351" d="M48.322 4.845 29 14.15V21l4 2v-7.05l19.543-9.206" opacity="1" data-original="#f2c351"></path><path fill="#d5cec2" d="M46 23v11l12-6V18z" opacity="1" data-original="#d5cec2" class=""></path><path fill="#e7e4dd" d="M26 53.107c5.391-2.683 9.254-7.973 9.902-14.233L26 43zM46 33.107c5.391-2.683 9.254-7.973 9.902-14.233L46 23z" opacity="1" data-original="#e7e4dd"></path><path fill="#f7d881" d="m50.434 5.795-2.112-.95L29 14.15V21l2 1v-7.05z" opacity="1" data-original="#f7d881" class=""></path></g></svg>