<svg xmlns="http://www.w3.org/2000/svg" version="1.1" xmlns:xlink="http://www.w3.org/1999/xlink" width="512" height="512" x="0" y="0" viewBox="0 0 512 512" style="enable-background:new 0 0 512 512" xml:space="preserve" class=""><g><path d="M425.75 52.5h37.5v-45h-37.5v45zm-377 377h37.5v-45h-37.5v45z" style="fill-rule:evenodd;clip-rule:evenodd;" fill="#ffffff" data-original="#ffffff" class=""></path><path d="M463.25 52.5h-37.5v-45H384.5v105c0 8.25 6.75 15 15 15h90c8.25 0 15-6.75 15-15V7.5h-41.25v45zm-377 377h-37.5v-45H7.5v105c0 8.25 6.75 15 15 15h90c8.25 0 15-6.75 15-15v-105H86.25v45z" style="fill-rule:evenodd;clip-rule:evenodd;" fill="#c3202b" data-original="#fec463" class="" opacity="1"></path><path d="M246.1 228.186c0 8.548-6.994 15.542-15.541 15.542h-15.282c-8.547 0-15.541 6.995-15.541 15.541v40.103c0 14.246-11.656 25.902-25.902 25.902s-25.902-11.656-25.902-25.902v-12.83c0-8.547-6.997-15.541-15.542-15.541h-25.65c7.526 75.8 71.479 135 149.259 135 15.903 0 31.229-2.475 45.612-7.061v-25.174c0-9.052 7.407-16.46 16.46-16.46s16.46-7.408 16.46-16.46-7.408-16.46-16.46-16.46h-15.284c-15.087 0-27.433-12.345-27.433-27.433 0-15.089 12.344-27.433 27.433-27.433h41.9c9.053 0 16.46-7.408 16.46-16.46v-16.186c0-9.052 7.407-16.46 16.46-16.46h24.146C385.776 154.748 326.581 106 256 106c-33.444 0-64.332 10.945-89.276 29.449.275 8.311 7.16 15.031 15.532 15.031h72.651c8.545 0 15.541 6.993 15.541 15.541s-6.994 15.542-15.541 15.542h-24.348c-8.547 0-15.542 6.993-15.542 15.541s6.994 15.541 15.542 15.541c8.547 0 15.541 6.993 15.541 15.541z" style="fill-rule:evenodd;clip-rule:evenodd;" fill="#acf3f9" data-original="#acf3f9" class=""></path><path d="M302.788 269.519c-15.089 0-27.433 12.345-27.433 27.433s12.346 27.433 27.433 27.433h15.284c9.052 0 16.46 7.408 16.46 16.46 0 9.053-7.407 16.46-16.46 16.46s-16.46 7.408-16.46 16.46v25.174C362.152 379.637 406 322.939 406 256c0-12.262-1.471-24.18-4.247-35.587h-24.146c-9.052 0-16.46 7.408-16.46 16.46v16.186c0 9.053-7.408 16.46-16.46 16.46h-41.899zm-72.229-25.791c8.547 0 15.541-6.993 15.541-15.542 0-8.548-6.993-15.541-15.541-15.541s-15.542-6.994-15.542-15.541c0-8.548 6.995-15.541 15.542-15.541h24.348c8.548 0 15.541-6.994 15.541-15.542s-6.996-15.541-15.541-15.541h-72.651c-8.372 0-15.256-6.721-15.532-15.032C129.879 162.78 106 206.601 106 256c0 5.062.251 10.066.741 15h25.649c8.544 0 15.542 6.994 15.542 15.541v12.83c0 14.246 11.656 25.902 25.902 25.902s25.902-11.656 25.902-25.902v-40.103c0-8.546 6.995-15.541 15.541-15.541h15.282z" style="fill-rule:evenodd;clip-rule:evenodd;" fill="#a9e899" data-original="#a9e899" class=""></path><path d="M60.589 234.2C71.754 136.16 154.971 60 256 60c23.727 0 23.727-30 0-30-117.603 0-214.293 89.565-225.589 204.2H15l30 45 30-45H60.589zm390.822 43.6H437l30-44.999 30 45h-15.411C470.293 392.435 373.603 482 256 482c-23.727 0-23.727-30 0-30 101.029 0 184.246-76.16 195.411-174.2z" style="fill-rule:evenodd;clip-rule:evenodd;" fill="#c3202b" data-original="#fdef8e" class="" opacity="1"></path><path d="M267.25 405.584C194.63 400.2 136.4 343.112 129.24 271h-22.5c7.526 75.8 71.479 135 149.259 135 3.785 0 7.537-.14 11.251-.416zM166.723 135.449c.176 5.287 3.001 9.984 7.475 12.762 24.479-23.692 57-39.123 93.074-41.793-3.69-.32-7.567-.418-11.272-.418-33.444 0-64.332 10.945-89.277 29.449z" style="fill-rule:evenodd;clip-rule:evenodd;" fill="#5ceaee" data-original="#5ceaee" class=""></path><path d="M106.74 271h22.5c-.49-4.934-.741-9.938-.741-15 0-42.308 17.516-80.525 45.691-107.794-4.335-2.654-7.288-7.372-7.467-12.757C129.879 162.78 106 206.601 106 256c0 5.062.251 10.066.74 15z" style="fill-rule:evenodd;clip-rule:evenodd;" fill="#6bd24d" data-original="#6bd24d"></path><path d="M243.6 60.397c4.102-.255 8.234-.397 12.4-.397 23.727 0 23.727-30 0-30-5.851 0-11.648.231-17.387.666 13.932 3.734 16.381 22.388 4.987 29.731zm24.799 391.206c-4.101.255-8.234.397-12.4.397-23.727 0-23.727 30 0 30 5.851 0 11.648-.231 17.387-.666-13.932-3.734-16.38-22.388-4.987-29.731z" style="fill-rule:evenodd;clip-rule:evenodd;" fill="#c3202b" data-original="#fee026" class="" opacity="1"></path><path d="M30 384.5H7.5v105c0 8.25 6.75 15 15 15H45c-8.25 0-15-6.75-15-15v-105zm377-377h-22.5v105c0 8.25 6.75 15 15 15H422c-8.25 0-15-6.75-15-15V7.5z" style="fill-rule:evenodd;clip-rule:evenodd;" fill="#c3202b" data-original="#fb8e4b" class="" opacity="1"></path><path d="M301.144 155.979v-15m30 30v-15" style="fill-rule:evenodd;clip-rule:evenodd;stroke-width:15.0001;stroke-miterlimit:22.9256;" fill-rule="evenodd" clip-rule="evenodd" fill="none" stroke="#ffffff" stroke-width="15.0001" stroke-miterlimit="22.9256" data-original="#ffffff"></path><path d="M401.753 220.413h-24.146c-9.052 0-16.46 7.408-16.46 16.46v16.186c0 9.053-7.408 16.46-16.46 16.46h-41.9c-15.089 0-27.433 12.345-27.433 27.433s12.346 27.433 27.433 27.433h15.284c9.052 0 16.46 7.408 16.46 16.46 0 9.053-7.407 16.46-16.46 16.46s-16.46 7.408-16.46 16.46v25.174m-134.887-263.49c.275 8.311 7.16 15.031 15.532 15.031h72.651c8.545 0 15.541 6.993 15.541 15.541s-6.994 15.542-15.541 15.542h-24.348c-8.547 0-15.542 6.993-15.542 15.541s6.994 15.541 15.542 15.541 15.541 6.993 15.541 15.541-6.994 15.542-15.541 15.542h-15.282c-8.547 0-15.541 6.995-15.541 15.541v40.103c0 14.246-11.656 25.902-25.902 25.902s-25.902-11.656-25.902-25.902v-12.83c0-8.547-6.997-15.541-15.542-15.541h-25.847M384.5 7.5h120v105c0 8.25-6.75 15-15 15h-90c-8.25 0-15-6.75-15-15V7.5z" style="fill-rule:evenodd;clip-rule:evenodd;stroke-width:15.0001;stroke-miterlimit:22.9256;" fill-rule="evenodd" clip-rule="evenodd" fill="none" stroke="#000000" stroke-width="15.0001" stroke-miterlimit="22.9256" data-original="#000000" class=""></path><path d="M463.25 7.5v45h-37.5v-45m-7.5 75h52.5M7.5 384.5h120v105c0 8.25-6.75 15-15 15h-90c-8.25 0-15-6.75-15-15v-105z" style="fill-rule:evenodd;clip-rule:evenodd;stroke-width:15.0001;stroke-miterlimit:22.9256;" fill-rule="evenodd" clip-rule="evenodd" fill="none" stroke="#000000" stroke-width="15.0001" stroke-miterlimit="22.9256" data-original="#000000" class=""></path><path d="M86.25 384.5v45h-37.5v-45m-7.5 74.999h52.5M75 234.2l-30 44.999-30-45h15.411C41.707 119.565 138.397 30 256 30c23.727 0 23.727 30 0 30-101.029 0-184.246 76.16-195.411 174.2H75zm341.712 180.967C375.655 456.442 318.814 482 256 482c-23.727 0-23.727-30 0-30 101.029 0 184.246-76.16 195.411-174.2H437l30-44.999 30 45h-15.411c-4.727 47.973-24.416 91.55-54.329 126.015" style="fill-rule:evenodd;clip-rule:evenodd;stroke-width:15.0001;stroke-miterlimit:22.9256;" fill-rule="evenodd" clip-rule="evenodd" fill="none" stroke="#000000" stroke-width="15.0001" stroke-miterlimit="22.9256" data-original="#000000" class=""></path><path d="M131.311 172.598C115.327 196.447 106 225.133 106 256c0 82.843 67.157 150 150 150s150-67.157 150-150-67.157-150-150-150c-46.412 0-87.897 21.081-115.411 54.188" style="fill-rule:evenodd;clip-rule:evenodd;stroke-width:15.0001;stroke-miterlimit:22.9256;" fill-rule="evenodd" clip-rule="evenodd" fill="none" stroke="#000000" stroke-width="15.0001" stroke-miterlimit="22.9256" data-original="#000000" class=""></path></g></svg>