<svg xmlns="http://www.w3.org/2000/svg" version="1.1" xmlns:xlink="http://www.w3.org/1999/xlink" width="512" height="512" x="0" y="0" viewBox="0 0 64 64" style="enable-background:new 0 0 512 512" xml:space="preserve" class=""><g><g data-name="24-Cargo ship"><path fill="#f0f0f0" d="m56 26 .86 3H53v-3z" opacity="1" data-original="#f0f0f0"></path><path fill="#db3744" d="M56.86 29 58 33h-4l-1-3v-1z" opacity="1" data-original="#db3744"></path><path fill="#adadad" d="M58 33h4v3h-4z" opacity="1" data-original="#adadad"></path><path fill="#f0f0f0" d="M54 33h4v3h-8v-6h3z" opacity="1" data-original="#f0f0f0"></path><path fill="#5a80b8" d="M23 34v4h-3.53a3.981 3.981 0 0 1-2.53-.91L17 37v-3z" opacity="1" data-original="#5a80b8" class=""></path><path fill="#3b8391" d="M23 30v4h-6v-4h3z" opacity="1" data-original="#3b8391"></path><path fill="#59adbd" d="M47 30v4h-6v-4h3z" opacity="1" data-original="#59adbd"></path><path fill="#f24754" d="M23 34h6v4h-6z" opacity="1" data-original="#f24754" class=""></path><path fill="#3b8391" d="M32 26v4h-6v-4zM41 34h6v4h-6z" opacity="1" data-original="#3b8391"></path><path fill="#324f78" d="M35 34h6v4h-6z" opacity="1" data-original="#324f78"></path><path fill="#5a80b8" d="M29 34h6v4h-6zM41 30v4h-6v-4h3z" opacity="1" data-original="#5a80b8" class=""></path><path fill="#324f78" d="M29 30v4h-6v-4h3z" opacity="1" data-original="#324f78"></path><path fill="#db3744" d="M26 26v4h-6v-4z" opacity="1" data-original="#db3744"></path><path fill="#324f78" d="M44 26v4h-6v-4z" opacity="1" data-original="#324f78"></path><path fill="#db3744" d="M38 26v4h-6v-4z" opacity="1" data-original="#db3744"></path><path fill="#ff6666" d="M35 30v4h-6v-4h3z" opacity="1" data-original="#ff6666"></path><path fill="#db3744" d="M19.47 38H48l2-2h13l-2 5h-3.31a3.822 3.822 0 0 0-.68.06L57 41H4.98a2.275 2.275 0 0 0 .02-.26V40l-4-6h14l.89 1.79a3.938 3.938 0 0 0 1.05 1.3 3.981 3.981 0 0 0 2.53.91z" opacity="1" data-original="#db3744"></path><path fill="#363636" d="M57.01 41.06A3.95 3.95 0 0 0 54 43.5a3.986 3.986 0 0 1-1.46 1.82 4.042 4.042 0 0 1-2.23.68H3.74a1.745 1.745 0 0 1-.55-3.4l.62-.2A1.737 1.737 0 0 0 4.98 41H57z" opacity="1" data-original="#363636"></path><path fill="#ad313b" d="M10.98 41a2.275 2.275 0 0 0 .02-.26V40l-4-6H1l4 6v.74a2.275 2.275 0 0 1-.02.26z" opacity="1" data-original="#ad313b" class=""></path><path fill="#363636" d="M59 41h2v4h-2z" opacity="1" data-original="#363636"></path><path fill="#292929" d="M52.54 45.32a4.042 4.042 0 0 1-2.23.68H56v-2h-2.244a4.021 4.021 0 0 1-1.216 1.32z" opacity="1" data-original="#292929"></path><path fill="#cccccc" d="M5 28a1 1 0 0 1 1 1v5H4v-5a1 1 0 0 1 1-1zM53 26h1v3h-1z" opacity="1" data-original="#cccccc"></path><path fill="#8d2830" d="M56.618 32A2.617 2.617 0 0 1 54 29.382V29h-1v1l1 3h4l-.285-1z" opacity="1" data-original="#8d2830"></path><path fill="#8f8f8f" d="M59 33v1a1 1 0 0 0 1 1h2v1h-4v-3zM51 26h1v4h-1z" opacity="1" data-original="#8f8f8f"></path><path fill="#cccccc" d="M57 33a2 2 0 0 1-2 2h-5v1h8v-3z" opacity="1" data-original="#cccccc"></path><path fill="#ad313b" d="M62 36H50l-2 2h14.2l.8-2z" opacity="1" data-original="#ad313b" class=""></path><path fill="#292929" d="M8.041 44a1.738 1.738 0 0 1 1.149-1.4l.62-.2a1.737 1.737 0 0 0 1.17-1.4h-6a1.737 1.737 0 0 1-1.17 1.4l-.62.2a1.745 1.745 0 0 0 .55 3.4h46.57a3.938 3.938 0 0 0 3.446-2z" opacity="1" data-original="#292929"></path><path fill="#ad313b" d="M21 26v2a1 1 0 0 0 1 1h4v1h-6v-4z" opacity="1" data-original="#ad313b" class=""></path><path fill="#db3744" d="M30 30v2a1 1 0 0 0 1 1h4v1h-6v-4z" opacity="1" data-original="#db3744"></path><path fill="#3c5d8c" d="M36 30v2a1 1 0 0 0 1 1h4v1h-6v-4zM30 34v2a1 1 0 0 0 1 1h4v1h-6v-4z" opacity="1" data-original="#3c5d8c" class=""></path><path fill="#2d646e" d="M42 30v2a1 1 0 0 0 1 1h4v1h-6v-4zM42 34v2a1 1 0 0 0 1 1h4v1h-6v-4z" opacity="1" data-original="#2d646e"></path><path fill="#ad313b" d="M33 26v2a1 1 0 0 0 1 1h4v1h-6v-4zM24 34v2a1 1 0 0 0 1 1h4v1h-6v-4z" opacity="1" data-original="#ad313b" class=""></path><g fill="#1c314f"><path d="M39 26v2a1 1 0 0 0 1 1h4v1h-6v-4zM36 34v2a1 1 0 0 0 1 1h4v1h-6v-4zM24 30v2a1 1 0 0 0 1 1h4v1h-6v-4z" fill="#1c314f" opacity="1" data-original="#1c314f"></path></g><path fill="#33717d" d="M27 26v2a1 1 0 0 0 1 1h4v1h-6v-4zM18 30v2a1 1 0 0 0 1 1h4v1h-6v-4z" opacity="1" data-original="#33717d" class=""></path><path fill="#3c5d8c" d="M20 37a2 2 0 0 1-2-2v-1h-1v3l-.06.09a3.981 3.981 0 0 0 2.53.91H23v-1z" opacity="1" data-original="#3c5d8c" class=""></path></g></g></svg>