<svg xmlns="http://www.w3.org/2000/svg" version="1.1" xmlns:xlink="http://www.w3.org/1999/xlink" width="512" height="512" x="0" y="0" viewBox="0 0 512 512" style="enable-background:new 0 0 512 512" xml:space="preserve" class=""><g><path d="M17.351 170.311 256.534 8.008l239.182 162.303v333.147H17.351z" style="" fill="#c3202b" data-original="#f07b52" class="" opacity="1"></path><path d="M273.618 19.601 256.534 8.008 17.351 170.311v333.147H51.52V170.311z" style="" fill="#e03a3f" data-original="#e5563c" class="" opacity="1"></path><path d="M102.774 213.022h307.52v290.436h-307.52z" style="" fill="#74757b" data-original="#74757b" class=""></path><path d="M102.774 213.022h307.52v290.436h-307.52z" style="" fill="#74757b" data-original="#74757b" class=""></path><path d="M102.774 213.022h34.169v290.436h-34.169z" style="" fill="#606268" data-original="#606268" class=""></path><path d="M85.689 178.853h341.689v34.169H85.689z" style="" fill="#d7d8d9" data-original="#d7d8d9" class=""></path><path d="M102.774 298.444h102.507v102.507H102.774z" style="" fill="#fddd85" data-original="#fddd85"></path><path d="M102.774 298.444h25.627v102.507h-25.627z" style="" fill="#fdd042" data-original="#fdd042"></path><path d="M136.943 298.444h34.169v51.253h-34.169z" style="" fill="#e1a527" data-original="#e1a527" class=""></path><path d="M102.774 400.951h102.507v102.507H102.774z" style="" fill="#fddd85" data-original="#fddd85"></path><path d="M102.774 400.951h25.627v102.507h-25.627z" style="" fill="#fdd042" data-original="#fdd042"></path><path d="M136.943 400.951h34.169v51.253h-34.169z" style="" fill="#e1a527" data-original="#e1a527" class=""></path><path d="M205.281 400.951h102.507v102.507H205.281z" style="" fill="#fddd85" data-original="#fddd85"></path><path d="M205.281 400.951h25.627v102.507h-25.627z" style="" fill="#fdd042" data-original="#fdd042"></path><path d="M239.449 400.951h34.169v51.253h-34.169z" style="" fill="#e1a527" data-original="#e1a527" class=""></path><path d="M499.946 163.684 260.897 1.382a7.9 7.9 0 0 0-8.927 0L12.554 163.684c-2.196 1.491-3.745 3.972-3.745 6.627v333.147c0 4.423 4.119 8.542 8.542 8.542h478.365c4.424 0 7.474-4.119 7.474-8.542V170.311c.001-2.655-1.047-5.136-3.244-6.627zM93.164 205.548v-18.152h325.673v18.152H93.164zm51.253 101.439h18.152v35.237h-18.152v-35.237zm-7.474 51.253h34.169c4.423 0 7.474-4.119 7.474-8.542v-42.711h18.152v86.49h-86.49v-86.49H128.4v42.711c0 4.422 4.12 8.542 8.543 8.542zm7.474 51.253h18.152v35.237h-18.152v-35.237zm-34.169 0H128.4v42.711c0 4.423 4.119 8.542 8.542 8.542h34.169c4.423 0 7.474-4.119 7.474-8.542v-42.711h18.152v86.49h-86.49v-86.49zm102.507 86.49v-86.49h18.152v42.711c0 4.423 4.119 8.542 8.542 8.542h34.169c4.424 0 7.474-4.119 7.474-8.542v-42.711h18.152v86.49h-86.489zm34.169-86.49h18.152v35.237h-18.152v-35.237zm240.25 86.49h-69.406V324.071a8.008 8.008 0 0 0-8.008-8.008 8.008 8.008 0 0 0-8.008 8.008v171.912h-86.49v-95.032c0-4.423-3.051-7.474-7.474-7.474h-95.032v-95.032c0-4.423-3.052-7.474-7.474-7.474H110.25v-69.406h291.504v68.338a8.008 8.008 0 0 0 8.008 8.008 8.008 8.008 0 0 0 8.008-8.008v-68.338h9.61c4.424 0 7.474-4.119 7.474-8.542v-34.169c0-4.423-3.051-7.474-7.474-7.474H85.689c-4.423 0-8.542 3.052-8.542 7.474v34.169c0 4.423 4.119 8.542 8.542 8.542h8.542v274.419H24.826V174.555L256 17.687l231.174 156.868v321.428z" fill="#000000" opacity="1" data-original="#000000" class=""></path><path d="M214.357 76.88a8.008 8.008 0 0 0 8.008 8.008h68.338a8.008 8.008 0 0 0 0-16.016h-68.338a8.008 8.008 0 0 0-8.008 8.008zM290.703 103.041h-68.338a8.008 8.008 0 0 0 0 16.016h68.338a8.008 8.008 0 0 0 8.008-8.008 8.007 8.007 0 0 0-8.008-8.008zM290.703 137.21h-68.338a8.008 8.008 0 0 0 0 16.016h68.338c4.424 0 8.008-3.586 8.008-8.008s-3.584-8.008-8.008-8.008zM136.943 383.867h34.169a8.008 8.008 0 0 0 0-16.016h-34.169a8.008 8.008 0 0 0 0 16.016zM171.112 470.357h-34.169a8.008 8.008 0 0 0 0 16.016h34.169a8.008 8.008 0 0 0 0-16.016zM273.618 470.357h-34.169a8.008 8.008 0 0 0 0 16.016h34.169a8.008 8.008 0 0 0 8.008-8.008 8.006 8.006 0 0 0-8.008-8.008z" fill="#000000" opacity="1" data-original="#000000" class=""></path></g></svg>