<svg xmlns="http://www.w3.org/2000/svg" xml:space="preserve" id="Layer_1" x="0" y="0" style="enable-background:new 0 0 1133.86 765.35" version="1.1" viewBox="0 0 1133.86 765.35">
  <style>
    .st2{fill:none;stroke:#ed1c24;stroke-width:2.0344;stroke-miterlimit:10}.st3{fill:#fff}
  </style>
  <radialGradient id="SVGID_1_" cx="524.082" cy="364.653" r="256.211" gradientUnits="userSpaceOnUse">
    <stop offset="0" style="stop-color:#ed1c24"/>
    <stop offset=".14" style="stop-color:#e81d30"/>
    <stop offset=".788" style="stop-color:#a62226"/>
  </radialGradient>
  <path d="M524.08 72.38s30.98 41.17 107.35 43.97c64.09 2.35 87.18-18.71 87.18-18.71s61.85 221.48-33.97 402.98c-50.32 95.31-150.41 153.66-160.55 156.31-10.14-2.65-110.23-61-160.55-156.31-95.82-181.5-33.98-402.98-33.98-402.98s23.08 21.07 87.18 18.71c76.36-2.8 107.34-43.97 107.34-43.97z" style="fill:url(#SVGID_1_)"/>
  <path d="M338.79 172.33c-5.41 7.3-3.26 16-1.52 21.2 1.74 5.2 6.09 13.83 21.63 20.23 0 0-5.44 10.24 1.09 16.91 6.52 6.67 12.47 4.15 12.47 4.15s3.95 20.43 14.6 30.35c3.1 2.88 6.63 5.11 14.74 6.6 0 0 8.85 13.19 28.64 9.98 0 0 9.46 4.17 15.92 2.01 0 0 9.77 12.04 27.09 7.53 0 0 13.26 4.37 25.44-.91 0 0 2.67 1.82 7.05 3.22 4.89 1.56 11.92 2.6 19.75-.01 0 0 17.09 3.9 30.91-2.39 10.44-4.76 14.28-13.37 14.28-13.37s17.74 12.65 39.27 8.96c21.53-3.69 26.26-16.65 26.26-16.65s6.67.31 10.72-4.59c0 0 15.75 1.95 26.19-17.32 0 0 10.98 2.93 16.42-4.74 0 0 9.99-13.85-1.09-27.51 0 0 5.98-9.13 2.23-21.86 0 0 11.85-14.82-5.87-33.93 0 0-9.77-9.39-20.57-11.46 0 0-29.06 4.19-32.75 29.3 0 0-6.17-4.59-9.66-5.61-1.32-.39-3.41-.54-4.76-.26-5.09 1.07-13.53 4.46-22.45 16.14 0 0-22.07-1.98-30 20.37 0 0-12.61-12.98-28.75-3.03 0 0-5.86-3.65-11.6-5.62-2.49-.86-6.14-1.31-8.73-.85-6.68 1.17-18.26 5.22-26.25 14.52 0 0-6.69-10.93-18.48-10.34-9.99.5-15.54 10.06-15.54 10.06s-6.42-8.97-14.19-9.4c-7.72-.43-15.38 5.23-15.38 5.23s-3.27-6.87-10.55-8.77c-7.28-1.9-11.13.87-11.13.87s-5.31-5.95-12.68-9.68c-7.36-3.72-17.09-2.94-22.41-3.91-5.31-.98-11.84-1.82-13.84-6.83-2.01-5.06-.3-11.1 3.09-12.95-.02.01-12.74-4.88-19.59 4.36z" style="fill:#fff;stroke:#fff;stroke-width:4.0688;stroke-miterlimit:10"/>
  <path d="M650.16 180.46s-1.65-4.34 3.3-3.82c2.95.31 5.46 7.68.78 10.25-6.17 3.39-10.74-2.95-10.56-6.52.17-3.58 2.01-7.38 5.61-8.42 4.52-1.3 9.38.17 10.94 4.52 1.56 4.34 2.08 12.6-4 15.64-4.42 2.21-13.72 2.95-18.07-4.17-4.34-7.12 1.64-17.48 4.34-20.67 6.6-7.82 18.24-12.51 21.54-12.51 3.3 0 16.68 6.43 21.02 15.81s4.78 17.55.87 22.02c-5.62 6.43-16.76 3.6-19.2-3.35-2.43-6.95-.43-13.12 5.12-15.37 4.61-1.87 9.99.17 11.38 4.69.99 3.21.61 10.08-4.26 11.38-3.18.85-7.62-.62-8.43-5.65-.69-4.34 2.17-6.42 4.6-6.6 3.47-.26 4.75 2.83 4.17 5.04-.87 3.3-4 1.74-4.52.52m-68.49 21.04s-1.72-4.09 3.02-3.76c2.83.2 5.47 7.14 1.1 9.75-5.77 3.44-10.34-2.44-10.29-5.86.04-3.41 1.66-7.1 5.06-8.22 4.26-1.4 8.95-.15 10.59 3.93 1.64 4.09 2.42 11.94-3.28 15.05-4.14 2.26-12.99 3.28-17.37-3.36-4.38-6.64.97-16.72 3.44-19.86 6.03-7.68 16.97-12.55 20.11-12.66 3.15-.11 16.12 5.56 20.58 14.36s5.15 16.57 1.58 20.97c-5.13 6.32-15.86 4.01-18.42-2.54-2.56-6.54-.86-12.49 4.36-14.84 4.33-1.94 9.53-.18 11.01 4.08 1.05 3.02.92 9.59-3.67 11-3.01.92-7.29-.34-8.23-5.1-.81-4.12 1.85-6.2 4.16-6.45 3.3-.37 4.63 2.53 4.15 4.66-.72 3.18-3.75 1.79-4.29.65" class="st2"/>
  <path d="M580.13 217.12s-1.72-4.09 3.02-3.76c2.83.2 5.47 7.14 1.1 9.75-5.77 3.44-10.34-2.44-10.29-5.86.04-3.41 1.66-7.1 5.06-8.22 4.26-1.4 8.95-.15 10.59 3.93s2.42 11.94-3.28 15.05c-4.14 2.26-12.99 3.28-17.37-3.36s.97-16.72 3.44-19.86c6.03-7.68 15.31-11.65 24.43-11.04m51.9 34.56s-1.65-4.34 3.3-3.82c2.95.31 5.46 7.68.78 10.25-6.17 3.39-10.74-2.95-10.56-6.52.17-3.58 2.01-7.38 5.61-8.42 4.52-1.3 9.38.17 10.94 4.52 1.56 4.34 2.08 12.6-4 15.64-4.42 2.21-13.72 2.95-18.07-4.17-4.34-7.12 1.64-17.48 4.34-20.67 6.6-7.82 18.24-12.51 21.54-12.51 3.3 0 16.68 6.43 21.02 15.81s4.78 17.55.87 22.02c-5.62 6.43-16.76 3.6-19.2-3.35-2.43-6.95-.43-13.12 5.12-15.37 4.61-1.87 9.99.17 11.38 4.69.99 3.21.61 10.08-4.26 11.38-3.18.85-7.62-.62-8.43-5.65-.69-4.34 2.17-6.42 4.6-6.6 3.47-.26 4.75 2.83 4.17 5.04-.87 3.3-4 1.74-4.52.52m-74.52 24.84s-2.31-4.03 2.66-4.29c2.96-.15 6.59 6.74 2.37 10-5.56 4.31-11.07-1.23-11.45-4.79-.39-3.56.83-7.6 4.23-9.19 4.26-1.99 9.29-1.29 11.52 2.75s4.03 12.11-1.5 16.07c-4.02 2.87-13.09 5.06-18.5-1.3s-1.11-17.52 1.06-21.1c5.3-8.75 16.59-14.2 19.85-14.72 3.26-.52 16.95 2.74 22.71 11.33 5.76 8.59 7.46 16.58 4.3 21.61-4.54 7.23-16 6.18-19.48-.3s-2.48-12.89 2.66-15.99c4.26-2.57 9.89-1.39 11.97 2.85 1.48 3.01 2.18 9.86-2.43 11.9-3.01 1.34-7.63.57-9.2-4.26-1.36-4.18 1.14-6.68 3.52-7.24 3.39-.8 5.13 2.05 4.91 4.32-.34 3.4-3.68 2.34-4.38 1.22" class="st2"/>
  <path d="M655.27 239.71s6.45-3.61 12.25.76m-54.46-25.62s6.59-3.22 12.39 1.14m31.06-23.98s6.45-3.61 12.25.76m-60.3 71.97s4.76-4.25 10.57.12M511.9 239.24s4.76-4.25 10.57.12m114.74 11.9s6.74-2.12 8.91-9.85m-8.57 16.63s12.04-3.68 16.3-17.66" class="st2"/>
  <path d="M632.84 265.56s22.11-2.93 28.55-27.24" class="st2"/>
  <path d="M645.69 260.44s16.65 1.65 22.82-19.03m-19.74-21.83s3.55-10.19 12.72-10.19c12.24 0 12.64 9.43 13.45 11.38m-69.76-24.56s4.05-11.05 13.22-11.05c11.14 0 12.81 9.51 13.62 11.46" class="st2"/>
  <path d="M655.65 220.52s2.06-4.86 6.71-4.88c2.87-.01 6.23 2.53 7.19 6.61m-71.78 24.84s2.2-10.56 11.29-11.76c11.04-1.45 13.53 7.26 14.58 9.09" class="st2"/>
  <path d="M605.51 247.37s.59-4.46 5.14-5.46c2.8-.62 6.2.54 7.99 4.33m32.17-75.07s3.21-9.34 12.38-9.34c11.14 0 12.59 9.46 13.4 11.42" class="st2"/>
  <path d="M657.47 172.92s1.93-4.81 6.59-4.83c2.87-.01 5.95 1.83 6.91 5.91m-96.85 99.36s17.24 9.39 31.04 7.95c20.07-2.08 27.68-15.76 27.68-15.76" class="st2"/>
  <path d="M582.89 271.91s10.29 5.93 22.27 4.02c10-1.59 17.93-9.07 17.93-9.07" class="st2"/>
  <path d="M585.18 268.95s9.95 4.14 17.29 2.98c9.9-1.57 13.98-8.06 13.98-8.06m68.54-70.09s3.95 11.73-2.19 23.02m-2.38-20.61s2.88 10.49-1.9 15.33m-2.98-15.45s1.42 5.71-1.59 11.73m-5.19-15.03s2.73 7.22-1.21 11.36M663.03 191s3.26 4.54-.4 11.6m-5.35-10.55s2.43 6.28-1.44 12.57m-3.83-10.84s1.98 6.79-3.58 14.9m-2.96-15.48s3.3 5.63-2.34 13.91m-53.18 16.85s10.97 5.47 21.65 4.66 17.4-3.52 22-10.03" class="st2"/>
  <path d="M590.72 220.77s24.07 9.25 36.23-3.39" class="st2"/>
  <path d="M590.65 217.08s21.65 8.13 29.6-2.9m-26.8-14.61s-11.98-.35-15.62 9.99m-27.33 33.93s15.42-11.94 33.7-13.76c10.6-1.06 19.19.37 21.31.73" class="st2"/>
  <path d="M557.06 245.39s4.08-2.72 7.34-4.29c4.16-2.01 11.06-4.55 20.86-5.76 4.65-.57 9.09-.54 12.44-.36m-31.93 10.86c4.2-1.98 11.46-4.68 20.99-5.85 1.76-.22 4.16-.34 5.75-.41m-18.39 8.66c3.64-1.15 8.11-2.2 13.44-2.86l1.02-.12m-142.27 13.01s-1.29-3.39 2.58-2.98c2.3.24 4.26 5.99.61 8-4.81 2.64-8.38-2.3-8.24-5.09.14-2.79 1.57-5.76 4.38-6.57 3.52-1.02 7.32.14 8.54 3.52s1.63 9.83-3.12 12.2c-3.45 1.72-10.71 2.3-14.1-3.25-3.39-5.56 1.28-13.64 3.39-16.13 5.15-6.1 14.23-9.76 16.81-9.76 2.58 0 13.01 5.01 16.4 12.33 3.39 7.32 3.73 13.69.68 17.18-4.38 5.02-13.08 2.81-14.98-2.61-1.9-5.42-.34-10.23 4-12 3.6-1.46 7.79.14 8.88 3.66.77 2.5.47 7.86-3.32 8.88-2.48.67-5.95-.49-6.57-4.41-.54-3.39 1.69-5.01 3.59-5.15 2.71-.2 3.71 2.21 3.25 3.93-.68 2.58-3.12 1.36-3.52.41" class="st2"/>
  <path d="M429.9 227.03s-.93-3.15 2.53-2.52c2.07.38 3.44 5.71.01 7.27-4.53 2.06-7.42-2.65-7.1-5.16.31-2.51 1.81-5.1 4.41-5.64 3.25-.68 6.61.62 7.48 3.77.87 3.15.8 8.99-3.65 10.82-3.23 1.32-9.84 1.35-12.52-3.9-2.68-5.25 2.09-12.24 4.16-14.35 5.07-5.16 13.53-7.85 15.86-7.68s11.42 5.42 13.99 12.27 2.44 12.63-.56 15.58c-4.3 4.24-12.02 1.65-13.36-3.38s.39-9.27 4.43-10.57c3.35-1.08 7.04.65 7.78 3.91.53 2.31-.11 7.14-3.61 7.8-2.29.43-5.34-.85-5.64-4.43-.26-3.1 1.87-4.41 3.6-4.41 2.46 0 3.2 2.25 2.67 3.77-.79 2.28-2.91 1.01-3.21.13" class="st2"/>
  <path d="M409.82 215.18s1.62-2.86 3.57.07c1.17 1.75-1.71 6.44-5.22 5.06-4.63-1.82-3.1-6.99-1.23-8.69 2.18-1.98 4.77-1.99 7.12-.75 3.41 1.8 4.7 6.4 3.15 9.27-1.88 3.47-6.56 5.55-10.97 3.62-3.2-1.41-6.93-6.14-5.9-11.71 1.07-5.8 6.18-7.8 10.7-6.98 7.12 1.29 13.81 9.08 11.73 15.5m-51.29.37s2.96 1.43.17 3.57c-1.67 1.28-6.54-1.29-5.39-4.88 1.52-4.74 6.77-3.55 8.6-1.79 2.12 2.05 2.3 4.63 1.22 7.05-1.57 3.52-6.08 5.11-9.05 3.75-3.59-1.65-5.97-6.19-4.33-10.71 1.19-3.29 4.4-6.62 10.03-5.96 5.86.69 9.34 5.46 9.38 10.21.03 3.67-1.71 7.36-4.66 9.34m28.61 20.42s-.67-3.56 3.06-2.48c2.22.64 3.13 6.65-.81 7.98-5.2 1.75-7.84-3.74-7.22-6.46s2.56-5.39 5.47-5.69c3.65-.38 7.18 1.42 7.78 4.97.6 3.55-.13 9.96-5.22 11.46-3.7 1.09-10.95.38-13.3-5.69-2.36-6.07 3.67-13.2 6.18-15.28 6.14-5.1 15.73-7.1 18.26-6.64s11.92 7.23 13.97 15.03c2.05 7.8 1.26 14.13-2.36 17.03-5.2 4.16-13.37.46-14.28-5.21s1.47-10.13 6.05-11.1c3.8-.8 7.65 1.51 8.09 5.17.32 2.6-.92 7.82-4.83 8.15-2.56.22-5.77-1.53-5.69-5.49.06-3.43 2.55-4.63 4.44-4.44 2.7.28 3.26 2.83 2.51 4.44-1.12 2.42-3.31.78-3.54-.22m44.87-32.94s-.67-3.56 3.06-2.48c2.22.64 3.13 6.65-.81 7.98-5.2 1.75-7.84-3.74-7.22-6.46s2.56-5.39 5.47-5.69c3.65-.38 7.18 1.42 7.78 4.97s-.13 9.96-5.22 11.46c-3.7 1.09-10.87.35-13.3-5.69-3.21-7.96 1.91-14.39 4.42-16.47 6.14-5.1 16.38-3.22 20.05 3.8 0 0 4.08 8.56-1.3 16.32-2.19 3.16-6.74 5.07-6.74 5.07" class="st2"/>
  <path d="M402.04 208.1s-8.89-11.36-19.92-13.57c-11.03-2.2-14.76-2.36-20.5-3.23-5.36-.82-11.96-3.83-12.54-11.94-.4-5.59 2.03-8.57 2.03-8.57s-7.47 0-9.55 7.41c-1.56 5.54 1.16 12.97 6.37 18.18 5.21 5.21 14.25 8.92 24.22 9.84 5.56.52 13.88 5.04 16.14 11.64 2.26 6.6 2.43 18.36 11.64 24.97" class="st2"/>
  <path d="M400.16 213.76s-8.24-12.04-23.64-15.06c-15.4-3.01-18.27-2.71-23.86-6.14-10.96-6.72-9.6-17.61-1.56-21.77" class="st2"/>
  <path d="M406.18 237.97s-9.39-3.93-11.48-16.79c-1.87-11.56-9.75-16.46-15.77-17.73-6.02-1.27-13.23-1.99-18.2-3.83-6.8-2.51-11.72-8.42-12.02-10.25m55.48 33.07s.59 9.62 9.59 12.53" class="st2"/>
  <path d="M416.54 221.13s-1.68 8.38-8.66 9.54m-25.77-8.5s.98 21.97 14.68 25.3" class="st2"/>
  <path d="M377.45 231.51s3.06 20.93 18.42 31.59c9.95 6.91 22.02-.16 22.02-.16m-48.78-51.06s-22.58-5.06-25.67-21.6m124.46 44.54s3.01 3.98 0 8.02m6.25-9.25s5.19 7.9-1.57 15.2" class="st2"/>
  <path d="M406.18 266.07s19.52 13.01 32.38.62" class="st2"/>
  <path d="M403.48 266.07s21.69 22.58 43.38 2.68m-36.52-24.3s3.09-4.24 8.11-4.29c5.21-.05 9.79 4.41 8.43 9.73m20.48.35s2.02-4.74 6.84-6.11c4.55-1.29 10.56 1.93 10.52 7.43m-33.63-31.02s1.7-4.21 6.52-5.57c4.55-1.29 10.79 2.79 10.75 8.29" class="st2"/>
  <path d="M458.79 263.53s-6.47 18.1-27.6 13.2" class="st2"/>
  <path d="M462.98 269.7s-6.36 11.91-19.8 7.34" class="st2"/>
  <path d="M474.23 267.72s-3.89 12.63-20.54 9.65m34.37-14.13s-1.38-3.8 2.93-3.28c2.57.31 4.65 6.76.54 8.94-5.42 2.87-9.31-2.71-9.11-5.82.2-3.11 1.85-6.4 5-7.26 3.95-1.07 8.17.28 9.47 4.08 1.3 3.8 1.65 11-3.69 13.56-3.88 1.87-11.99 2.39-15.68-3.87s1.66-15.2 4.06-17.95c5.85-6.72 16.36-9.71 19.23-9.67 2.87.04 14.14 4.88 17.79 13.11 3.66 8.23 3.93 15.34.46 19.19-4.98 5.52-14.65 2.91-16.67-3.17-2.03-6.08-.2-11.43 4.67-13.32 4.04-1.57 8.7.28 9.85 4.24.82 2.81.39 8.78-3.86 9.85-2.78.7-6.63-.65-7.26-5.03-.55-3.79 1.98-5.56 4.1-5.69 3.03-.18 4.1 2.53 3.56 4.44-.8 2.86-3.5 1.46-3.94.39" class="st2"/>
  <path d="M503.27 228.73s-1.78-4.32 3.75-3.72c3.3.36 5.99 7.68.72 10.14-6.96 3.24-11.97-3.1-11.73-6.63.25-3.53 2.36-7.26 6.41-8.22 5.08-1.21 10.5.33 12.18 4.65 1.68 4.32 2.14 12.48-4.71 15.38-4.98 2.11-15.41 2.68-20.16-4.43-4.75-7.11 2.11-17.24 5.18-20.35 7.51-7.61 21-10.98 24.7-10.92s18.18 5.57 22.9 14.92c4.72 9.34 5.08 17.42.64 21.77-6.38 6.25-18.82 3.27-21.44-3.64-2.62-6.91-.29-12.97 5.97-15.1 5.19-1.77 11.18.34 12.67 4.83 1.06 3.19.53 9.97-4.94 11.17-3.58.79-8.52-.75-9.35-5.72-.71-4.3 2.53-6.3 5.25-6.44 3.89-.2 5.28 2.88 4.59 5.05-1.02 3.25-4.5 1.65-5.06.44" class="st2"/>
  <path d="M535.52 211.71c2.85-1.3 11.43-7.72 22.66-2.09 8.76 4.39 11.04 13.24 9.44 18.64-2.3 7.76-13.03 9.72-17.87 4.69-4.84-5.03-5.55-11.14-1.65-15.28 3.23-3.43 8.68-3.79 11.66-.45 2.12 2.38 4.5 8.45.82 11.49-2.41 1.99-6.82 2.47-9.49-1.54-2.31-3.47-.66-6.39 1.36-7.51 2.89-1.6 5.21.56 5.58 2.7.55 3.19-2.76 3.07-3.69 2.23m-20.62 39.69s-1.65-3.65 2.64-3.46c2.56.11 5.1 6.32 1.21 8.77-5.13 3.24-9.39-1.97-9.43-5.05-.04-3.08 1.34-6.45 4.38-7.54 3.82-1.36 8.08-.35 9.65 3.31 1.57 3.65 2.46 10.72-2.61 13.66-3.68 2.13-11.65 3.26-15.76-2.63-4.11-5.9.49-15.12 2.64-18.01 5.27-7.07 15.4-10.82 18.24-10.99s14.31 3.75 18.54 11.59c4.23 7.84 5.03 14.84 1.91 18.89-4.49 5.82-14.23 3.98-16.69-1.86s-1.07-11.26 3.6-13.49c3.86-1.85 8.6-.38 10.03 3.43 1.02 2.71 1.05 8.63-3.06 10.01-2.69.9-6.59-.13-7.54-4.41-.83-3.7 1.53-5.64 3.61-5.92 2.97-.41 4.24 2.18 3.85 4.11-.57 2.88-3.34 1.7-3.86.69M452.4 277.83s17.5 11.12 29.81-4.11" class="st2"/>
  <path d="M448.66 278.28s21.4 21.84 43.48-4.39" class="st2"/>
  <path d="M502.1 270.15s-7.03 20.14-28.35 16.1" class="st2"/>
  <path d="M507.16 276.52s-7.09 13.19-20.69 9.17" class="st2"/>
  <path d="M516.95 276s-3.11 11.73-19.87 9.42" class="st2"/>
  <path d="M509.43 284.12s14.37 5.2 19.92-8.88" class="st2"/>
  <path d="M497.08 285.42s30 17.69 44.85-13.66" class="st2"/>
  <path d="M549.09 272.14s-4.49 21.19-23.53 16.54" class="st2"/>
  <path d="M557.37 276.37s-4.73 14.68-25.32 12.94" class="st2"/>
  <path d="M567.25 268s-2.55 20.43-26.93 21.07m-5.5-32.89s2.85-8.4 10.39-8.46c9.15-.07 10.31 7.28 10.99 8.88m-50.26-36.93s3.53-9.29 13.32-8.86c10.65.47 11.69 9.18 12.07 11.15m-40.63 33.53s2.31-7.12 9.85-7.19c9.15-.07 10.31 7.28 10.99 8.88m-30.18-44.34s13.54 6.99.22 38.79" class="st2"/>
  <path d="M481.65 233.22s1.19 12.38-6.68 20.82m100.64 9.78s1.33-3.16-2.33-2.91c-2.19.15-4.23 5.52-.85 7.54 4.46 2.66 8-1.89 7.96-4.53-.03-2.64-1.29-5.5-3.92-6.36-3.3-1.08-6.92-.12-8.19 3.04-1.27 3.16-1.87 9.24 2.53 11.64 3.2 1.75 10.05 2.54 13.44-2.6s-.69-12.98-2.66-15.36c-7.88-9.55-20.25-9.17-27.3-8.7m-41.99-24.06s2.33-4.34 6.63-4.08c3.54.22 6.52 1.74 7.3 5.74m14.21-6.8s6.36-4.01 13.85-1.47m-36.08 22.56s.97 5.98-4.34 11.32m11.82-6.46s.11 8.32-7.09 12.75m-6.7-15.84s.46 2.78-3.37 5.7" class="st2"/>
  <path d="M527.34 177.76h21.42s3.89 1.56 4.67 5.45c.78 3.89-.58 7.59-2.34 8.57-1.75.97.97 5.06.97 5.06s1.23 1.56 1.59 5.45c.36 3.89-8.01 6.23-8.01 6.23v259.05l8.02 1.75v25.12l71.6 11.1v55.97l-75.73.4h-22.39m.2-384.15h-24.53s-3.89 1.56-4.67 5.45c-.78 3.89.58 7.59 2.34 8.57 1.75.97-.97 5.06-.97 5.06s-1.23 1.56-1.59 5.45 8.01 6.23 8.01 6.23v259.05l-8.02 1.75v25.12l-69.57 11.1v56.32l73.7.05h25.12" class="st3"/>
  <path d="M547.98 129.58s4.68.98 5.05 2.95c.37 1.97-1.72 2.95-1.72 2.95s.98 3.45-2.34 3.45-5.54-1.35-5.66-2.59c0 0-2.34 2.09-5.54 2.59l-1.35.55s-2.83.92-.29 1.17 10.67 1.45 13.83 6.22c3.39 5.11 3 9.09 1.6 12.86s-5.47 6.2-7.78 6.94c-2.31.74-6.5-.49-6.5-.49l-.74 2.54s1.07 7.8 1.07 10.18-.16.98-.16.98l-5.66.41s-4.1-3.61-4.02-10.58c.08-6.98 0-2.95 0-2.95s-3.12-3.94-2.21-7.8c0 0-.57-.41-2.63.41s-3.28 3.61-2.87 4.84c.41 1.23 3.78 3.28 4.27 4.51s3.04 6.16.16 9.36c-2.87 3.2-1.89 2.21-1.89 2.21l-22.32 1.81s4.76-.41 5.66-5.09 1.15-12.48 4.19-14.94c3.04-2.46 6.16-2.79 6.16-2.79s1.13-5.85 2.95-7.96c2.24-2.6 5.01-4.51 9.77-3.12s5.91 2.22 5.91 2.22-8.78-2.95-8.95-4.76c0 0-.8-1.5-.8-2.24 0-.74-1.12-.18-3.03 1.29-1.91 1.48-4.42 4.01-5.27 7.89-.5 2.24-.19 13.78-.19 13.78s-5.32-9.98-3.63-14.9c.36-1.04-.68-4.31 3.57-8.86 4.25-4.56 5.38-5.79 5.52-6.71.14-.92-.48-2.89 1.19-6.34 1.66-3.45 4.62-6.16 6.65-6.83 0 0-3.24.55-3.28-2.15-.04-2.71.88-3.2.88-3.2s2.89 3.14 4.12 3.14.55.18 1.97-1.17l.55-4s2.89 2.89 4 2.89c1.11 0 4.43-.55 6.89.25s5.05 4.92 5.05 4.92 1.89-1.26 2.94-1.66c1.93-.74 5.33.44 5.37 2.46.08 3.39-3.31 3.81-6.09 4.92-1.47.58-4.4.44-4.4.44z" class="st3"/>
  <path d="M537.89 236.09v-8.87h-26.97v-3.18h26.97v-8.83h2.62v20.89h-2.62zm-26.97 35.54 12.56-6.79c-.03-.17-.04-.45-.04-.85v-5.65h-12.51v-3.18h29.59v8.74c0 3.09-.68 5.54-2.05 7.37-1.37 1.83-3.22 2.74-5.56 2.74h-1.94c-1.69 0-3.14-.53-4.35-1.59-1.21-1.06-2.07-2.53-2.58-4.39l-13.1 7.13v-3.53zm16.4-2.66c.87 1.2 2.11 1.8 3.72 1.8h1.78c1.61 0 2.86-.62 3.76-1.87.9-1.25 1.35-2.93 1.35-5.05v-5.52h-11.92v5.6c0 2.16.44 3.84 1.31 5.04zm-7.27 40.82V298.2l-9.13-2.89v-3.27l29.59 9.72v4.37l-29.59 10.02v-3.31l9.13-3.05zm2.62-10.78v9.93l15.51-5.01-15.51-4.92zm17.84 57.61h-29.59v-3.82l25.62-14.31h-25.62v-2.89h29.59v3.91l-.04-.04-25.49 14.26h25.54v2.89zm-26.33 19.99 1.99 1.7c-.71.93-1.26 1.75-1.67 2.46-.41.71-.74 1.56-.99 2.57-.25 1-.38 2.21-.38 3.63 0 1.64.26 3.02.78 4.14.52 1.12 1.18 1.94 1.99 2.48.8.54 1.63.81 2.47.81h.68c1.38 0 2.45-.41 3.21-1.23.76-.82 1.48-2.25 2.16-4.29l1.39-4.25c.82-2.43 1.81-4.19 2.98-5.26 1.17-1.08 2.56-1.61 4.17-1.61h.93c1.18 0 2.32.37 3.42 1.12 1.1.75 1.99 1.87 2.69 3.38.69 1.5 1.03 3.31 1.03 5.43 0 3.93-1.28 7.19-3.85 9.76l-1.86-1.7c1.1-1.25 1.9-2.48 2.39-3.71.49-1.23.74-2.67.74-4.31 0-1.53-.23-2.8-.7-3.82-.46-1.02-1.04-1.77-1.73-2.25s-1.4-.72-2.13-.72H533c-.99 0-1.86.43-2.62 1.29-.76.86-1.45 2.27-2.07 4.22l-1.23 3.86c-.76 2.35-1.72 4.15-2.87 5.39-1.16 1.25-2.76 1.87-4.82 1.87h-1.06c-1.44 0-2.76-.42-3.97-1.27-1.21-.85-2.17-2.07-2.87-3.67-.7-1.6-1.06-3.49-1.06-5.67-.02-4.37 1.24-7.83 3.75-10.35zm23.75 47H513.5v3.57h-2.58V416.9h2.58v3.52h24.43v-3.52h2.58v10.27h-2.58v-3.56zm-.04 41.82v-8.87h-26.97v-3.18h26.97v-8.83h2.62v20.89h-2.62zm-55.52 49.29h-12.3v37.69h-7.91v-37.69H449.8v-6.06h32.57v6.06zm18.82 0v31.63h5.65v6.06h-19.2v-6.06h5.65v-31.63h-5.65v-6.06h19.2v6.06h-5.65zm58.22-6.06v43.75h-7.59V520.6l-9.22 25.5.06.06h-8.34l-9.41-26.56v32.81h-7.15v-43.75h10.23l10.73 30.88 11.04-30.81-.06-.06h9.71zm21.09 6.06v12.44h16.38v6.06H580.5v13.06h17.76v6.12H572.6v-43.75h25.66v6.06H580.5z" style="fill:#ed1c24"/>
</svg>
