<svg xmlns="http://www.w3.org/2000/svg" viewBox="0 0 982 262">
    <g class="header-logo__text-part">
        <path d="M960.853 195.805C957.146 191.962 952.319 190.042 946.375 190.042C944.403 190.042 942.491 190.334 940.638 190.92C938.783 191.504 937.297 192.156 936.178 192.873C935.059 193.592 933.998 194.436 932.997 195.404C931.994 196.372 931.361 197.041 931.093 197.408C930.826 197.774 930.626 198.058 930.491 198.26V191.096H923.327V240.344H930.491V213.14C930.491 208.364 931.962 204.44 934.901 201.365C937.841 198.293 941.497 196.756 945.874 196.756C949.781 196.756 952.979 198.066 955.469 200.69C957.955 203.312 959.201 206.777 959.201 211.085V240.344H966.415V211.085C966.415 204.738 964.561 199.645 960.853 195.805ZM901.211 229.197C897.686 232.853 893.461 234.682 888.534 234.682C883.607 234.682 879.382 232.837 875.859 229.146C872.334 225.456 870.573 220.972 870.573 215.694C870.573 210.384 872.334 205.898 875.859 202.242C879.382 198.585 883.607 196.756 888.534 196.756C893.461 196.756 897.686 198.585 901.211 202.242C904.734 205.898 906.494 210.392 906.494 215.72C906.494 221.048 904.734 225.54 901.211 229.197V229.197ZM888.558 190.042C881.579 190.042 875.641 192.522 870.749 197.482C865.855 202.444 863.407 208.522 863.407 215.72C863.407 222.917 865.855 228.989 870.749 233.932C875.641 238.876 881.579 241.346 888.558 241.346C895.541 241.346 901.469 238.876 906.345 233.932C911.221 228.989 913.659 222.917 913.659 215.72C913.659 208.522 911.221 202.444 906.345 197.482C901.469 192.522 895.541 190.042 888.558 190.042V190.042ZM850.302 170.053C848.999 170.053 847.905 170.496 847.019 171.381C846.135 172.266 845.693 173.36 845.693 174.662C845.693 175.965 846.135 177.058 847.019 177.944C847.905 178.829 848.999 179.272 850.302 179.272C851.605 179.272 852.699 178.829 853.585 177.944C854.469 177.058 854.911 175.965 854.911 174.662C854.911 173.36 854.469 172.266 853.585 171.381C852.699 170.496 851.605 170.053 850.302 170.053ZM846.745 240.344H853.909V191.094H846.745V240.344ZM835.371 234.282C834.285 234.549 833.191 234.682 832.089 234.682C827.646 234.717 825.425 232.162 825.425 227.017V197.758H836.197V191.096H825.425V174.662H818.762V185.985C818.762 189.392 817.391 191.096 814.654 191.096H808.991V197.758H818.261V227.017C818.261 231.594 819.455 235.125 821.843 237.613C824.23 240.102 827.546 241.346 831.787 241.346C834.393 241.381 836.714 240.88 838.751 239.842V233.18L837.85 233.581C837.282 233.781 836.455 234.014 835.371 234.282V234.282ZM797.994 228.52C796.826 229.889 794.955 231.26 792.383 232.628C789.813 233.998 787.09 234.682 784.217 234.682C779.507 234.682 775.425 232.853 771.969 229.197C768.51 225.54 766.782 221.048 766.782 215.72C766.782 210.392 768.51 205.898 771.969 202.242C775.425 198.585 779.507 196.756 784.217 196.756C786.087 196.756 787.875 197.041 789.578 197.609C791.281 198.174 792.667 198.82 793.737 199.537C794.805 200.254 795.799 201.098 796.718 202.066C797.637 203.036 798.229 203.704 798.495 204.07C798.765 204.44 798.963 204.722 799.098 204.924L804.258 199.813L802.102 197.457C800.667 195.821 798.287 194.174 794.965 192.522C791.641 190.869 788.058 190.042 784.217 190.042C777.538 190.042 771.767 192.54 766.907 197.533C762.047 202.526 759.617 208.58 759.617 215.694C759.617 222.809 762.039 228.864 766.882 233.856C771.725 238.849 777.503 241.346 784.217 241.346C786.622 241.346 788.986 240.97 791.307 240.22C793.629 239.466 795.525 238.649 796.993 237.764C798.463 236.88 799.866 235.86 801.202 234.708C802.539 233.554 803.414 232.737 803.831 232.253C804.25 231.769 804.558 231.393 804.759 231.125L799.65 226.516L797.994 228.52ZM712.595 212.138C713.161 207.962 715.049 204.354 718.255 201.316C721.462 198.276 725.219 196.756 729.529 196.756C733.837 196.756 737.521 198.21 740.575 201.114C743.633 204.021 745.427 207.694 745.962 212.138H712.595ZM729.529 190.042C723.049 190.042 717.413 192.54 712.619 197.533C707.826 202.526 705.43 208.58 705.43 215.694C705.43 222.809 707.851 228.864 712.695 233.856C717.538 238.849 723.317 241.346 730.03 241.346C732.501 241.346 734.915 240.97 737.27 240.22C739.625 239.466 741.546 238.649 743.031 237.764C744.517 236.88 745.903 235.86 747.189 234.708C748.475 233.554 749.31 232.737 749.694 232.253C750.079 231.769 750.371 231.393 750.571 231.125L745.962 226.516L744.209 228.52C743.105 229.889 741.235 231.26 738.597 232.628C735.958 233.998 733.102 234.682 730.03 234.682C725.453 234.682 721.47 233.064 718.081 229.824C714.691 226.584 712.861 222.742 712.595 218.3L752.625 218.4L753.126 214.692C753.126 207.577 750.873 201.69 746.363 197.032C741.854 192.372 736.242 190.042 729.529 190.042V190.042ZM698.791 234.282C697.706 234.549 696.611 234.682 695.509 234.682C691.066 234.717 688.845 232.162 688.845 227.017V197.758H699.618V191.096H688.845V174.662H682.182V185.985C682.182 189.392 680.813 191.096 678.074 191.096H672.413V197.758H681.682V227.017C681.682 231.594 682.877 235.125 685.265 237.613C687.651 240.102 690.966 241.346 695.21 241.346C697.814 241.381 700.135 240.88 702.173 239.842V233.18L701.27 233.581C700.703 233.781 699.877 234.014 698.791 234.282V234.282ZM657.122 229.197C653.598 232.853 649.373 234.682 644.446 234.682C639.519 234.682 635.295 232.837 631.77 229.146C628.246 225.456 626.486 220.972 626.486 215.694C626.486 210.384 628.246 205.898 631.77 202.242C635.295 198.585 639.519 196.756 644.446 196.756C649.373 196.756 653.598 198.585 657.122 202.242C660.646 205.898 662.407 210.392 662.407 215.72C662.407 221.048 660.646 225.54 657.122 229.197ZM644.471 190.042C637.491 190.042 631.553 192.522 626.661 197.482C621.767 202.444 619.321 208.522 619.321 215.72C619.321 222.917 621.767 228.989 626.661 233.932C631.553 238.876 637.491 241.346 644.471 241.346C651.451 241.346 657.381 238.876 662.258 233.932C667.133 228.989 669.573 222.917 669.573 215.72C669.573 208.522 667.133 202.444 662.258 197.482C657.381 192.522 651.451 190.042 644.471 190.042V190.042ZM609.05 190.869C607.129 191.421 605.593 192.038 604.441 192.722C603.287 193.408 602.211 194.193 601.209 195.078C600.206 195.962 599.571 196.581 599.305 196.932C599.038 197.282 598.837 197.557 598.703 197.758V191.096H591.539V240.344H598.703V213.14C598.703 208.43 600.206 204.606 603.213 201.666C606.218 198.726 609.842 197.257 614.085 197.257H617.191V190.042H615.137C612.999 190.042 610.97 190.318 609.05 190.869ZM569.585 229.146C566.226 232.837 562.427 234.682 558.186 234.682C553.742 234.682 549.726 232.788 546.137 228.997C542.546 225.205 540.75 220.78 540.75 215.72C540.75 210.66 542.546 206.233 546.137 202.444C549.726 198.652 553.742 196.756 558.186 196.756C562.427 196.756 566.226 198.602 569.585 202.292C572.939 205.984 574.619 210.458 574.619 215.72C574.619 220.981 572.939 225.456 569.585 229.146ZM558.186 190.042C556.082 190.042 554.035 190.35 552.047 190.97C550.061 191.588 548.433 192.289 547.163 193.074C545.894 193.858 544.715 194.752 543.631 195.754C542.546 196.756 541.827 197.465 541.477 197.885C541.126 198.301 540.883 198.61 540.75 198.81V191.096H533.586V261.888H540.75V232.628L541.451 233.581C541.953 234.182 542.695 234.908 543.681 235.76C544.666 236.612 545.826 237.454 547.163 238.29C548.498 239.125 550.145 239.842 552.098 240.444C554.053 241.046 556.082 241.346 558.186 241.346C564.498 241.346 570.01 238.833 574.718 233.806C579.429 228.778 581.782 222.75 581.782 215.721C581.782 208.688 579.421 202.652 574.694 197.609C569.967 192.564 564.465 190.042 558.186 190.042V190.042ZM489.719 229.146C486.362 232.837 482.562 234.682 478.322 234.682C473.879 234.682 469.862 232.788 466.271 228.997C462.682 225.205 460.886 220.78 460.886 215.72C460.886 210.66 462.682 206.233 466.271 202.444C469.862 198.652 473.879 196.756 478.322 196.756C482.562 196.756 486.362 198.602 489.719 202.292C493.075 205.984 494.755 210.458 494.755 215.72C494.755 220.981 493.075 225.456 489.719 229.146ZM478.322 190.042C476.217 190.042 474.17 190.35 472.185 190.97C470.197 191.588 468.567 192.289 467.299 193.074C466.03 193.858 464.851 194.752 463.767 195.754C462.682 196.756 461.963 197.465 461.611 197.885C461.263 198.301 461.019 198.61 460.886 198.81V191.096H453.721V261.888H460.886V232.628L461.587 233.581C462.089 234.182 462.83 234.908 463.817 235.76C464.802 236.612 465.962 237.454 467.299 238.29C468.634 239.125 470.279 239.842 472.234 240.444C474.189 241.046 476.217 241.346 478.322 241.346C484.634 241.346 490.146 238.833 494.855 233.806C499.565 228.778 501.919 222.75 501.919 215.721C501.919 208.688 499.555 202.652 494.83 197.609C490.103 192.564 484.601 190.042 478.322 190.042V190.042ZM431.505 229.197C427.982 232.853 423.757 234.682 418.829 234.682C413.902 234.682 409.677 232.837 406.154 229.146C402.63 225.456 400.867 220.972 400.867 215.694C400.867 210.384 402.63 205.898 406.154 202.242C409.677 198.585 413.902 196.756 418.829 196.756C423.757 196.756 427.982 198.585 431.505 202.242C435.029 205.898 436.791 210.392 436.791 215.72C436.791 221.048 435.029 225.54 431.505 229.197ZM418.855 190.042C411.874 190.042 405.937 192.522 401.043 197.482C396.15 202.444 393.705 208.522 393.705 215.72C393.705 222.917 396.15 228.989 401.043 233.932C405.937 238.876 411.874 241.346 418.855 241.346C425.834 241.346 431.765 238.876 436.641 233.932C441.517 228.989 443.954 222.917 443.954 215.72C443.954 208.522 441.517 202.444 436.641 197.482C431.765 192.522 425.834 190.042 418.855 190.042ZM383.433 190.869C381.511 191.421 379.977 192.038 378.823 192.722C377.671 193.408 376.594 194.193 375.593 195.078C374.59 195.962 373.954 196.581 373.689 196.932C373.421 197.282 373.219 197.557 373.087 197.758V191.096H365.922V240.344H373.087V213.14C373.087 208.43 374.59 204.606 377.597 201.666C380.603 198.726 384.226 197.257 388.467 197.257H391.574V190.042H389.521C387.381 190.042 385.353 190.318 383.433 190.869ZM351.386 228.52C350.217 229.889 348.346 231.26 345.775 232.628C343.203 233.998 340.482 234.682 337.607 234.682C332.899 234.682 328.817 232.853 325.359 229.197C321.902 225.54 320.173 221.048 320.173 215.72C320.173 210.392 321.902 205.898 325.359 202.242C328.817 198.585 332.899 196.756 337.607 196.756C339.479 196.756 341.267 197.041 342.97 197.609C344.673 198.174 346.059 198.82 347.127 199.537C348.197 200.254 349.191 201.098 350.109 202.066C351.027 203.036 351.621 203.704 351.887 204.07C352.155 204.44 352.355 204.722 352.49 204.924L357.65 199.813L355.495 197.457C354.058 195.821 351.679 194.174 348.355 192.522C345.033 190.869 341.45 190.042 337.607 190.042C330.93 190.042 325.158 192.54 320.298 197.533C315.438 202.526 313.009 208.58 313.009 215.694C313.009 222.809 315.431 228.864 320.273 233.856C325.117 238.849 330.894 241.346 337.607 241.346C340.013 241.346 342.378 240.97 344.698 240.22C347.019 239.466 348.915 238.649 350.385 237.764C351.854 236.88 353.257 235.86 354.594 234.708C355.93 233.554 356.806 232.737 357.223 232.253C357.641 231.769 357.949 231.393 358.15 231.125L353.041 226.516L351.386 228.52Z" fill="#444141"></path>
        <path d="M563.589 113.96C562.653 114.361 561.334 114.728 559.629 115.063C557.926 115.396 556.307 115.564 554.771 115.564C551.228 115.564 548.29 114.395 545.951 112.056C543.615 109.717 542.446 106.712 542.446 103.039V51.936H562.987V33.4987H542.446V0.633332H524.007V21.1747C524.007 29.3907 520.602 33.4987 513.787 33.4987H503.467V51.936H522.005V103.239C521.938 123.747 531.49 134 550.662 134C556.207 134 561.015 133.332 565.091 131.996V113.559L563.589 113.96ZM482.277 80.5933C478.503 78.7227 474.461 77.0373 470.153 75.5347C465.843 74.0307 461.819 72.7773 458.078 71.7747C454.338 70.7733 451.231 69.304 448.759 67.3667C446.287 65.4293 445.053 63.0253 445.053 60.1533C445.053 57.4133 446.338 55.0253 448.909 52.988C451.481 50.9507 454.971 49.932 459.382 49.932C462.654 49.932 465.91 50.684 469.15 52.1867C472.39 53.6893 474.527 54.9253 475.562 55.8933C476.598 56.8627 477.385 57.6133 477.918 58.148L491.245 44.8213L489.943 43.32C489.141 42.5173 487.854 41.432 486.083 40.0627C484.314 38.6933 482.261 37.3573 479.922 36.0533C477.585 34.752 474.561 33.6493 470.853 32.748C467.146 31.8453 463.322 31.3947 459.382 31.3947C449.427 31.3947 441.126 34.3013 434.481 40.112C427.834 45.924 424.51 52.604 424.51 60.1533C424.51 65.6293 425.746 70.3227 428.219 74.2307C430.69 78.1387 433.812 81.0107 437.586 82.848C441.36 84.6853 445.402 86.356 449.711 87.8587C454.019 89.3613 458.045 90.6307 461.786 91.6653C465.526 92.7027 468.633 94.1707 471.105 96.0747C473.575 97.9787 474.813 100.367 474.813 103.239C474.813 106.98 473.443 109.969 470.703 112.208C467.965 114.445 463.857 115.564 458.379 115.564C453.837 115.564 449.41 114.445 445.102 112.208C440.793 109.969 437.987 108.149 436.685 106.745C435.382 105.343 434.397 104.173 433.729 103.239L420.402 116.565L421.905 118.469C422.841 119.672 424.359 121.125 426.463 122.828C428.567 124.533 431.023 126.217 433.83 127.888C436.635 129.559 440.226 130.995 444.601 132.197C448.977 133.399 453.569 134 458.379 134C469.335 134 478.234 130.995 485.082 124.983C491.929 118.971 495.353 111.723 495.353 103.239C495.353 97.7613 494.117 93.0853 491.646 89.2107C489.174 85.336 486.051 82.464 482.277 80.5933V80.5933ZM383.735 86.8067C383.735 95.8907 381.414 102.956 376.771 107.999C372.127 113.043 365.899 115.564 358.083 115.564C351.403 115.564 345.809 113.225 341.299 108.549C336.79 103.873 334.537 97.9947 334.537 90.9147V33.4987H313.995V90.9147C313.995 104.073 317.685 114.545 325.066 122.328C332.449 130.109 342.084 134 353.975 134C357.45 134 360.855 133.567 364.197 132.699C367.537 131.829 370.309 130.845 372.513 129.743C374.718 128.641 376.771 127.405 378.674 126.036C380.578 124.665 381.833 123.68 382.433 123.079L383.735 121.776V131.996H404.278V33.4987H383.735V86.8067ZM261.742 102.537C256.231 108.483 249.767 111.455 242.353 111.455C234.938 111.455 228.458 108.483 222.913 102.537C217.37 96.592 214.597 89.3107 214.597 80.6933C214.597 72.076 217.37 64.7947 222.913 58.8493C228.458 52.9053 234.938 49.932 242.353 49.932C249.767 49.932 256.231 52.9053 261.742 58.8493C267.253 64.7947 270.007 72.076 270.007 80.6933C270.007 89.3107 267.253 96.592 261.742 102.537V102.537ZM270.007 43.7187L266.601 40.7133C264.397 38.6427 260.823 36.572 255.879 34.5013C250.938 32.4307 245.727 31.3947 240.249 31.3947C227.823 31.3947 217.034 36.188 207.883 45.7733C198.733 55.36 194.155 66.9987 194.155 80.6933C194.155 94.3867 198.733 106.029 207.883 115.615C217.034 125.201 227.823 129.992 240.249 129.992C243.723 129.992 247.13 129.543 250.469 128.641C253.809 127.739 256.581 126.737 258.785 125.635C260.99 124.533 263.045 123.296 264.949 121.928C266.851 120.557 268.105 119.572 268.706 118.971L270.007 117.668V126.085C270.007 135.103 267.321 142.451 261.943 148.129C256.565 153.808 249.701 156.647 241.35 156.647C237.61 156.647 234.002 156.096 230.529 154.993C227.055 153.891 224.215 152.655 222.011 151.285C219.807 149.917 217.721 148.347 215.75 146.577C213.779 144.807 212.493 143.571 211.891 142.869C211.29 142.168 210.855 141.616 210.589 141.215L197.162 154.543L198.865 156.647C199.934 158.116 201.703 159.853 204.175 161.857C206.647 163.861 209.519 165.849 212.793 167.82C216.066 169.791 220.241 171.493 225.318 172.931C230.397 174.367 235.739 175.084 241.35 175.084C255.178 175.084 266.835 170.34 276.321 160.855C285.807 151.369 290.55 139.712 290.55 125.884V33.4987H270.007V43.7187ZM142.581 105.343L113.823 33.4987H92.2792L132.361 131.996H152.802L192.882 33.4987H171.339L142.581 105.343ZM64.9485 86.8067C64.9485 96.024 62.5925 103.123 57.8832 108.099C53.1739 113.076 46.6445 115.564 38.2952 115.564C32.9499 115.564 28.6912 114.327 25.5179 111.856C22.3459 109.384 20.7592 106.512 20.7592 103.239C20.7592 99.6987 21.8952 96.76 24.1672 94.4213C26.4379 92.0827 29.4099 90.58 33.0846 89.912L64.9485 84.8013V86.8067ZM73.9672 42.0667C66.2845 34.952 56.4312 31.3947 44.4072 31.3947C39.5979 31.3947 34.9379 32.0453 30.4285 33.3493C25.9192 34.652 22.2965 36.1373 19.5579 37.808C16.8179 39.4787 14.2286 41.3653 11.7912 43.4693C9.35255 45.5733 7.7832 47.0427 7.08187 47.8773C6.38053 48.712 5.82988 49.3973 5.42855 49.932L18.7552 63.2587L21.4605 59.752C23.0645 57.5467 25.9859 55.36 30.2272 53.1893C34.4699 51.0173 39.1966 49.932 44.4072 49.932C50.4192 49.932 55.3445 51.7027 59.1859 55.2427C63.0272 58.7827 64.9485 63.1573 64.9485 68.3693L28.9765 74.5813C20.0912 76.0507 13.0939 79.524 7.98319 85.0013C2.87253 90.48 0.317871 97.26 0.317871 105.343C0.317871 112.824 3.62454 119.472 10.2379 125.283C16.8512 131.096 25.1686 134 35.1886 134C38.5952 134 41.9685 133.567 45.3099 132.699C48.6485 131.829 51.4219 130.845 53.6259 129.743C55.8299 128.641 57.8832 127.405 59.7872 126.036C61.6912 124.665 62.9605 123.68 63.5952 123.079C64.2299 122.477 64.6819 122.043 64.9485 121.776V131.996H85.4899V68.3693C85.4899 57.9467 81.6485 49.18 73.9672 42.0667" fill="#444141"></path>
    </g>
    <g>
        <path d="M669.565 33.499C697.346 33.499 719.866 56.0204 719.866 83.8004C719.866 111.58 697.346 134.1 669.565 134.1C641.785 134.1 619.264 111.58 619.264 83.8004V33.499H669.565Z" fill="#40C1EA"></path>
        <path d="M848.188 83.7997C848.188 111.58 825.668 134.101 797.886 134.101C770.106 134.101 747.586 111.58 747.586 83.7997C747.586 56.0197 770.106 33.4984 797.886 33.4984H848.188V83.7997Z" fill="#59C13E"></path>
        <path d="M880.482 81.6957C880.482 53.9157 903.003 31.3944 930.783 31.3944C958.563 31.3944 981.083 53.9157 981.083 81.6957C981.083 109.476 958.563 131.997 930.783 131.997H880.482V81.6957Z" fill="#F9AE0C"></path>
    </g>
</svg>