<?xml version="1.0" standalone="no"?>
<!DOCTYPE svg PUBLIC "-//W3C//DTD SVG 20010904//EN"
 "http://www.w3.org/TR/2001/REC-SVG-20010904/DTD/svg10.dtd">
<svg version="1.0" xmlns="http://www.w3.org/2000/svg"
 width="283.000000pt" height="77.000000pt" viewBox="0 0 283.000000 77.000000"
 preserveAspectRatio="xMidYMid meet">

<g transform="translate(0.000000,77.000000) scale(0.100000,-0.100000)"
fill="currentColor" stroke="none">
<path d="M0 480 l0 -291 239 3 c263 3 264 4 315 72 19 25 21 41 21 209 0 165
-2 185 -20 217 -41 70 -62 75 -322 78 l-233 4 0 -292z m448 158 c8 -8 12 -59
12 -165 l0 -153 -26 -10 c-14 -6 -90 -10 -170 -10 l-144 0 0 175 0 175 158 0
c110 0 162 -4 170 -12z"/>
<path d="M640 480 l0 -290 55 0 55 0 0 290 0 290 -55 0 -55 0 0 -290z"/>
<path d="M925 759 c-73 -17 -115 -80 -115 -171 0 -59 27 -115 69 -140 33 -21
50 -23 203 -27 184 -3 192 -6 186 -63 -5 -52 -27 -58 -240 -58 l-188 0 0 -55
0 -55 269 0 c262 0 324 7 249 29 -18 5 -27 10 -20 10 40 3 57 166 24 231 -31
62 -64 73 -236 77 -83 2 -161 6 -172 8 -29 6 -40 50 -19 81 15 24 16 24 215
24 l200 0 0 60 0 60 -192 -1 c-106 -1 -211 -5 -233 -10z"/>
<path d="M0 80 c0 -64 3 -80 15 -80 12 0 15 16 15 80 0 64 -3 80 -15 80 -12 0
-15 -16 -15 -80z"/>
<path d="M50 80 c0 -63 3 -80 15 -80 10 0 15 15 17 55 l3 55 45 -55 c25 -30
53 -55 63 -55 15 0 17 10 17 80 0 64 -3 80 -15 80 -12 0 -15 -13 -15 -57 l0
-58 -53 58 c-28 32 -58 57 -64 57 -9 0 -13 -23 -13 -80z"/>
<path d="M230 80 l0 -80 59 0 c89 0 91 2 91 76 0 75 -10 84 -94 84 l-56 0 0
-80z m118 -3 l3 -47 -45 0 -46 0 0 51 0 50 43 -3 42 -3 3 -48z"/>
<path d="M400 99 c0 -88 9 -99 78 -99 32 0 63 5 70 12 7 7 12 40 12 80 0 54
-3 68 -15 68 -12 0 -15 -14 -15 -65 l0 -65 -50 0 -50 0 0 65 c0 51 -3 65 -15
65 -12 0 -15 -13 -15 -61z"/>
<path d="M598 149 c-21 -12 -24 -64 -5 -76 6 -4 35 -10 62 -13 66 -7 60 -24
-10 -28 -41 -2 -55 -7 -55 -18 0 -12 13 -14 68 -12 l67 3 0 40 0 40 -58 3
c-49 3 -58 6 -55 20 2 13 16 18 61 20 40 2 57 7 54 15 -5 15 -106 20 -129 6z"/>
<path d="M750 145 c0 -10 11 -15 35 -15 l35 0 0 -65 c0 -51 3 -65 15 -65 12 0
15 14 15 65 l0 65 30 0 c20 0 30 5 30 15 0 12 -16 15 -80 15 -64 0 -80 -3 -80
-15z"/>
<path d="M930 80 c0 -64 3 -80 15 -80 9 0 15 9 15 25 0 18 5 25 18 25 10 0 29
-11 42 -25 13 -14 32 -25 43 -25 20 0 20 1 -2 24 -22 23 -22 23 -2 29 17 4 21
13 21 46 0 50 -17 61 -94 61 l-56 0 0 -80z m125 25 c0 -17 -8 -20 -47 -23 -46
-3 -48 -2 -48 23 0 25 2 26 48 23 39 -3 47 -6 47 -23z"/>
<path d="M1100 80 c0 -64 3 -80 15 -80 12 0 15 16 15 80 0 64 -3 80 -15 80
-12 0 -15 -16 -15 -80z"/>
<path d="M1180 153 c-25 -10 -30 -25 -30 -90 0 -49 3 -63 15 -63 8 0 15 7 15
15 0 11 12 15 50 15 38 0 50 -4 50 -15 0 -8 7 -15 15 -15 12 0 15 14 15 63 0
34 -4 68 -9 76 -9 15 -96 25 -121 14z m98 -60 l3 -33 -50 0 c-49 0 -51 1 -51
28 0 38 7 43 55 40 37 -3 40 -5 43 -35z"/>
<path d="M1330 80 l0 -80 60 0 c47 0 60 3 60 15 0 11 -12 15 -45 15 l-45 0 0
65 c0 51 -3 65 -15 65 -12 0 -15 -16 -15 -80z"/>
<path d="M1622 144 c-50 -35 -16 -84 59 -84 37 0 49 -4 49 -15 0 -12 -13 -15
-60 -15 -47 0 -60 -3 -60 -15 0 -12 14 -15 63 -15 67 0 87 10 87 46 0 31 -19
42 -75 46 -36 2 -50 7 -50 18 0 11 14 16 58 18 42 2 57 7 57 17 0 21 -98 20
-128 -1z"/>
<path d="M1775 149 c-4 -6 -4 -26 0 -45 5 -28 11 -36 36 -41 24 -4 29 -10 29
-34 0 -19 5 -29 15 -29 10 0 15 10 15 28 0 22 7 30 30 39 27 10 30 16 30 52 0
51 -27 58 -32 9 -3 -32 -5 -33 -48 -33 -43 0 -45 1 -48 33 -3 32 -15 41 -27
21z"/>
<path d="M1970 153 c-33 -13 -40 -52 -14 -77 10 -10 33 -16 65 -16 37 0 49 -4
49 -15 0 -12 -13 -15 -60 -15 -47 0 -60 -3 -60 -15 0 -12 14 -15 63 -15 67 0
87 10 87 46 0 31 -19 42 -75 46 -36 2 -50 7 -50 18 0 11 14 16 58 18 42 2 57
7 57 17 0 11 -13 15 -52 14 -29 0 -60 -3 -68 -6z"/>
<path d="M2120 145 c0 -10 10 -15 30 -15 l30 0 0 -65 c0 -51 3 -65 15 -65 12
0 15 14 15 65 l0 65 30 0 c20 0 30 5 30 15 0 12 -15 15 -75 15 -60 0 -75 -3
-75 -15z"/>
<path d="M2290 80 l0 -80 80 0 c64 0 80 3 80 15 0 12 -14 15 -65 15 -51 0 -65
3 -65 15 0 11 12 15 50 15 38 0 50 4 50 15 0 11 -12 15 -50 15 -43 0 -50 3
-50 20 0 18 7 20 65 20 51 0 65 3 65 15 0 12 -16 15 -80 15 l-80 0 0 -80z"/>
<path d="M2470 80 c0 -64 3 -80 15 -80 11 0 15 12 15 48 l0 47 28 -42 c15 -24
30 -43 33 -43 4 0 19 19 35 43 l29 42 3 -47 c2 -34 7 -48 18 -48 11 0 14 17
14 80 0 98 -13 104 -64 29 l-34 -51 -34 51 c-47 73 -58 67 -58 -29z"/>
<path d="M2690 140 c-24 -24 -24 -29 -4 -58 12 -18 25 -22 65 -22 37 0 49 -4
49 -15 0 -12 -13 -15 -60 -15 -47 0 -60 -3 -60 -15 0 -12 14 -15 63 -15 67 0
87 10 87 46 0 31 -19 42 -75 46 -36 2 -50 7 -50 18 0 11 14 16 58 18 42 2 57
7 57 17 0 25 -105 20 -130 -5z"/>
</g>
</svg>
