<svg width="1269" height="280" viewBox="0 0 1269 280" fill="none" xmlns="http://www.w3.org/2000/svg">
<path fill-rule="evenodd" clip-rule="evenodd" d="M0 3.68141V275.505C0 276.715 0.389372 277.533 1.52642 277.533H58.2047C60.2363 277.533 60.1223 276.406 60.1141 274.289L60.1131 84.6204C60.1131 77.4489 59.9426 70.0487 60.1058 62.9073C60.1833 59.5265 61.211 60.2777 67.747 60.2777L98.2804 60.0752C101.701 60.0752 104.653 60.2884 108.208 60.2729L113.056 60.5976C113.056 60.5976 117.06 60.9862 117.762 61.0715C130.687 62.6427 142.178 72.5639 145.609 85.6333C145.985 87.0687 146.322 88.5594 146.53 90.1306C147.743 99.2706 145.453 102.947 145.953 106.564C146.492 110.476 149.98 114.922 152.401 118.781L177.828 158.896C179.815 161.786 180.004 160.444 183.537 156.178L186.209 153.135C186.741 152.566 187.009 152.122 187.543 151.51C187.877 151.129 187.867 151.078 188.137 150.722C191.506 146.288 194.178 142.567 196.817 137.432C210.248 111.285 209.758 79.5493 199.506 52.075C197.2 45.8951 191.857 36.3412 187.448 31.4222C186.895 30.8039 186.687 30.4007 186.115 29.7959C185.078 28.6996 184.362 27.7401 183.346 26.6545L175.786 19.6788C162.675 8.5315 143.207 2.52605 126.518 2.06468L109.921 1.4502H40.8389C39.0764 1.4502 37.7843 1.66441 36.2634 1.65763L2.85587 1.64599C1.07051 1.64405 0 1.74097 0 3.68141Z" fill="#005D96"/>
<path fill-rule="evenodd" clip-rule="evenodd" d="M428.364 275.304L428.364 3.48001C428.364 2.27039 427.975 1.45235 426.838 1.45235L370.159 1.45235C368.128 1.45235 368.242 2.5786 368.25 4.6964L368.251 194.365C368.251 201.536 368.422 208.936 368.258 216.078C368.181 219.458 367.153 218.707 360.617 218.707L330.084 218.91C326.663 218.91 323.711 218.697 320.156 218.712L315.308 218.387C314.534 218.265 313.789 218.303 313.018 218.186C312.189 218.06 311.304 217.999 310.602 217.914C297.677 216.342 286.187 206.421 282.755 193.352C282.379 191.916 282.042 190.426 281.834 188.854C280.621 179.714 282.911 176.038 282.412 172.421C281.872 168.509 278.384 164.063 275.963 160.204L250.536 120.089C248.549 117.199 248.36 118.541 244.827 122.807L242.155 125.85C241.624 126.419 241.356 126.863 240.821 127.475C240.488 127.856 240.498 127.907 240.227 128.263C236.858 132.697 234.186 136.418 231.547 141.553C218.116 167.7 218.606 199.436 228.858 226.91C231.164 233.09 236.507 242.644 240.916 247.563C241.47 248.181 241.677 248.584 242.249 249.189C243.286 250.285 244.003 251.245 245.018 252.331L252.578 259.306C265.69 270.454 285.157 276.459 301.846 276.92L318.443 277.535H387.525C389.288 277.535 390.58 277.321 392.101 277.327L425.508 277.339C427.294 277.341 428.364 277.244 428.364 275.304Z" fill="#005D96"/>
<path fill-rule="evenodd" clip-rule="evenodd" d="M337.722 145.883V89.9822C337.722 84.68 336.277 83.0038 334.315 79.8557L287.954 5.3209C285.21 0.913788 284.127 1.47307 278.681 1.47307L213.964 1.47307C214.047 2.55114 219.875 11.3673 220.397 12.2073L256.73 70.1337C257.848 71.9269 258.909 73.6311 260.06 75.4805C274.356 98.4316 288.893 121.26 303.13 144.222C304.335 146.167 305.294 147.58 307.607 148.342L319.557 148.72L336.007 148.504C337.106 148.345 337.722 147.232 337.722 145.883Z" fill="#005D96"/>
<path fill-rule="evenodd" clip-rule="evenodd" d="M90.6418 133.102V189.003C90.6418 194.305 92.0875 195.982 94.0486 199.13L140.41 273.665C143.154 278.072 144.237 277.512 149.683 277.512H214.4C214.317 276.434 208.49 267.618 207.967 266.778L171.634 208.852C170.516 207.058 169.456 205.354 168.304 203.505C154.008 180.554 139.471 157.726 125.234 134.763C124.029 132.819 123.07 131.406 120.757 130.643C118.755 129.982 92.1263 130.267 92.1263 130.267C91.0277 130.425 90.6418 131.753 90.6418 133.102Z" fill="#005D96"/>
<path d="M491.158 277.883V153.546H544.827C554.055 153.546 562.13 155.225 569.051 158.585C575.972 161.944 581.356 166.781 585.201 173.095C589.046 179.409 590.968 186.978 590.968 195.801C590.968 204.705 588.985 212.213 585.018 218.325C581.092 224.437 575.568 229.051 568.444 232.167C561.361 235.284 553.084 236.842 543.613 236.842H511.557V210.615H536.813C540.78 210.615 544.16 210.129 546.952 209.158C549.785 208.146 551.951 206.547 553.448 204.361C554.986 202.176 555.755 199.322 555.755 195.801C555.755 192.239 554.986 189.345 553.448 187.119C551.951 184.853 549.785 183.193 546.952 182.141C544.16 181.048 540.78 180.502 536.813 180.502H524.914V277.883H491.158ZM564.012 220.814L595.097 277.883H558.427L528.071 220.814H564.012Z" fill="#005D96"/>
<path d="M673.811 153.546H707.566V233.199C707.566 242.671 705.3 250.867 700.767 257.788C696.274 264.668 690 269.991 681.946 273.755C673.891 277.479 664.542 279.34 653.897 279.34C643.171 279.34 633.781 277.479 625.727 273.755C617.672 269.991 611.399 264.668 606.906 257.788C602.454 250.867 600.228 242.671 600.228 233.199V153.546H633.984V230.285C633.984 234.13 634.834 237.571 636.534 240.606C638.234 243.601 640.581 245.949 643.576 247.649C646.612 249.349 650.052 250.199 653.897 250.199C657.783 250.199 661.223 249.349 664.218 247.649C667.213 245.949 669.561 243.601 671.261 240.606C672.961 237.571 673.811 234.13 673.811 230.285V153.546Z" fill="#005D96"/>
<path d="M785.506 192.401C785.182 188.354 783.664 185.197 780.953 182.93C778.281 180.664 774.214 179.53 768.75 179.53C765.269 179.53 762.415 179.955 760.189 180.805C758.004 181.615 756.385 182.728 755.332 184.144C754.28 185.561 753.734 187.18 753.693 189.001C753.612 190.499 753.875 191.855 754.482 193.069C755.13 194.243 756.142 195.315 757.518 196.287C758.894 197.218 760.655 198.068 762.8 198.837C764.945 199.606 767.495 200.294 770.45 200.901L780.649 203.087C787.53 204.544 793.419 206.466 798.316 208.854C803.214 211.242 807.221 214.055 810.337 217.293C813.454 220.491 815.74 224.093 817.198 228.1C818.695 232.107 819.464 236.478 819.505 241.213C819.464 249.389 817.42 256.31 813.373 261.977C809.325 267.643 803.537 271.954 796.009 274.908C788.521 277.863 779.516 279.34 768.992 279.34C758.186 279.34 748.755 277.742 740.701 274.544C732.687 271.347 726.454 266.429 722.002 259.791C717.59 253.113 715.364 244.573 715.323 234.171H747.379C747.582 237.975 748.533 241.173 750.233 243.763C751.933 246.354 754.32 248.317 757.397 249.652C760.513 250.988 764.216 251.656 768.507 251.656C772.109 251.656 775.124 251.211 777.553 250.32C779.981 249.43 781.823 248.195 783.078 246.617C784.332 245.038 784.98 243.237 785.02 241.213C784.98 239.311 784.353 237.652 783.138 236.235C781.965 234.778 780.022 233.483 777.31 232.35C774.598 231.176 770.935 230.083 766.321 229.071L753.936 226.4C742.927 224.012 734.245 220.025 727.891 214.44C721.577 208.814 718.44 201.144 718.48 191.43C718.44 183.537 720.545 176.636 724.794 170.727C729.085 164.777 735.014 160.143 742.583 156.824C750.192 153.505 758.914 151.846 768.75 151.846C778.787 151.846 787.469 153.526 794.795 156.885C802.121 160.244 807.767 164.98 811.734 171.091C815.74 177.163 817.764 184.266 817.805 192.401H785.506Z" fill="#005D96"/>
<path d="M491.158 126.037V1.69993H544.827C554.055 1.69993 562.13 3.37962 569.051 6.739C575.972 10.0984 581.356 14.9351 585.201 21.2491C589.046 27.5631 590.968 35.1318 590.968 43.9553C590.968 52.8596 588.985 60.3677 585.018 66.4793C581.092 72.5909 575.568 77.205 568.444 80.3216C561.361 83.4381 553.084 84.9964 543.613 84.9964H511.557V58.7689H536.813C540.78 58.7689 544.16 58.2832 546.952 57.3118C549.785 56.3 551.951 54.7012 553.448 52.5156C554.986 50.33 555.755 47.4765 555.755 43.9553C555.755 40.3935 554.986 37.4996 553.448 35.2735C551.951 33.0069 549.785 31.3475 546.952 30.2951C544.16 29.2023 540.78 28.6559 536.813 28.6559H524.914V126.037H491.158ZM564.012 68.9685L595.097 126.037H558.427L528.071 68.9685H564.012Z" fill="#005D96"/>
<path d="M603.097 126.037V1.69993H692.707L678 28.8988H636.852V50.2693L678 51.3621V77.4681H636.852V98.8386L678 98.5958L692.464 126.037H603.097Z" fill="#005D96"/>
<path d="M770.89 40.6768C770.566 36.6294 769.048 33.4724 766.336 31.2058C763.665 28.9392 759.597 27.8059 754.133 27.8059C750.653 27.8059 747.799 28.2309 745.573 29.0809C743.387 29.8904 741.768 31.0034 740.716 32.42C739.664 33.8366 739.117 35.4556 739.077 37.277C738.996 38.7745 739.259 40.1304 739.866 41.3447C740.514 42.5184 741.526 43.591 742.902 44.5624C744.278 45.4933 746.038 46.3433 748.184 47.1123C750.329 47.8813 752.879 48.5693 755.833 49.1765L766.033 51.3621C772.914 52.8192 778.802 54.7417 783.7 57.1297C788.597 59.5177 792.604 62.3307 795.721 65.5686C798.837 68.7661 801.124 72.3683 802.581 76.3753C804.079 80.3823 804.848 84.7535 804.888 89.489C804.848 97.6649 802.804 104.586 798.756 110.252C794.709 115.919 788.921 120.229 781.393 123.184C773.905 126.139 764.9 127.616 754.376 127.616C743.569 127.616 734.139 126.017 726.085 122.82C718.071 119.622 711.838 114.705 707.385 108.067C702.974 101.389 700.747 92.8484 700.707 82.4465H732.763C732.965 86.2511 733.916 89.4485 735.616 92.0389C737.316 94.6293 739.704 96.5923 742.78 97.9279C745.897 99.2636 749.6 99.9314 753.891 99.9314C757.493 99.9314 760.508 99.4862 762.937 98.5958C765.365 97.7053 767.207 96.4709 768.461 94.8924C769.716 93.3139 770.364 91.5127 770.404 89.489C770.364 87.5867 769.736 85.9273 768.522 84.5107C767.348 83.0536 765.405 81.7584 762.694 80.6251C759.982 79.4514 756.319 78.3586 751.705 77.3467L739.32 74.6754C728.311 72.2874 719.629 68.3006 713.274 62.7152C706.96 57.0892 703.824 49.4193 703.864 39.7054C703.824 31.8129 705.928 24.912 710.178 19.0028C714.468 13.053 720.398 8.41868 727.967 5.09978C735.576 1.78087 744.298 0.121422 754.133 0.121422C764.171 0.121422 772.853 1.80111 780.179 5.16049C787.505 8.51987 793.151 13.2554 797.117 19.367C801.124 25.4382 803.148 32.5415 803.188 40.6768H770.89Z" fill="#005D96"/>
<path d="M929.455 48.3265H895.213C894.971 45.4933 894.323 42.9232 893.271 40.6161C892.259 38.3091 890.842 36.3258 889.021 34.6664C887.24 32.9664 885.074 31.6713 882.525 30.7808C879.975 29.8499 877.081 29.3845 873.843 29.3845C868.176 29.3845 863.38 30.7606 859.454 33.5129C855.569 36.2651 852.614 40.2114 850.59 45.3516C848.607 50.4919 847.615 56.6642 847.615 63.8687C847.615 71.4779 848.627 77.8526 850.651 82.9929C852.715 88.0927 855.69 91.9377 859.576 94.5281C863.461 97.078 868.136 98.3529 873.6 98.3529C876.716 98.3529 879.509 97.9684 881.978 97.1994C884.447 96.3899 886.592 95.2364 888.414 93.7388C890.235 92.2413 891.712 90.4402 892.846 88.3355C894.019 86.1904 894.809 83.7821 895.213 81.1108L929.455 81.3537C929.05 86.6153 927.573 91.9782 925.023 97.4423C922.473 102.866 918.85 107.885 914.155 112.499C909.501 117.072 903.733 120.756 896.853 123.548C889.972 126.341 881.978 127.737 872.871 127.737C861.458 127.737 851.218 125.289 842.151 120.391C833.126 115.494 825.982 108.289 820.72 98.7779C815.499 89.2664 812.888 77.63 812.888 63.8687C812.888 50.0264 815.56 38.3698 820.902 28.8988C826.245 19.3873 833.449 12.203 842.516 7.34611C851.582 2.4487 861.701 0 872.871 0C880.724 0 887.948 1.07257 894.546 3.21772C901.143 5.36287 906.931 8.49964 911.909 12.628C916.887 16.716 920.894 21.755 923.93 27.7452C926.966 33.7355 928.807 40.5959 929.455 48.3265Z" fill="#005D96"/>
<path d="M937.455 126.037V1.69993H971.21V50.2693H1015.89V1.69993H1049.65V126.037H1015.89V77.4681H971.21V126.037H937.455Z" fill="#005D96"/>
<path d="M1057.65 126.037V1.69993H1091.41V51.9692H1093.11L1130.5 1.69993H1169.85L1127.83 57.069L1170.82 126.037H1130.5L1102.58 79.4109L1091.41 93.9817V126.037H1057.65Z" fill="#005D96"/>
<path d="M1178.82 126.037V1.69993H1268.43L1255 28.8988H1212.57V50.2693H1255V77.4681H1212.57V98.8386H1255L1268.18 126.037H1178.82Z" fill="#005D96"/>
</svg>
