<?xml version="1.0" standalone="no"?>
<!DOCTYPE svg PUBLIC "-//W3C//DTD SVG 20010904//EN"
 "http://www.w3.org/TR/2001/REC-SVG-20010904/DTD/svg10.dtd">
<svg version="1.0" xmlns="http://www.w3.org/2000/svg"
 width="1681.000000pt" height="343.000000pt" viewBox="0 0 1681.000000 343.000000"
 preserveAspectRatio="xMidYMid meet">

<g transform="translate(0.000000,343.000000) scale(0.100000,-0.100000)"
fill="currentColor" stroke="none">
<path d="M4040 3250 l0 -170 350 0 350 0 0 -995 0 -995 180 0 180 0 0 995 0
995 350 0 350 0 0 170 0 170 -880 0 -880 0 0 -170z"/>
<path d="M6030 2255 l0 -1165 176 0 175 0 -3 845 c-2 465 -1 845 2 845 3 0
150 -379 327 -843 l321 -842 142 0 141 0 325 839 c178 462 326 842 329 844 3
3 5 -376 5 -841 l0 -847 180 0 180 0 0 1165 0 1165 -236 -2 -235 -3 -336 -867
c-185 -478 -339 -868 -342 -868 -3 0 -141 352 -306 783 -164 430 -315 821
-333 870 l-34 87 -239 0 -239 0 0 -1165z"/>
<path d="M9330 2255 l0 -1165 175 0 176 0 -3 845 c-2 465 -1 845 2 845 3 0
135 -341 295 -758 159 -416 305 -796 323 -845 l34 -88 141 3 140 3 325 842
c179 464 328 843 331 843 3 0 5 -380 3 -845 l-2 -845 185 0 185 0 -2 1163 -3
1162 -236 3 c-184 2 -238 0 -242 -10 -2 -7 -152 -393 -332 -858 -180 -465
-330 -851 -332 -857 -8 -20 -20 -15 -27 10 -3 12 -152 402 -330 867 l-325 845
-240 3 -241 2 0 -1165z"/>
<path d="M12272 2273 c-248 -632 -454 -1156 -458 -1166 -6 -16 5 -17 182 -15
l188 3 135 350 136 350 409 0 409 0 137 -350 137 -350 191 -3 191 -2 -24 62
c-13 35 -209 536 -435 1113 -226 578 -421 1074 -432 1103 l-19 52 -148 0 -147
0 -452 -1147z m616 570 c7 -21 68 -186 136 -368 l124 -330 -275 -3 c-152 -1
-277 -1 -279 1 -2 1 53 149 121 329 68 179 129 344 136 367 7 22 15 41 19 41
4 0 12 -17 18 -37z"/>
<path d="M14100 2255 l0 -1165 1355 0 1355 0 -2 1163 -3 1162 -182 3 -183 2 0
-995 0 -995 -400 0 -400 0 0 93 c0 50 -1 497 -3 992 l-2 900 -182 3 -183 2 0
-995 0 -995 -400 0 -400 0 0 995 0 995 -185 0 -185 0 0 -1165z"/>
<path d="M1773 3402 l-72 -3 -10 -37 c-6 -20 -20 -77 -32 -127 -12 -49 -25
-93 -28 -98 -4 -4 -40 -16 -81 -28 l-74 -20 -98 98 -98 97 -77 -38 c-42 -21
-112 -60 -154 -87 l-78 -50 14 -47 c8 -26 25 -86 38 -133 l24 -87 -57 -56
c-31 -31 -63 -56 -71 -56 -8 0 -66 16 -129 35 -63 19 -118 35 -122 35 -10 0
-103 -149 -145 -233 l-38 -78 100 -93 100 -93 -17 -54 c-9 -30 -19 -66 -22
-81 -7 -30 -3 -28 -171 -69 -49 -12 -93 -25 -97 -28 -3 -3 -8 -43 -10 -88 l-3
-83 411 0 411 0 15 93 c37 227 175 416 373 512 279 134 602 72 808 -156 96
-105 176 -295 177 -416 l0 -33 416 0 417 0 -8 83 c-4 45 -8 84 -10 86 -2 1
-61 17 -131 35 l-126 32 -24 79 -24 80 100 97 100 98 -49 94 c-27 51 -67 121
-89 154 l-41 60 -129 -37 -129 -38 -62 60 -62 60 36 123 c19 68 35 127 35 132
0 13 -126 95 -220 142 l-83 42 -97 -97 -98 -97 -53 15 c-30 8 -66 18 -80 21
-25 5 -29 15 -59 137 -18 72 -38 132 -44 135 -16 5 -190 9 -273 6z"/>
<path d="M5670 398 c-76 -39 -110 -131 -90 -240 6 -29 18 -64 29 -78 76 -105
234 -100 308 9 44 64 39 196 -9 264 -46 65 -157 85 -238 45z m145 -42 c82 -35
100 -193 29 -263 -27 -28 -39 -33 -81 -33 -84 0 -124 48 -124 150 -1 89 25
132 91 153 27 9 50 7 85 -7z"/>
<path d="M7362 403 c-14 -26 -152 -378 -152 -386 0 -4 12 -7 28 -7 24 0 30 7
50 60 l24 60 76 0 77 0 21 -58 c18 -52 23 -57 52 -60 18 -2 32 -2 32 0 0 2
-36 93 -79 203 -64 162 -82 201 -99 203 -12 2 -25 -4 -30 -15z m52 -135 c9
-29 20 -59 23 -65 3 -10 -9 -13 -46 -13 -28 0 -51 3 -51 6 0 16 43 124 50 124
3 0 14 -24 24 -52z"/>
<path d="M9374 409 c-43 -12 -100 -78 -115 -131 -15 -58 -6 -139 23 -190 30
-54 82 -81 157 -82 81 0 111 10 111 37 0 22 -3 23 -86 22 -81 0 -87 1 -109 28
-37 42 -49 101 -36 163 20 86 88 126 173 104 37 -10 44 -10 55 6 19 27 16 32
-24 43 -45 13 -106 13 -149 0z"/>
<path d="M10090 398 c-51 -27 -76 -64 -90 -136 -11 -62 2 -145 29 -182 76
-105 234 -100 308 9 44 64 39 196 -9 264 -46 65 -158 85 -238 45z m145 -42
c47 -20 69 -66 70 -146 0 -105 -39 -150 -128 -150 -78 0 -117 50 -117 150 0
91 24 132 90 153 27 9 50 7 85 -7z"/>
<path d="M11572 318 c-22 -57 -58 -149 -80 -206 l-41 -103 31 3 c26 3 33 10
52 58 l22 55 79 0 78 0 20 -58 c19 -51 24 -57 49 -57 15 0 28 4 28 9 0 14
-141 374 -153 389 -5 6 -17 12 -27 12 -13 0 -28 -26 -58 -102z m91 -126 c-12
-2 -36 -2 -51 0 l-29 3 25 69 26 68 26 -68 26 -69 -23 -3z"/>
<path d="M13445 400 c-64 -32 -88 -77 -93 -173 -3 -71 0 -88 20 -127 40 -78
122 -112 214 -89 84 21 134 97 134 200 0 93 -41 168 -107 195 -47 20 -121 17
-168 -6z m162 -55 c38 -25 56 -80 50 -151 -7 -97 -44 -134 -130 -134 -51 0
-84 21 -103 66 -19 46 -18 132 4 174 32 65 116 86 179 45z"/>
<path d="M13920 404 c-77 -33 -110 -91 -110 -193 0 -78 11 -115 43 -149 35
-38 78 -55 137 -56 82 0 110 10 110 39 0 23 -1 24 -68 18 -83 -7 -121 10 -147
63 -23 50 -17 153 11 191 31 41 86 57 147 42 50 -12 66 -5 67 28 0 31 -129 43
-190 17z"/>
<path d="M14975 400 c-64 -32 -88 -77 -93 -173 -3 -71 0 -88 20 -127 40 -78
122 -112 214 -89 84 21 134 97 134 200 0 93 -41 168 -107 195 -47 20 -121 17
-168 -6z m162 -55 c73 -48 68 -231 -8 -270 -37 -20 -109 -19 -138 1 -50 36
-68 155 -33 224 32 65 116 86 179 45z"/>
<path d="M4030 385 c0 -24 3 -25 60 -25 l60 0 0 -175 0 -175 30 0 30 0 0 175
0 175 60 0 c57 0 60 1 60 25 l0 25 -150 0 -150 0 0 -25z"/>
<path d="M4410 210 l0 -200 115 0 115 0 0 25 c0 25 -1 25 -85 25 l-85 0 0 65
0 65 80 0 80 0 0 30 0 30 -80 0 -80 0 0 55 0 55 85 0 c84 0 85 0 85 25 l0 25
-115 0 -115 0 0 -200z"/>
<path d="M4750 210 l0 -200 25 0 25 0 2 173 3 172 93 3 92 3 0 -176 0 -175 30
0 30 0 0 200 0 200 -150 0 -150 0 0 -200z"/>
<path d="M5247 403 c-3 -5 -8 -35 -11 -68 -14 -121 -38 -241 -52 -263 -11 -17
-21 -21 -39 -16 -22 5 -25 3 -25 -19 0 -36 51 -47 89 -20 34 26 48 71 69 218
l17 120 58 3 57 3 0 -176 0 -175 30 0 30 0 0 200 0 200 -109 0 c-61 0 -112 -3
-114 -7z"/>
<path d="M6050 210 l0 -200 30 0 30 0 0 153 1 152 57 -150 c51 -134 60 -150
82 -153 23 -3 28 6 79 140 29 79 57 147 62 152 5 6 9 -55 9 -142 l0 -152 25 0
25 0 0 200 0 200 -39 0 -38 0 -58 -150 c-32 -82 -60 -148 -64 -146 -3 2 -31
70 -61 150 l-55 146 -42 0 -43 0 0 -200z"/>
<path d="M6580 210 l0 -200 115 0 115 0 0 25 c0 25 -1 25 -85 25 l-85 0 0 65
0 64 78 3 c76 3 77 3 80 31 l3 27 -80 0 -81 0 0 55 0 55 85 0 c84 0 85 0 85
25 l0 25 -115 0 -115 0 0 -200z"/>
<path d="M6905 354 c20 -30 47 -73 62 -95 l25 -38 -53 -83 c-29 -46 -59 -93
-67 -105 -14 -22 -13 -23 17 -23 28 0 36 8 82 80 28 44 53 80 54 80 2 0 25
-36 52 -80 44 -74 50 -80 81 -80 l34 0 -23 38 c-13 20 -43 68 -67 106 l-43 68
44 67 c24 36 52 78 61 94 l18 27 -33 0 c-30 0 -38 -6 -62 -48 -16 -26 -36 -58
-46 -71 l-18 -23 -44 71 c-40 65 -46 71 -77 71 l-33 0 36 -56z"/>
<path d="M7640 210 l0 -200 30 0 30 0 0 90 0 90 95 0 95 0 0 -90 0 -90 30 0
30 0 0 200 0 200 -30 0 -30 0 0 -80 0 -80 -95 0 -95 0 0 80 0 80 -30 0 -30 0
0 -200z"/>
<path d="M8080 210 l0 -200 29 0 c25 0 38 15 131 155 57 85 103 155 104 155 1
0 -1 -70 -3 -155 l-3 -155 31 0 31 0 0 200 0 200 -32 0 c-31 0 -38 -8 -133
-152 l-100 -151 -3 151 -3 152 -24 0 -25 0 0 -200z"/>
<path d="M8520 306 c0 -104 0 -104 31 -130 25 -22 41 -26 89 -26 32 0 70 4 84
10 l26 10 0 -80 0 -80 30 0 30 0 0 200 0 200 -30 0 -30 0 0 -95 0 -94 -37 -10
c-52 -15 -96 -14 -119 3 -16 12 -20 29 -22 105 -4 88 -5 91 -28 91 -24 0 -24
-1 -24 -104z"/>
<path d="M8940 210 l0 -200 115 0 115 0 0 25 c0 24 -2 24 -87 27 l-88 3 -3 62
-3 62 83 3 c81 3 83 4 83 28 0 24 -2 25 -82 28 l-83 3 0 54 0 55 90 0 c89 0
90 0 90 25 l0 25 -115 0 -115 0 0 -200z"/>
<path d="M9650 210 l0 -200 30 0 30 0 0 93 1 92 31 -35 c133 -148 137 -151
172 -148 l34 3 -89 99 c-50 54 -88 102 -87 107 2 4 40 49 86 98 l83 91 -34 0
c-31 0 -44 -10 -116 -86 l-81 -85 0 85 0 86 -30 0 -30 0 0 -200z"/>
<path d="M10470 210 l0 -200 115 0 115 0 0 25 c0 25 -1 25 -85 25 l-85 0 0 65
0 65 80 0 80 0 0 30 0 30 -80 0 -80 0 0 55 0 55 84 0 c81 0 84 1 88 25 l5 25
-118 0 -119 0 0 -200z"/>
<path d="M10980 210 l0 -200 30 0 29 0 3 147 3 147 55 -145 c50 -131 57 -144
80 -144 22 0 29 13 80 142 30 78 57 144 60 146 3 3 5 -61 5 -141 l0 -147 28
-3 27 -3 0 200 0 201 -39 0 -39 0 -32 -82 c-17 -46 -43 -113 -57 -150 -14 -37
-28 -66 -32 -63 -4 2 -32 69 -62 149 l-54 146 -42 0 -43 0 0 -200z"/>
<path d="M11890 210 l0 -200 235 0 235 0 0 200 0 200 -30 0 -30 0 0 -175 0
-175 -75 0 -75 0 0 175 0 175 -30 0 -30 0 0 -175 0 -176 -72 3 -73 3 -3 173
-2 172 -25 0 -25 0 0 -200z"/>
<path d="M12480 210 l0 -200 33 0 c30 0 37 8 132 152 l100 151 3 -151 3 -152
29 0 30 0 0 200 0 200 -33 0 c-33 0 -38 -6 -135 -152 l-102 -153 0 153 0 152
-30 0 -30 0 0 -200z"/>
<path d="M12930 210 l0 -200 30 0 30 0 0 90 0 90 95 0 95 0 0 -90 0 -90 30 0
30 0 0 200 0 200 -30 0 -30 0 0 -80 0 -80 -95 0 -95 0 0 80 0 80 -30 0 -30 0
0 -200z"/>
<path d="M14150 385 c0 -24 2 -25 65 -25 l65 0 0 -175 0 -175 30 0 30 0 0 175
0 175 60 0 c57 0 60 1 60 25 l0 25 -155 0 -155 0 0 -25z"/>
<path d="M14540 209 l0 -200 28 3 c26 3 27 5 30 76 3 69 4 72 28 72 50 0 113
22 139 50 34 36 43 95 21 138 -25 48 -62 62 -161 62 l-85 0 0 -201z m175 126
c30 -30 31 -54 4 -89 -17 -22 -28 -26 -70 -26 l-49 0 0 70 0 70 45 0 c35 0 52
-6 70 -25z"/>
<path d="M15360 210 l0 -200 115 0 115 0 0 25 c0 24 -2 24 -87 27 l-88 3 -3
62 -3 62 83 3 c81 3 83 4 83 28 0 24 -2 25 -82 28 l-83 3 0 54 0 55 90 0 c89
0 90 0 90 25 l0 25 -115 0 -115 0 0 -200z"/>
<path d="M15690 210 l0 -200 30 0 30 0 0 90 0 90 95 0 95 0 0 -90 0 -90 30 0
30 0 0 200 0 200 -30 0 -30 0 0 -80 0 -80 -95 0 -95 0 0 80 0 80 -30 0 -30 0
0 -200z"/>
<path d="M16130 210 l0 -200 29 0 c25 0 38 15 132 157 l104 156 3 -156 3 -157
24 0 25 0 0 200 0 200 -32 0 c-31 0 -38 -8 -133 -152 l-100 -151 -3 151 -3
152 -24 0 -25 0 0 -200z"/>
<path d="M16580 210 l0 -200 115 0 115 0 0 25 c0 24 -2 24 -87 27 l-88 3 -3
62 -3 62 83 3 c82 3 83 3 86 31 l3 27 -85 0 -86 0 0 55 0 55 90 0 c89 0 90 0
90 25 l0 25 -115 0 -115 0 0 -200z"/>
</g>
</svg>
