<svg xmlns="http://www.w3.org/2000/svg" version="1.1" xmlns:xlink="http://www.w3.org/1999/xlink" width="512" height="512" x="0" y="0" viewBox="0 0 50 50" style="enable-background:new 0 0 512 512" xml:space="preserve" class=""><g><path fill="#f17572" d="M48.97 19.033c-3.133 5.373-8.498 9.689-13.912 12.814a62.226 62.226 0 0 1-6.393 3.202 70.408 70.408 0 0 1-3.98 1.579c-6.43 2.33-13.676 3.932-21.285 4.51-.797.06-1.597.11-2.4.147 2.497 1.788 6.89 3.152 6.555 8.525 12.85-.603 18.4-2.327 27.533-7.6C41.332 38.605 46.198 34.2 49 29.396z" opacity="1" data-original="#f17572" class=""></path><path fill="#cb4844" d="M48.997 28.443c-2.8 4.804-7.667 9.208-13.91 12.811-9.13 5.27-14.68 6.998-27.525 7.6.017.304.013.622-.007.956 12.85-.603 18.4-2.326 27.533-7.6 6.244-3.605 11.11-8.01 13.911-12.813zM2.377 41.209c-.457.029-.917.054-1.376.076 2.328 1.667 6.304 2.964 6.558 7.486.238-4.417-2.744-6.096-5.182-7.562z" opacity="1" data-original="#cb4844" class=""></path><path fill="#f17572" d="M7.555 48.855h.007c0-.03 0-.056-.003-.084 0 .028-.002.055-.004.084z" opacity="1" data-original="#f17572" class=""></path><path fill="#ee5550" d="m48.997 28.443-.027-9.41c-3.117 5.36-8.51 9.697-13.911 12.814a62.444 62.444 0 0 1-6.393 3.202 69.788 69.788 0 0 1-3.981 1.578c-6.434 2.332-13.58 3.912-21.285 4.511-.342.026-.681.05-1.023.07 2.438 1.467 5.42 3.147 5.182 7.563a.627.627 0 0 1 .003.084c12.844-.603 18.394-2.33 27.526-7.6 6.242-3.604 11.109-8.008 13.91-12.812z" opacity="1" data-original="#ee5550" class=""></path><path fill="#485f69" d="M24.685 36.628a70.41 70.41 0 0 0 3.98-1.58 62.226 62.226 0 0 0 6.393-3.2c5.412-3.125 10.779-7.441 13.913-12.815l-9.398-5.461-.097.02v.553l8.744 5.082c-3.122 5.072-8.27 9.166-13.434 12.148-9.187 5.304-20.78 8.592-32.752 9.308l-.385.024c1.275-6.799 6.938-13.396 16.03-18.645 6.25-3.609 13.783-6.344 21.797-7.917v-.554c-8.266 1.61-15.85 4.407-22.07 7.999C8.275 26.862 2.084 33.844 1 41.285a83.233 83.233 0 0 0 2.4-.147c7.61-.578 14.855-2.18 21.285-4.51z" opacity="1" data-original="#485f69"></path><path fill="#778c95" d="M28.665 35.049zM24.685 36.628c-6.131 2.22-12.958 3.765-20.093 4.41 7.135-.645 13.962-2.189 20.093-4.41z" opacity="1" data-original="#778c95"></path><path fill="#40545d" d="m1.649 40.707.385-.024C3.84 34.455 9.303 28.474 17.68 23.638c6.25-3.608 13.783-6.343 21.797-7.916v-1.577c-8.014 1.573-15.547 4.308-21.797 7.917C8.587 27.31 2.924 33.908 1.649 40.707z" opacity="1" data-original="#40545d"></path><path fill="#56707b" d="M47.47 20.368c.264-.378.514-.759.75-1.141l-8.744-5.082v1.577z" opacity="1" data-original="#56707b" class=""></path><path fill="#dde4e7" d="M39.476 16.577v-.855c-8.014 1.573-15.547 4.308-21.797 7.916-8.376 4.836-13.84 10.817-15.645 17.045 11.973-.715 23.565-4.004 32.752-9.308 5.538-3.197 9.883-6.975 12.685-11.007l-7.995-4.646v.855z" opacity="1" data-original="#dde4e7" class=""></path><path fill="#b0b8bc" d="m43.71 15.845-.025 8.793-6.133 3.564.025-8.793z" opacity="1" data-original="#b0b8bc" class=""></path><path fill="#cfd8dd" d="m37.577 19.409-.025 8.793-11.865-6.85.025-8.793z" opacity="1" data-original="#cfd8dd" class=""></path><path fill="#dde4e7" d="m43.71 15.845-6.133 3.564-11.865-6.85 6.133-3.564z" opacity="1" data-original="#dde4e7" class=""></path><path fill="#b0b8bc" d="m28.124 15.654-.006 2.322-1.433-.827.006-2.323zM30.366 16.948l-.007 2.322-1.433-.827.007-2.323zM32.607 18.242l-.006 2.322-1.434-.827.007-2.323zM34.848 19.536l-.006 2.322-1.433-.827.006-2.323zM37.09 20.83l-.007 2.322-1.433-.827.007-2.323zM28.115 19l-.007 2.323-1.433-.828.007-2.322zM30.356 20.295l-.006 2.322-1.434-.827.007-2.323zM32.598 21.589l-.007 2.322-1.433-.827.006-2.323zM34.839 22.883l-.007 2.322-1.433-.827.007-2.323zM37.08 24.177l-.006 2.322-1.433-.827.006-2.323z" opacity="1" data-original="#b0b8bc" class=""></path><path fill="#56707b" d="m33.119 11.852-1.949 1.125c-.38.22-.878.33-1.375.33s-.994-.11-1.372-.33c-.375-.218-.564-.504-.565-.79l-.014-5.039c.001.287.189.573.565.79.377.22.874.33 1.371.33s.995-.11 1.376-.33l1.949-1.124z" opacity="1" data-original="#56707b" class=""></path><path fill="#778c95" d="M28.417 6.347c-.76.44-.765 1.153-.008 1.592.378.22.874.33 1.372.33.496 0 .994-.11 1.375-.33l1.948-1.125-2.738-1.592z" opacity="1" data-original="#778c95"></path><path fill="#dde4e7" d="m30.844 6.216-.003.78c0 .144-.095.287-.283.396-.379.22-.994.22-1.375 0-.192-.11-.288-.256-.287-.401l.003-.78c0 .145.096.29.287.4.381.22.997.22 1.376 0 .188-.108.282-.251.282-.395z" opacity="1" data-original="#dde4e7" class=""></path><path fill="#dde4e7" d="M30.557 5.815c.381.22.383.577.005.797-.379.22-.994.22-1.376 0-.38-.22-.383-.577-.004-.797.379-.22.994-.22 1.375 0z" opacity="1" data-original="#dde4e7" class=""></path><path fill="#778c95" d="m30.844 5.436-.003.78c0 .144-.095.287-.283.396-.379.22-.994.22-1.375 0-.192-.11-.288-.256-.287-.401l.003-.78c0 .145.096.29.287.4.381.22.997.22 1.376 0 .188-.109.282-.252.282-.395z" opacity="1" data-original="#778c95"></path><path fill="#dde4e7" d="M30.557 5.035c.381.22.383.577.005.797-.379.22-.994.22-1.376 0-.38-.22-.383-.577-.004-.797.379-.22.994-.22 1.375 0z" opacity="1" data-original="#dde4e7" class=""></path><path fill="#dde4e7" d="m30.844 4.656-.003.78c0 .143-.095.286-.283.396-.379.22-.994.22-1.375 0-.192-.111-.288-.256-.287-.401l.003-.78c0 .145.096.29.287.4.381.22.997.22 1.376 0 .188-.109.282-.252.282-.395z" opacity="1" data-original="#dde4e7" class=""></path><path fill="#dde4e7" d="M30.557 4.255c.381.22.383.577.005.797-.379.22-.994.22-1.376 0-.38-.22-.383-.577-.004-.797.379-.22.994-.22 1.375 0z" opacity="1" data-original="#dde4e7" class=""></path><path fill="#778c95" d="m30.844 3.876-.003.78c0 .143-.095.286-.283.396-.379.22-.994.22-1.375 0-.192-.111-.288-.256-.287-.401l.003-.78c0 .144.096.29.287.4.381.22.997.22 1.376 0 .188-.109.282-.252.282-.395z" opacity="1" data-original="#778c95"></path><path fill="#dde4e7" d="M30.557 3.475c.381.22.383.576.005.796-.379.22-.994.22-1.376 0-.38-.22-.383-.576-.004-.796.379-.22.994-.22 1.375 0z" opacity="1" data-original="#dde4e7" class=""></path><path fill="#dde4e7" d="m30.844 3.096-.003.78c0 .143-.095.286-.283.395-.379.22-.994.22-1.375 0-.192-.11-.288-.256-.287-.4l.003-.78c0 .144.096.29.287.4.381.22.997.22 1.376 0 .188-.109.282-.252.282-.395z" opacity="1" data-original="#dde4e7" class=""></path><path fill="#dde4e7" d="M30.557 2.695c.381.22.383.576.005.796-.379.22-.994.22-1.376 0-.38-.22-.383-.576-.004-.796.379-.22.994-.22 1.375 0z" opacity="1" data-original="#dde4e7" class=""></path><path fill="#778c95" d="m30.844 2.316-.003.78c0 .143-.095.286-.283.395-.379.22-.994.22-1.375 0-.192-.11-.288-.256-.287-.4l.003-.78c0 .144.096.29.287.4.381.22.997.22 1.376 0 .188-.11.282-.252.282-.395z" opacity="1" data-original="#778c95"></path><path fill="#dde4e7" d="M30.557 1.915c.381.22.383.576.005.796-.379.22-.994.22-1.376 0-.38-.22-.383-.576-.004-.796.379-.22.994-.22 1.375 0z" opacity="1" data-original="#dde4e7" class=""></path><path fill="#dde4e7" d="m30.844 1.536-.003.78c0 .143-.095.286-.283.395-.379.22-.994.22-1.375 0-.192-.11-.288-.256-.287-.4l.003-.781c0 .145.096.29.287.401.381.22.997.22 1.376 0 .188-.11.282-.252.282-.395z" opacity="1" data-original="#dde4e7" class=""></path><path fill="#dde4e7" d="M30.557 1.135c.381.22.383.576.005.796-.379.22-.994.22-1.376 0-.38-.22-.383-.576-.004-.796.379-.22.994-.22 1.375 0z" opacity="1" data-original="#dde4e7" class=""></path><path fill="#778c95" d="m30.844.755-.003.78c0 .144-.095.287-.283.396-.379.22-.994.22-1.375 0-.192-.11-.288-.256-.287-.4l.003-.781c0 .145.096.29.287.401.381.22.997.22 1.376 0 .188-.11.282-.252.282-.396z" opacity="1" data-original="#778c95"></path><path fill="#dde4e7" d="M30.557.354c.381.22.383.577.005.797-.379.22-.994.22-1.376 0-.38-.22-.383-.577-.004-.797.379-.22.994-.22 1.375 0z" opacity="1" data-original="#dde4e7" class=""></path><path fill="#b0b8bc" d="M30.503.448a1.293 1.293 0 0 0-.634-.151c-.241 0-.466.054-.633.151-.148.085-.229.193-.229.303 0 .088.053.175.15.25a.534.534 0 0 1 .08-.053c.166-.097.391-.151.632-.151s.466.054.634.15c.03.018.059.036.083.057.098-.074.15-.162.15-.25 0-.11-.083-.22-.233-.306z" opacity="1" data-original="#b0b8bc" class=""></path><path fill="#9aa1a5" d="M29.869.797c-.241 0-.466.054-.633.15a.534.534 0 0 0-.079.055.69.69 0 0 0 .083.056c.169.097.394.15.635.15.24 0 .465-.053.633-.15a.622.622 0 0 0 .078-.054.59.59 0 0 0-.083-.056 1.292 1.292 0 0 0-.634-.151z" opacity="1" data-original="#9aa1a5"></path><path fill="#485f69" d="m37.16 14.026-1.948 1.125c-.38.22-.879.33-1.375.33-.498 0-.995-.11-1.373-.33-.375-.218-.563-.504-.564-.79l-.015-5.039c.002.287.19.573.565.79.378.22.874.33 1.372.33.496 0 .995-.11 1.375-.33l1.95-1.124z" opacity="1" data-original="#485f69"></path><path fill="#778c95" d="M32.459 8.521c-.761.44-.765 1.152-.009 1.592.378.22.875.33 1.372.33.497 0 .995-.11 1.375-.33l1.949-1.125-2.738-1.592z" opacity="1" data-original="#778c95"></path><path fill="#dde4e7" d="m34.886 8.39-.004.78c0 .144-.095.287-.283.396-.378.22-.994.22-1.375 0-.192-.11-.287-.256-.287-.401l.004-.78c0 .145.095.29.287.4.381.22.996.22 1.375 0 .188-.109.282-.252.283-.395z" opacity="1" data-original="#dde4e7" class=""></path><path fill="#dde4e7" d="M34.599 7.99c.38.22.383.576.004.796s-.994.22-1.375 0-.383-.577-.005-.797c.379-.22.994-.22 1.376 0z" opacity="1" data-original="#dde4e7" class=""></path><path fill="#778c95" d="m34.886 7.61-.004.78c0 .143-.095.286-.283.396-.378.22-.994.22-1.375 0-.192-.111-.287-.256-.287-.401l.004-.78c0 .145.095.29.287.4.381.22.996.22 1.375 0 .188-.109.282-.252.283-.395z" opacity="1" data-original="#778c95"></path><path fill="#dde4e7" d="M34.599 7.21c.38.22.383.576.004.796-.379.22-.994.22-1.375 0s-.383-.577-.005-.797c.379-.22.994-.22 1.376 0z" opacity="1" data-original="#dde4e7" class=""></path><path fill="#dde4e7" d="m34.886 6.83-.004.78c0 .143-.095.286-.283.396-.378.22-.994.22-1.375 0-.192-.111-.287-.256-.287-.401l.004-.78c0 .145.095.29.287.4.381.22.996.22 1.375 0 .188-.109.282-.252.283-.395z" opacity="1" data-original="#dde4e7" class=""></path><path fill="#dde4e7" d="M34.599 6.429c.38.22.383.576.004.797-.379.22-.994.22-1.375 0s-.383-.577-.005-.797c.379-.22.994-.22 1.376 0z" opacity="1" data-original="#dde4e7" class=""></path><path fill="#778c95" d="m34.886 6.05-.004.78c0 .143-.095.286-.283.396-.378.22-.994.22-1.375 0-.192-.111-.287-.256-.287-.402l.004-.78c0 .145.095.29.287.401.381.22.996.22 1.375 0 .188-.109.282-.252.283-.395z" opacity="1" data-original="#778c95"></path><path fill="#dde4e7" d="M34.599 5.649c.38.22.383.576.004.796-.379.22-.994.22-1.375 0s-.383-.576-.005-.796c.379-.22.994-.22 1.376 0z" opacity="1" data-original="#dde4e7" class=""></path><path fill="#dde4e7" d="m34.886 5.27-.004.78c0 .143-.095.286-.283.395-.378.22-.994.22-1.375 0-.192-.11-.287-.256-.287-.4l.004-.78c0 .144.095.29.287.4.381.22.996.22 1.375 0 .188-.109.282-.252.283-.395z" opacity="1" data-original="#dde4e7" class=""></path><path fill="#dde4e7" d="M34.599 4.869c.38.22.383.576.004.796-.379.22-.994.22-1.375 0s-.383-.576-.005-.796c.379-.22.994-.22 1.376 0z" opacity="1" data-original="#dde4e7" class=""></path><path fill="#778c95" d="m34.886 4.49-.004.78c0 .143-.095.286-.283.395-.378.22-.994.22-1.375 0-.192-.11-.287-.256-.287-.4l.004-.78c0 .144.095.29.287.4.381.22.996.22 1.375 0 .188-.11.282-.252.283-.395z" opacity="1" data-original="#778c95"></path><path fill="#dde4e7" d="M34.599 4.089c.38.22.383.576.004.796-.379.22-.994.22-1.375 0s-.383-.576-.005-.796c.379-.22.994-.22 1.376 0z" opacity="1" data-original="#dde4e7" class=""></path><path fill="#dde4e7" d="m34.886 3.71-.004.78c0 .143-.095.286-.283.395-.378.22-.994.22-1.375 0-.192-.11-.287-.256-.287-.4l.004-.781c0 .145.095.29.287.401.381.22.996.22 1.375 0 .188-.11.282-.252.283-.395z" opacity="1" data-original="#dde4e7" class=""></path><path fill="#dde4e7" d="M34.599 3.308c.38.22.383.577.004.797-.379.22-.994.22-1.375 0s-.383-.576-.005-.797c.379-.22.994-.22 1.376 0z" opacity="1" data-original="#dde4e7" class=""></path><path fill="#778c95" d="m34.886 2.93-.004.78c0 .143-.095.286-.283.395-.378.22-.994.22-1.375 0-.192-.11-.287-.256-.287-.401l.004-.78c0 .145.095.29.287.4.381.22.996.221 1.375 0 .188-.108.282-.251.283-.395z" opacity="1" data-original="#778c95"></path><path fill="#dde4e7" d="M34.599 2.528c.38.22.383.577.004.797-.379.22-.994.22-1.375 0s-.383-.577-.005-.797c.379-.22.994-.22 1.376 0z" opacity="1" data-original="#dde4e7" class=""></path><path fill="#b0b8bc" d="M34.545 2.622a1.293 1.293 0 0 0-.635-.151c-.24 0-.465.054-.632.151-.148.085-.23.193-.23.303 0 .088.054.175.15.25a.535.535 0 0 1 .08-.053c.167-.097.391-.151.632-.151.24 0 .466.054.635.15.03.018.058.036.083.057.097-.075.15-.162.15-.25 0-.11-.083-.22-.233-.306z" opacity="1" data-original="#b0b8bc" class=""></path><path fill="#9aa1a5" d="M33.91 2.97c-.24 0-.465.055-.632.152a.534.534 0 0 0-.08.054.69.69 0 0 0 .084.056c.168.097.394.15.635.15.24 0 .465-.053.632-.15a.623.623 0 0 0 .079-.054.59.59 0 0 0-.083-.056 1.293 1.293 0 0 0-.635-.151z" opacity="1" data-original="#9aa1a5"></path><path fill="#56707b" d="m41.202 16.2-1.949 1.125c-.38.22-.878.33-1.375.33s-.994-.11-1.372-.33c-.376-.218-.564-.504-.565-.79l-.014-5.039c.001.287.189.573.565.79.377.22.874.33 1.371.33s.995-.11 1.375-.33l1.95-1.124z" opacity="1" data-original="#56707b" class=""></path><path fill="#778c95" d="M36.5 10.695c-.76.44-.765 1.152-.009 1.592.379.22.875.33 1.373.33.496 0 .994-.11 1.375-.33l1.948-1.125L38.45 9.57z" opacity="1" data-original="#778c95"></path><path fill="#dde4e7" d="m38.927 10.564-.004.78c0 .143-.094.286-.282.396-.379.22-.994.22-1.375 0-.192-.11-.288-.256-.288-.401l.004-.78c0 .145.096.29.287.4.381.22.997.22 1.376 0 .188-.109.282-.252.282-.395z" opacity="1" data-original="#dde4e7" class=""></path><path fill="#dde4e7" d="M38.64 10.163c.381.22.383.577.005.797-.38.22-.995.22-1.376 0-.38-.22-.383-.577-.004-.797.378-.22.994-.22 1.375 0z" opacity="1" data-original="#dde4e7" class=""></path><path fill="#778c95" d="m38.927 9.784-.004.78c0 .143-.094.286-.282.396-.379.22-.994.22-1.375 0-.192-.111-.288-.256-.288-.401l.004-.78c0 .145.096.29.287.4.381.22.997.22 1.376 0 .188-.109.282-.252.282-.395z" opacity="1" data-original="#778c95"></path><path fill="#dde4e7" d="M38.64 9.383c.381.22.383.577.005.797-.38.22-.995.22-1.376 0s-.383-.577-.004-.797.994-.22 1.375 0z" opacity="1" data-original="#dde4e7" class=""></path><path fill="#dde4e7" d="m38.927 9.004-.004.78c0 .143-.094.286-.282.396-.379.22-.994.22-1.375 0-.192-.111-.288-.256-.288-.402l.004-.78c0 .145.096.29.287.401.381.22.997.22 1.376 0 .188-.109.282-.252.282-.395z" opacity="1" data-original="#dde4e7" class=""></path><path fill="#dde4e7" d="M38.64 8.603c.381.22.383.576.005.796-.38.22-.995.22-1.376 0-.38-.22-.383-.576-.004-.796.378-.22.994-.22 1.375 0z" opacity="1" data-original="#dde4e7" class=""></path><path fill="#778c95" d="m38.927 8.224-.004.78c0 .143-.094.286-.282.395-.379.22-.994.22-1.375 0-.192-.11-.288-.256-.288-.4l.004-.78c0 .144.096.29.287.4.381.22.997.22 1.376 0 .188-.109.282-.252.282-.395z" opacity="1" data-original="#778c95"></path><path fill="#dde4e7" d="M38.64 7.823c.381.22.383.576.005.796-.38.22-.995.22-1.376 0s-.383-.576-.004-.796.994-.22 1.375 0z" opacity="1" data-original="#dde4e7" class=""></path><path fill="#dde4e7" d="m38.927 7.444-.004.78c0 .143-.094.286-.282.395-.379.22-.994.22-1.375 0-.192-.11-.288-.256-.288-.4l.004-.78c0 .144.096.29.287.4.381.22.997.22 1.376 0 .188-.11.282-.252.282-.395z" opacity="1" data-original="#dde4e7" class=""></path><path fill="#dde4e7" d="M38.64 7.043c.381.22.383.576.005.796-.38.22-.995.22-1.376 0-.38-.22-.383-.576-.004-.796s.994-.22 1.375 0z" opacity="1" data-original="#dde4e7" class=""></path><path fill="#778c95" d="m38.927 6.664-.004.78c0 .143-.094.286-.282.395-.379.22-.994.22-1.375 0-.192-.11-.288-.256-.288-.4l.004-.781c0 .145.096.29.287.401.381.22.997.22 1.376 0 .188-.11.282-.252.282-.395z" opacity="1" data-original="#778c95"></path><path fill="#dde4e7" d="M38.64 6.263c.381.22.383.576.005.796-.38.22-.995.22-1.376 0-.38-.22-.383-.576-.004-.796s.994-.22 1.375 0z" opacity="1" data-original="#dde4e7" class=""></path><path fill="#dde4e7" d="m38.927 5.883-.004.78c0 .144-.094.287-.282.396-.379.22-.994.22-1.375 0-.192-.11-.288-.256-.288-.401l.004-.78c0 .145.096.29.287.401.381.22.997.22 1.376 0 .188-.11.282-.252.282-.396z" opacity="1" data-original="#dde4e7" class=""></path><path fill="#dde4e7" d="M38.64 5.482c.381.22.383.577.005.797-.38.22-.995.22-1.376 0-.38-.22-.383-.577-.004-.797s.994-.22 1.375 0z" opacity="1" data-original="#dde4e7" class=""></path><path fill="#778c95" d="m38.927 5.103-.004.78c0 .144-.094.287-.282.396-.379.22-.994.22-1.375 0-.192-.11-.288-.256-.288-.401l.004-.78c0 .145.096.29.287.4.381.22.997.22 1.376 0 .188-.108.282-.251.282-.395z" opacity="1" data-original="#778c95"></path><path fill="#dde4e7" d="M38.64 4.702c.381.22.383.577.005.797-.38.22-.995.22-1.376 0-.38-.22-.383-.577-.004-.797s.994-.22 1.375 0z" opacity="1" data-original="#dde4e7" class=""></path><path fill="#b0b8bc" d="M38.586 4.796a1.293 1.293 0 0 0-.634-.151c-.241 0-.466.054-.633.151-.148.085-.229.193-.229.303 0 .088.053.175.15.25a.534.534 0 0 1 .08-.053c.166-.097.39-.151.632-.151s.466.054.634.15c.03.018.059.036.083.057.098-.075.15-.162.15-.25 0-.11-.083-.22-.233-.306z" opacity="1" data-original="#b0b8bc" class=""></path><path fill="#9aa1a5" d="M37.952 5.145c-.241 0-.466.054-.633.15a.533.533 0 0 0-.079.055.69.69 0 0 0 .083.056c.169.097.394.15.635.15.24 0 .465-.053.633-.15a.622.622 0 0 0 .078-.054.59.59 0 0 0-.083-.056 1.293 1.293 0 0 0-.634-.151z" opacity="1" data-original="#9aa1a5"></path><path fill="#b0b8bc" d="m28.843 24.057-.006 2.071-2.09 1.215.006-2.072z" opacity="1" data-original="#b0b8bc" class=""></path><path fill="#cfd8dd" d="m26.753 25.271-.006 2.072-3.885-2.243.006-2.072z" opacity="1" data-original="#cfd8dd" class=""></path><path fill="#dde4e7" d="m28.843 24.057-2.09 1.214-3.885-2.243 2.09-1.215z" opacity="1" data-original="#dde4e7" class=""></path><path fill="#b0b8bc" d="m26.385 25.508-.006 2.072-2.09 1.214.006-2.071z" opacity="1" data-original="#b0b8bc" class=""></path><path fill="#cfd8dd" d="m24.295 26.723-.006 2.071-3.885-2.243.006-2.072z" opacity="1" data-original="#cfd8dd" class=""></path><path fill="#dde4e7" d="m26.385 25.508-2.09 1.215-3.885-2.244 2.09-1.214z" opacity="1" data-original="#dde4e7" class=""></path><path fill="#b0b8bc" d="m23.927 26.96-.006 2.071-2.09 1.215.006-2.072z" opacity="1" data-original="#b0b8bc" class=""></path><path fill="#cfd8dd" d="m21.837 28.174-.006 2.072-3.885-2.243.006-2.072z" opacity="1" data-original="#cfd8dd" class=""></path><path fill="#dde4e7" d="m23.927 26.96-2.09 1.214-3.885-2.243 2.09-1.215z" opacity="1" data-original="#dde4e7" class=""></path><path fill="#b0b8bc" d="m28.843 21.829-.006 2.072-2.09 1.214.006-2.072z" opacity="1" data-original="#b0b8bc" class=""></path><path fill="#cfd8dd" d="m26.753 23.043-.006 2.072-3.885-2.243.006-2.072z" opacity="1" data-original="#cfd8dd" class=""></path><path fill="#dde4e7" d="m28.843 21.829-2.09 1.214-3.885-2.243 2.09-1.214z" opacity="1" data-original="#dde4e7" class=""></path><path fill="#b0b8bc" d="m26.385 23.28-.006 2.072-2.09 1.215.006-2.072z" opacity="1" data-original="#b0b8bc" class=""></path><path fill="#cfd8dd" d="m24.295 24.495-.006 2.072-3.885-2.244.006-2.071z" opacity="1" data-original="#cfd8dd" class=""></path><path fill="#dde4e7" d="m26.385 23.28-2.09 1.215-3.885-2.243 2.09-1.215z" opacity="1" data-original="#dde4e7" class=""></path><path fill="#b0b8bc" d="m23.927 24.732-.006 2.072-2.09 1.214.006-2.072z" opacity="1" data-original="#b0b8bc" class=""></path><path fill="#cfd8dd" d="m21.837 25.946-.006 2.072-3.885-2.243.006-2.072z" opacity="1" data-original="#cfd8dd" class=""></path><path fill="#dde4e7" d="m23.927 24.732-2.09 1.214-3.885-2.243 2.09-1.214z" opacity="1" data-original="#dde4e7" class=""></path><path fill="#b0b8bc" d="m28.843 19.601-.006 2.072-2.09 1.214.006-2.071z" opacity="1" data-original="#b0b8bc" class=""></path><path fill="#cfd8dd" d="m26.753 20.816-.006 2.071-3.885-2.243.006-2.072z" opacity="1" data-original="#cfd8dd" class=""></path><path fill="#dde4e7" d="m28.843 19.601-2.09 1.215-3.885-2.244 2.09-1.214z" opacity="1" data-original="#dde4e7" class=""></path><path fill="#b0b8bc" d="m26.385 21.053-.006 2.071-2.09 1.215.006-2.072z" opacity="1" data-original="#b0b8bc" class=""></path><path fill="#cfd8dd" d="m24.295 22.267-.006 2.072-3.885-2.243.006-2.072z" opacity="1" data-original="#cfd8dd" class=""></path><path fill="#dde4e7" d="m26.385 21.053-2.09 1.214-3.885-2.243 2.09-1.215z" opacity="1" data-original="#dde4e7" class=""></path><path fill="#b0b8bc" d="m23.927 22.504-.006 2.072-2.09 1.214.006-2.071z" opacity="1" data-original="#b0b8bc" class=""></path><path fill="#cfd8dd" d="m21.837 23.718-.006 2.072-3.885-2.243.006-2.072z" opacity="1" data-original="#cfd8dd" class=""></path><path fill="#dde4e7" d="m23.927 22.504-2.09 1.214-3.885-2.243 2.09-1.214z" opacity="1" data-original="#dde4e7" class=""></path><path fill="#cb4844" d="m20.688 28.442-.006 2.072-2.09 1.214.006-2.072z" opacity="1" data-original="#cb4844" class=""></path><path fill="#ee5550" d="m18.598 29.656-.005 2.072-3.886-2.243.006-2.072z" opacity="1" data-original="#ee5550" class=""></path><path fill="#f17572" d="m20.688 28.442-2.09 1.214-3.885-2.243 2.09-1.214z" opacity="1" data-original="#f17572" class=""></path><path fill="#cb4844" d="m18.23 29.893-.005 2.072-2.09 1.215.006-2.072z" opacity="1" data-original="#cb4844" class=""></path><path fill="#ee5550" d="m16.14 31.108-.005 2.072-3.885-2.244.005-2.071z" opacity="1" data-original="#ee5550" class=""></path><path fill="#f17572" d="m18.23 29.893-2.09 1.215-3.885-2.243 2.09-1.215z" opacity="1" data-original="#f17572" class=""></path><path fill="#cb4844" d="m15.773 31.345-.006 2.072-2.09 1.214.006-2.072z" opacity="1" data-original="#cb4844" class=""></path><path fill="#ee5550" d="m13.683 32.56-.006 2.071-3.885-2.243.006-2.072z" opacity="1" data-original="#ee5550" class=""></path><path fill="#f17572" d="m15.773 31.345-2.09 1.214-3.885-2.243 2.09-1.214z" opacity="1" data-original="#f17572" class=""></path><path fill="#cb4844" d="m20.688 26.214-.006 2.072-2.09 1.214.006-2.071z" opacity="1" data-original="#cb4844" class=""></path><path fill="#ee5550" d="m18.598 27.429-.005 2.071-3.886-2.243.006-2.072z" opacity="1" data-original="#ee5550" class=""></path><path fill="#f17572" d="m20.688 26.214-2.09 1.215-3.885-2.244 2.09-1.214z" opacity="1" data-original="#f17572" class=""></path><path fill="#cb4844" d="m18.23 27.666-.005 2.071-2.09 1.215.006-2.072z" opacity="1" data-original="#cb4844" class=""></path><path fill="#ee5550" d="m16.14 28.88-.005 2.072-3.885-2.243.005-2.072z" opacity="1" data-original="#ee5550" class=""></path><path fill="#f17572" d="m18.23 27.666-2.09 1.214-3.885-2.243 2.09-1.215z" opacity="1" data-original="#f17572" class=""></path><path fill="#cb4844" d="m15.773 29.117-.006 2.072-2.09 1.214.006-2.071z" opacity="1" data-original="#cb4844" class=""></path><path fill="#ee5550" d="m13.683 30.331-.006 2.072-3.885-2.243.006-2.072z" opacity="1" data-original="#ee5550" class=""></path><path fill="#f17572" d="m15.773 29.117-2.09 1.214-3.885-2.243 2.09-1.214z" opacity="1" data-original="#f17572" class=""></path><path fill="#cb4844" d="m20.688 23.986-.006 2.072-2.09 1.215.006-2.072z" opacity="1" data-original="#cb4844" class=""></path><path fill="#ee5550" d="m18.598 25.2-.005 2.073-3.886-2.244.006-2.071z" opacity="1" data-original="#ee5550" class=""></path><path fill="#f17572" d="m20.688 23.986-2.09 1.215-3.885-2.243 2.09-1.215z" opacity="1" data-original="#f17572" class=""></path><path fill="#cb4844" d="m18.23 25.438-.005 2.072-2.09 1.214.006-2.072z" opacity="1" data-original="#cb4844" class=""></path><path fill="#ee5550" d="m16.14 26.652-.005 2.072-3.885-2.243.005-2.072z" opacity="1" data-original="#ee5550" class=""></path><path fill="#f17572" d="m18.23 25.438-2.09 1.214-3.885-2.243 2.09-1.214z" opacity="1" data-original="#f17572" class=""></path><path fill="#cb4844" d="m15.773 26.89-.006 2.071-2.09 1.215.006-2.072z" opacity="1" data-original="#cb4844" class=""></path><path fill="#ee5550" d="m13.683 28.104-.006 2.071-3.885-2.243.006-2.071z" opacity="1" data-original="#ee5550" class=""></path><path fill="#f17572" d="m15.773 26.89-2.09 1.214-3.885-2.243 2.09-1.215z" opacity="1" data-original="#f17572" class=""></path><path fill="#cb4844" d="m33.388 27.076-.006 2.072-2.09 1.214.006-2.072z" opacity="1" data-original="#cb4844" class=""></path><path fill="#ee5550" d="m31.298 28.29-.006 2.072-3.885-2.243.006-2.072z" opacity="1" data-original="#ee5550" class=""></path><path fill="#f17572" d="m33.388 27.076-2.09 1.214-3.885-2.243 2.09-1.214z" opacity="1" data-original="#f17572" class=""></path><path fill="#cb4844" d="m30.93 28.527-.006 2.072-2.09 1.215.006-2.072z" opacity="1" data-original="#cb4844" class=""></path><path fill="#ee5550" d="m28.84 29.742-.006 2.072-3.885-2.243.006-2.072z" opacity="1" data-original="#ee5550" class=""></path><path fill="#f17572" d="m30.93 28.527-2.09 1.215-3.885-2.243 2.09-1.215z" opacity="1" data-original="#f17572" class=""></path><path fill="#cb4844" d="m28.472 29.979-.006 2.072-2.09 1.214.006-2.072z" opacity="1" data-original="#cb4844" class=""></path><path fill="#ee5550" d="m26.382 31.193-.006 2.072-3.885-2.243.006-2.072z" opacity="1" data-original="#ee5550" class=""></path><path fill="#f17572" d="m28.472 29.979-2.09 1.214-3.885-2.243 2.09-1.214z" opacity="1" data-original="#f17572" class=""></path><path fill="#cb4844" d="m33.388 24.848-.006 2.072-2.09 1.214.006-2.071z" opacity="1" data-original="#cb4844" class=""></path><path fill="#ee5550" d="m31.298 26.063-.006 2.071-3.885-2.243.006-2.071z" opacity="1" data-original="#ee5550" class=""></path><path fill="#f17572" d="m33.388 24.848-2.09 1.215-3.885-2.243 2.09-1.215z" opacity="1" data-original="#f17572" class=""></path><path fill="#cb4844" d="m30.93 26.3-.006 2.071-2.09 1.215.006-2.072z" opacity="1" data-original="#cb4844" class=""></path><path fill="#ee5550" d="m28.84 27.514-.006 2.072-3.885-2.243.006-2.072z" opacity="1" data-original="#ee5550" class=""></path><path fill="#f17572" d="m30.93 26.3-2.09 1.214-3.885-2.243 2.09-1.214z" opacity="1" data-original="#f17572" class=""></path><path fill="#cb4844" d="m28.472 27.751-.006 2.072-2.09 1.214.006-2.071z" opacity="1" data-original="#cb4844" class=""></path><path fill="#ee5550" d="m26.382 28.966-.006 2.071-3.885-2.243.006-2.071z" opacity="1" data-original="#ee5550" class=""></path><path fill="#f17572" d="m28.472 27.751-2.09 1.215-3.885-2.243 2.09-1.215z" opacity="1" data-original="#f17572" class=""></path><path fill="#cb4844" d="m33.388 22.62-.006 2.072-2.09 1.215.006-2.072z" opacity="1" data-original="#cb4844" class=""></path><path fill="#ee5550" d="m31.298 23.835-.006 2.072-3.885-2.243.006-2.072z" opacity="1" data-original="#ee5550" class=""></path><path fill="#f17572" d="m33.388 22.62-2.09 1.215-3.885-2.243 2.09-1.215z" opacity="1" data-original="#f17572" class=""></path><path fill="#cb4844" d="m30.93 24.072-.006 2.072-2.09 1.214.006-2.072z" opacity="1" data-original="#cb4844" class=""></path><path fill="#ee5550" d="m28.84 25.286-.006 2.072-3.885-2.243.006-2.072z" opacity="1" data-original="#ee5550" class=""></path><path fill="#f17572" d="m30.93 24.072-2.09 1.214-3.885-2.243 2.09-1.214z" opacity="1" data-original="#f17572" class=""></path><path fill="#cb4844" d="m28.472 25.523-.006 2.072-2.09 1.215.006-2.072z" opacity="1" data-original="#cb4844" class=""></path><path fill="#ee5550" d="m26.382 26.738-.006 2.072-3.885-2.243.006-2.072z" opacity="1" data-original="#ee5550" class=""></path><path fill="#f17572" d="m28.472 25.523-2.09 1.215-3.885-2.243 2.09-1.215z" opacity="1" data-original="#f17572" class=""></path><path fill="#525ba8" d="m25.63 31.6-.005 2.071-2.09 1.215.006-2.072z" opacity="1" data-original="#525ba8"></path><path fill="#616ab1" d="m23.54 32.814-.005 2.072-3.885-2.243.005-2.072z" opacity="1" data-original="#616ab1"></path><path fill="#8189c3" d="m25.63 31.6-2.09 1.214-3.885-2.243 2.09-1.215z" opacity="1" data-original="#8189c3"></path><path fill="#525ba8" d="m23.173 33.051-.006 2.072-2.09 1.214.006-2.071z" opacity="1" data-original="#525ba8"></path><path fill="#616ab1" d="m21.083 34.266-.006 2.071-3.885-2.243.006-2.072z" opacity="1" data-original="#616ab1"></path><path fill="#8189c3" d="m23.173 33.051-2.09 1.214-3.885-2.243 2.09-1.214z" opacity="1" data-original="#8189c3"></path><path fill="#525ba8" d="m20.715 34.503-.006 2.071-2.09 1.215.006-2.072z" opacity="1" data-original="#525ba8"></path><path fill="#616ab1" d="m18.625 35.717-.006 2.072-3.885-2.243.006-2.072z" opacity="1" data-original="#616ab1"></path><path fill="#8189c3" d="m20.715 34.503-2.09 1.214-3.885-2.243 2.09-1.215z" opacity="1" data-original="#8189c3"></path><path fill="#525ba8" d="m25.63 29.372-.005 2.072-2.09 1.214.006-2.072z" opacity="1" data-original="#525ba8"></path><path fill="#616ab1" d="m23.54 30.586-.005 2.072-3.885-2.243.005-2.072z" opacity="1" data-original="#616ab1"></path><path fill="#8189c3" d="m25.63 29.372-2.09 1.214-3.885-2.243 2.09-1.214z" opacity="1" data-original="#8189c3"></path><path fill="#525ba8" d="m23.173 30.823-.006 2.072-2.09 1.214.006-2.071z" opacity="1" data-original="#525ba8"></path><path fill="#616ab1" d="m21.083 32.038-.006 2.071-3.885-2.243.006-2.071z" opacity="1" data-original="#616ab1"></path><path fill="#8189c3" d="m23.173 30.823-2.09 1.215-3.885-2.243 2.09-1.215z" opacity="1" data-original="#8189c3"></path><path fill="#525ba8" d="m20.715 32.275-.006 2.072-2.09 1.214.006-2.072z" opacity="1" data-original="#525ba8"></path><path fill="#616ab1" d="m18.625 33.49-.006 2.071-3.885-2.243.006-2.072z" opacity="1" data-original="#616ab1"></path><path fill="#8189c3" d="m20.715 32.275-2.09 1.214-3.885-2.243 2.09-1.214z" opacity="1" data-original="#8189c3"></path><path fill="#525ba8" d="m25.63 27.144-.005 2.072-2.09 1.214.006-2.072z" opacity="1" data-original="#525ba8"></path><path fill="#616ab1" d="m23.54 28.358-.005 2.072-3.885-2.243.005-2.072z" opacity="1" data-original="#616ab1"></path><path fill="#8189c3" d="m25.63 27.144-2.09 1.214-3.885-2.243 2.09-1.214z" opacity="1" data-original="#8189c3"></path><path fill="#525ba8" d="m23.173 28.595-.006 2.072-2.09 1.215.006-2.072z" opacity="1" data-original="#525ba8"></path><path fill="#616ab1" d="m21.083 29.81-.006 2.072-3.885-2.243.006-2.072z" opacity="1" data-original="#616ab1"></path><path fill="#8189c3" d="m23.173 28.595-2.09 1.215-3.885-2.243 2.09-1.215z" opacity="1" data-original="#8189c3"></path><path fill="#525ba8" d="m20.715 30.047-.006 2.072-2.09 1.214.006-2.072z" opacity="1" data-original="#525ba8"></path><path fill="#616ab1" d="m18.625 31.261-.006 2.072-3.885-2.243.006-2.072z" opacity="1" data-original="#616ab1"></path><path fill="#8189c3" d="m20.715 30.047-2.09 1.214-3.885-2.243 2.09-1.214z" opacity="1" data-original="#8189c3"></path></g></svg>