<svg xmlns="http://www.w3.org/2000/svg" version="1.1" xmlns:xlink="http://www.w3.org/1999/xlink" width="512" height="512" x="0" y="0" viewBox="0 0 64 64" style="enable-background:new 0 0 512 512" xml:space="preserve" class=""><g><path fill="#ccd1d9" d="M22 46a2 2 0 0 1 2 2c0 1.11-.89 2-2 2a2 2 0 1 1 0-4z" opacity="1" data-original="#ccd1d9"></path><path fill="#656d78" d="M22 42c3.32 0 6 2.69 6 6s-2.68 6-6 6c-3.31 0-6-2.69-6-6s2.69-6 6-6zm2 6a2 2 0 1 0-2 2c1.11 0 2-.89 2-2z" opacity="1" data-original="#656d78" class=""></path><path fill="#ccd1d9" d="M52 46a2 2 0 0 1 2 2c0 1.11-.89 2-2 2a2 2 0 1 1 0-4z" opacity="1" data-original="#ccd1d9"></path><path fill="#656d78" d="M52 42c3.32 0 6 2.69 6 6s-2.68 6-6 6c-3.31 0-6-2.69-6-6s2.69-6 6-6zm2 6a2 2 0 1 0-2 2c1.11 0 2-.89 2-2z" opacity="1" data-original="#656d78" class=""></path><path fill="#5d9cec" d="m48 25 1 8h-4l-1-8z" opacity="1" data-original="#5d9cec" class=""></path><path fill="#5d9cec" d="M53.08 25 58 33h-9l-1-8z" opacity="1" data-original="#5d9cec" class=""></path><path fill="#e6e9ed" d="M39.95 22H55l8 13v13h-5c0-3.31-2.68-6-6-6-3.31 0-6 2.69-6 6H28c0-3.31-2.68-6-6-6-3.31 0-6 2.69-6 6h-5l-.79-10h31zM44 25l1 8h13l-4.92-8H48z" opacity="1" data-original="#e6e9ed" class=""></path><path fill="#c3202b" d="m9.82 33-.48-6-.47-6-.479-6L8 10h31l.95 12 1.26 16h-31z" opacity="1" data-original="#ed5565" class=""></path><path d="M63 43a1 1 0 0 1-1-1v-7a1 1 0 1 1 2 0v7a1 1 0 0 1-1 1z" fill="#000000" opacity="1" data-original="#000000" class=""></path><path d="M63.001 36a1 1 0 0 1-.853-.476l-8-13a1 1 0 0 1 1.703-1.049l8 13a1 1 0 0 1-.85 1.525zM58.001 34a1 1 0 0 1-.853-.476l-4.924-8.002a1 1 0 1 1 1.703-1.049l4.924 8.002a1 1 0 0 1-.85 1.525z" fill="#000000" opacity="1" data-original="#000000" class=""></path><path d="M55 23H39.947a1 1 0 1 1 0-2H55a1 1 0 1 1 0 2zM41.21 39.002 10.211 39a1 1 0 1 1 0-2l30.999.002a1 1 0 1 1 0 2z" fill="#000000" opacity="1" data-original="#000000" class=""></path><path d="M10.999 49a1 1 0 0 1-.996-.921l-3-38a1.001 1.001 0 0 1 1.994-.158l3 38A1.001 1.001 0 0 1 10.999 49zM41.209 39.002a1 1 0 0 1-.996-.921l-2.21-28.002a1.001 1.001 0 0 1 1.994-.158l2.21 28.002a1.001 1.001 0 0 1-.998 1.079z" fill="#000000" opacity="1" data-original="#000000" class=""></path><path d="M38.783 11H8a1 1 0 1 1 0-2h30.783a1 1 0 1 1 0 2zM45 49H29a1 1 0 1 1 0-2h16a1 1 0 1 1 0 2zM63 49a1 1 0 0 1-1-1v-6a1 1 0 1 1 2 0v6a1 1 0 0 1-1 1zM52 51c-1.654 0-3-1.346-3-3s1.346-3 3-3 3 1.346 3 3-1.346 3-3 3zm0-4a1 1 0 1 0 0 2 1 1 0 0 0 0-2z" fill="#000000" opacity="1" data-original="#000000" class=""></path><path d="M52 55c-3.859 0-7-3.141-7-7s3.141-7 7-7 7 3.141 7 7-3.141 7-7 7zm0-12c-2.757 0-5 2.243-5 5s2.243 5 5 5 5-2.243 5-5-2.243-5-5-5zM22 51c-1.654 0-3-1.346-3-3s1.346-3 3-3 3 1.346 3 3-1.346 3-3 3zm0-4a1 1 0 1 0 0 2 1 1 0 0 0 0-2z" fill="#000000" opacity="1" data-original="#000000" class=""></path><path d="M22 55c-3.859 0-7-3.141-7-7s3.141-7 7-7 7 3.141 7 7-3.141 7-7 7zm0-12c-2.757 0-5 2.243-5 5s2.243 5 5 5 5-2.243 5-5-2.243-5-5-5z" fill="#000000" opacity="1" data-original="#000000" class=""></path><path d="M15 49h-4a1 1 0 1 1 0-2h4a1 1 0 1 1 0 2zM63 49h-4a1 1 0 1 1 0-2h4a1 1 0 1 1 0 2zM44.999 34a1 1 0 0 1-.991-.876l-1-8a1 1 0 1 1 1.984-.248l1 8A1 1 0 0 1 44.999 34z" fill="#000000" opacity="1" data-original="#000000" class=""></path><path d="M58 34H45a1 1 0 1 1 0-2h13a1 1 0 1 1 0 2zM53.076 26H44a1 1 0 1 1 0-2h9.076a1 1 0 1 1 0 2z" fill="#000000" opacity="1" data-original="#000000" class=""></path><path d="M48.999 34a1 1 0 0 1-.991-.876l-1-8.002a1 1 0 1 1 1.984-.248l1 8.002A1 1 0 0 1 48.999 34zM46 38h-1a1 1 0 1 1 0-2h1a1 1 0 1 1 0 2zM16 22H1a1 1 0 1 1 0-2h15a1 1 0 1 1 0 2zM9.82 34H5a1 1 0 1 1 0-2h4.82a1 1 0 1 1 0 2zM22 22h-2a1 1 0 1 1 0-2h2a1 1 0 1 1 0 2zM4 28H2a1 1 0 1 1 0-2h2a1 1 0 1 1 0 2zM18 28H7a1 1 0 1 1 0-2h11a1 1 0 1 1 0 2zM14 16H5a1 1 0 1 1 0-2h9a1 1 0 1 1 0 2z" fill="#000000" opacity="1" data-original="#000000" class=""></path></g></svg>