<svg xmlns="http://www.w3.org/2000/svg" version="1.1" xmlns:xlink="http://www.w3.org/1999/xlink" width="512" height="512" x="0" y="0" viewBox="0 0 682.667 682.667" style="enable-background:new 0 0 512 512" xml:space="preserve" class=""><g><defs><clipPath id="a" clipPathUnits="userSpaceOnUse"><path d="M0 512h512V0H0Z" fill="#000000" opacity="1" data-original="#000000"></path></clipPath></defs><g clip-path="url(#a)" transform="matrix(1.33333 0 0 -1.33333 0 682.667)"><path d="M0 0h-477c-5.523 0-10 4.477-10 10v200.362c0 118.742 96.259 215 215 215h67c118.741 0 215-96.258 215-215V10C10 4.477 5.523 0 0 0" style="fill-opacity:1;fill-rule:nonzero;stroke:none" transform="translate(494.5 7.5)" fill="#f1f6f7" data-original="#f1f6f7" class=""></path><path d="M0 0h-33.421a139.615 139.615 0 0 1-6.932-43.539c0-77.293 62.883-140.176 140.177-140.176 39.994 0 76.127 16.84 101.69 43.797C171.055-58.204 92.329 0 0 0" style="fill-opacity:1;fill-rule:nonzero;stroke:none" transform="translate(289.5 432.862)" fill="#d2e4e7" data-original="#d2e4e7" class=""></path><path d="M0 0v200.362c0 118.742 96.259 215 215 215h-32.647c-118.742 0-215-96.258-215-215V0c0-5.523 4.477-10 10-10H10C4.477-10 0-5.523 0 0" style="fill-opacity:1;fill-rule:nonzero;stroke:none" transform="translate(40.148 17.5)" fill="#d2e4e7" data-original="#d2e4e7" class=""></path><path d="M0 0v45.182c0 118.741 96.259 215 215 215h67c82.656 0 154.417-46.642 190.4-115.043" style="stroke-width:15;stroke-linecap:round;stroke-linejoin:round;stroke-miterlimit:10;stroke-dasharray:none;stroke-opacity:1" transform="translate(7.5 172.68)" fill="none" stroke="#000000" stroke-width="15" stroke-linecap="round" stroke-linejoin="round" stroke-miterlimit="10" stroke-dasharray="none" stroke-opacity="" data-original="#000000" class=""></path><path d="M0 0c7.203-21.483 11.105-44.481 11.105-68.39v-200.362c0-5.523-4.477-10-10-10h-477c-5.522 0-10 4.477-10 10v118.7" style="stroke-width:15;stroke-linecap:round;stroke-linejoin:round;stroke-miterlimit:10;stroke-dasharray:none;stroke-opacity:1" transform="translate(493.394 286.252)" fill="none" stroke="#000000" stroke-width="15" stroke-linecap="round" stroke-linejoin="round" stroke-miterlimit="10" stroke-dasharray="none" stroke-opacity="" data-original="#000000" class=""></path><path d="M426.002 7.5H85.998v212.681h340.004z" style="fill-opacity:1;fill-rule:nonzero;stroke:none" fill="#8c1d1e" data-original="#3b68b0" class="" opacity="1"></path><path d="M85.998 7.5h29.458v212.681H85.998Z" style="fill-opacity:1;fill-rule:nonzero;stroke:none" fill="#8c1d1e" data-original="#335a97" class="" opacity="1"></path><path d="M0 0v-63.945h-340.004v212.681H0V34.275" style="stroke-width:15;stroke-linecap:round;stroke-linejoin:round;stroke-miterlimit:10;stroke-dasharray:none;stroke-opacity:1" transform="translate(426.002 71.445)" fill="none" stroke="#000000" stroke-width="15" stroke-linecap="round" stroke-linejoin="round" stroke-miterlimit="10" stroke-dasharray="none" stroke-opacity="" data-original="#000000" class=""></path><path d="M0 0h-340.004v25.012c0 5.523 4.478 10 10 10H-10c5.522 0 10-4.477 10-10z" style="fill-opacity:1;fill-rule:nonzero;stroke:none" transform="translate(426.002 205.44)" fill="#a93d3e" data-original="#7398d4" class="" opacity="1"></path><path d="M0 0h-29.458c-5.522 0-10-4.477-10-10v-25.012H-10V-10C-10-4.477-5.523 0 0 0" style="fill-opacity:1;fill-rule:nonzero;stroke:none" transform="translate(125.456 240.452)" fill="#a93d3e" data-original="#4377c4" class="" opacity="1"></path><path d="M0 0h-340.004v25.012c0 5.523 4.478 10 10 10H-10c5.522 0 10-4.477 10-10z" style="stroke-width:15;stroke-linecap:round;stroke-linejoin:round;stroke-miterlimit:10;stroke-dasharray:none;stroke-opacity:1" transform="translate(426.002 205.44)" fill="none" stroke="#000000" stroke-width="15" stroke-linecap="round" stroke-linejoin="round" stroke-miterlimit="10" stroke-dasharray="none" stroke-opacity="" data-original="#000000" class=""></path><path d="M0 0c-63.61 0-115.176 51.566-115.176 115.176 0 63.611 51.566 115.177 115.176 115.177s115.176-51.566 115.176-115.177C115.176 51.566 63.61 0 0 0" style="fill-opacity:1;fill-rule:nonzero;stroke:none" transform="translate(389.324 274.147)" fill="#ffd064" data-original="#ffd064"></path><path d="M0 0c0 57.737 42.484 105.548 97.896 113.886a116.093 116.093 0 0 1-17.28 1.29C17.006 115.176-34.56 63.61-34.56 0S17.006-115.176 80.616-115.176c5.874 0 11.643.442 17.28 1.29C42.484-105.548 0-57.737 0 0" style="fill-opacity:1;fill-rule:nonzero;stroke:none" transform="translate(308.707 389.324)" fill="#ffc250" data-original="#ffc250" class=""></path><path d="M0 0c-44.523 0-80.616-36.093-80.616-80.616 0-44.523 36.093-80.616 80.616-80.616 44.523 0 80.616 36.093 80.616 80.616C80.616-36.093 44.523 0 0 0" style="fill-opacity:1;fill-rule:nonzero;stroke:none" transform="translate(389.324 469.94)" fill="#fff9df" data-original="#fff9df"></path><path d="M0 0c0 40.949 30.539 74.743 70.08 79.909-3.452.45-6.964.707-10.538.707C15.02 80.616-21.074 44.523-21.074 0c0-44.523 36.094-80.616 80.616-80.616 3.574 0 7.086.257 10.538.708C30.539-74.743 0-40.949 0 0" style="fill-opacity:1;fill-rule:nonzero;stroke:none" transform="translate(329.781 389.324)" fill="#fff0af" data-original="#fff0af"></path><path d="M0 0v0c-44.523 0-80.616-36.093-80.616-80.616 0-44.523 36.093-80.616 80.616-80.616 44.523 0 80.616 36.093 80.616 80.616C80.616-36.093 44.523 0 0 0Z" style="stroke-width:15;stroke-linecap:round;stroke-linejoin:round;stroke-miterlimit:10;stroke-dasharray:none;stroke-opacity:1" transform="translate(389.324 469.94)" fill="none" stroke="#000000" stroke-width="15" stroke-linecap="round" stroke-linejoin="round" stroke-miterlimit="10" stroke-dasharray="none" stroke-opacity="" data-original="#000000" class=""></path><path d="M0 0v0c-63.61 0-115.176 51.566-115.176 115.176 0 63.611 51.566 115.177 115.176 115.177s115.176-51.566 115.176-115.177C115.176 51.566 63.61 0 0 0Z" style="stroke-width:15;stroke-linecap:round;stroke-linejoin:round;stroke-miterlimit:10;stroke-dasharray:none;stroke-opacity:1" transform="translate(389.324 274.147)" fill="none" stroke="#000000" stroke-width="15" stroke-linecap="round" stroke-linejoin="round" stroke-miterlimit="10" stroke-dasharray="none" stroke-opacity="" data-original="#000000" class=""></path><path d="M0 0v-24.216l13.236-12.432" style="stroke-width:15;stroke-linecap:round;stroke-linejoin:round;stroke-miterlimit:10;stroke-dasharray:none;stroke-opacity:1" transform="translate(389.324 413.54)" fill="none" stroke="#000000" stroke-width="15" stroke-linecap="round" stroke-linejoin="round" stroke-miterlimit="10" stroke-dasharray="none" stroke-opacity="" data-original="#000000" class=""></path><path d="M0 0v0" style="stroke-width:15;stroke-linecap:round;stroke-linejoin:round;stroke-miterlimit:10;stroke-dasharray:none;stroke-opacity:1" transform="translate(389.324 444.207)" fill="none" stroke="#000000" stroke-width="15" stroke-linecap="round" stroke-linejoin="round" stroke-miterlimit="10" stroke-dasharray="none" stroke-opacity="" data-original="#000000" class=""></path><path d="M0 0v0" style="stroke-width:15;stroke-linecap:round;stroke-linejoin:round;stroke-miterlimit:10;stroke-dasharray:none;stroke-opacity:1" transform="translate(389.324 334.44)" fill="none" stroke="#000000" stroke-width="15" stroke-linecap="round" stroke-linejoin="round" stroke-miterlimit="10" stroke-dasharray="none" stroke-opacity="" data-original="#000000" class=""></path><path d="M0 0v0" style="stroke-width:15;stroke-linecap:round;stroke-linejoin:round;stroke-miterlimit:10;stroke-dasharray:none;stroke-opacity:1" transform="translate(428.132 428.132)" fill="none" stroke="#000000" stroke-width="15" stroke-linecap="round" stroke-linejoin="round" stroke-miterlimit="10" stroke-dasharray="none" stroke-opacity="" data-original="#000000" class=""></path><path d="M0 0v0" style="stroke-width:15;stroke-linecap:round;stroke-linejoin:round;stroke-miterlimit:10;stroke-dasharray:none;stroke-opacity:1" transform="translate(350.516 350.516)" fill="none" stroke="#000000" stroke-width="15" stroke-linecap="round" stroke-linejoin="round" stroke-miterlimit="10" stroke-dasharray="none" stroke-opacity="" data-original="#000000" class=""></path><path d="M0 0v0" style="stroke-width:15;stroke-linecap:round;stroke-linejoin:round;stroke-miterlimit:10;stroke-dasharray:none;stroke-opacity:1" transform="translate(444.207 389.324)" fill="none" stroke="#000000" stroke-width="15" stroke-linecap="round" stroke-linejoin="round" stroke-miterlimit="10" stroke-dasharray="none" stroke-opacity="" data-original="#000000" class=""></path><path d="M0 0v0" style="stroke-width:15;stroke-linecap:round;stroke-linejoin:round;stroke-miterlimit:10;stroke-dasharray:none;stroke-opacity:1" transform="translate(334.44 389.324)" fill="none" stroke="#000000" stroke-width="15" stroke-linecap="round" stroke-linejoin="round" stroke-miterlimit="10" stroke-dasharray="none" stroke-opacity="" data-original="#000000" class=""></path><path d="M0 0v0" style="stroke-width:15;stroke-linecap:round;stroke-linejoin:round;stroke-miterlimit:10;stroke-dasharray:none;stroke-opacity:1" transform="translate(428.132 350.516)" fill="none" stroke="#000000" stroke-width="15" stroke-linecap="round" stroke-linejoin="round" stroke-miterlimit="10" stroke-dasharray="none" stroke-opacity="" data-original="#000000" class=""></path><path d="M0 0v0" style="stroke-width:15;stroke-linecap:round;stroke-linejoin:round;stroke-miterlimit:10;stroke-dasharray:none;stroke-opacity:1" transform="translate(350.516 428.132)" fill="none" stroke="#000000" stroke-width="15" stroke-linecap="round" stroke-linejoin="round" stroke-miterlimit="10" stroke-dasharray="none" stroke-opacity="" data-original="#000000" class=""></path><path d="M0 0h160.86v120.764c0 5.523-4.477 10-10 10H10c-5.522 0-10-4.477-10-10z" style="fill-opacity:1;fill-rule:nonzero;stroke:none" transform="translate(175.57 7.5)" fill="#cf9875" data-original="#cf9875"></path><path d="M0 0h-25.67c-5.523 0-10-4.477-10-10v-120.764H-10V-10C-10-4.477-5.523 0 0 0" style="fill-opacity:1;fill-rule:nonzero;stroke:none" transform="translate(211.24 138.264)" fill="#c7865b" data-original="#c7865b"></path><path d="M0 0h160.86v120.764c0 5.523-4.477 10-10 10H10c-5.522 0-10-4.477-10-10z" style="stroke-width:15;stroke-linecap:round;stroke-linejoin:round;stroke-miterlimit:10;stroke-dasharray:none;stroke-opacity:1" transform="translate(175.57 7.5)" fill="none" stroke="#000000" stroke-width="15" stroke-linecap="round" stroke-linejoin="round" stroke-miterlimit="10" stroke-dasharray="none" stroke-opacity="" data-original="#000000" class=""></path><path d="M0 0h-25.52a5 5 0 0 0-5 5v38.194H5V5a5 5 0 0 0-5-5" style="fill-opacity:1;fill-rule:nonzero;stroke:none" transform="translate(268.76 95.07)" fill="#dc4955" data-original="#dc4955"></path><path d="M0 0h-25.52a5 5 0 0 0-5 5v38.194H5V5a5 5 0 0 0-5-5Z" style="stroke-width:15;stroke-linecap:round;stroke-linejoin:round;stroke-miterlimit:10;stroke-dasharray:none;stroke-opacity:1" transform="translate(268.76 95.07)" fill="none" stroke="#000000" stroke-width="15" stroke-linecap="round" stroke-linejoin="round" stroke-miterlimit="10" stroke-dasharray="none" stroke-opacity="" data-original="#000000" class=""></path></g></g></svg>