<svg xmlns="http://www.w3.org/2000/svg" version="1.1" xmlns:xlink="http://www.w3.org/1999/xlink" width="512" height="512" x="0" y="0" viewBox="0 0 43.349 43.349" style="enable-background:new 0 0 512 512" xml:space="preserve" fill-rule="evenodd" class=""><g><path d="M42.968 13.937a.374.374 0 0 1-.19-.052L21.675 1.601.572 13.884a.38.38 0 1 1-.383-.656L21.483.834a.378.378 0 0 1 .383 0L43.16 13.228a.38.38 0 0 1-.191.709z" fill="#000000" opacity="1" data-original="#000000" class=""></path><path d="M42.969 42.568h-5.9a.38.38 0 0 1 0-.76h5.52V13.936H.76v27.87h5.52a.38.38 0 0 1 0 .76H.38a.38.38 0 0 1-.38-.38v-28.63c0-.21.17-.38.38-.38h42.588c.21 0 .38.17.38.38v28.63c0 .21-.17.38-.38.38z" fill="#000000" opacity="1" data-original="#000000" class=""></path><path d="M37.068 42.568a.38.38 0 0 1-.38-.38V19.823H6.661v22.363a.38.38 0 0 1-.76 0V19.443c0-.21.17-.38.38-.38h30.787c.21 0 .38.17.38.38v22.744c0 .21-.17.38-.38.38z" fill="#000000" opacity="1" data-original="#000000" class=""></path><path d="M11.386 41.807h9.908v-9.216h-9.908zm10.289.76h-10.67a.38.38 0 0 1-.38-.38v-9.976c0-.21.17-.38.38-.38h10.67c.21 0 .38.17.38.38v9.976c0 .21-.17.38-.38.38z" fill="#000000" opacity="1" data-original="#000000" class=""></path><path d="M19.735 34.392h-1.663a.38.38 0 0 1 0-.76h1.663a.38.38 0 0 1 0 .76zM19.735 36.194h-1.663a.38.38 0 0 1 0-.76h1.663a.38.38 0 0 1 0 .76zM14.608 37.303h-1.896a.38.38 0 0 1-.38-.38V32.21a.38.38 0 1 1 .76 0v4.331h1.136v-4.331a.38.38 0 0 1 .76 0v4.711c0 .21-.17.38-.38.38zM22.055 41.807h9.908v-9.216h-9.908zm10.288.76H21.675a.38.38 0 0 1-.38-.38v-9.976c0-.21.17-.38.38-.38h10.668c.21 0 .38.17.38.38v9.976c0 .21-.17.38-.38.38z" fill="#000000" opacity="1" data-original="#000000" class=""></path><path d="M30.404 34.392H28.74a.38.38 0 0 1 0-.76h1.663a.38.38 0 0 1 0 .76zM30.404 36.194H28.74a.38.38 0 1 1 0-.76h1.663a.38.38 0 0 1 0 .76zM25.277 37.303h-1.896a.38.38 0 0 1-.38-.38V32.21a.38.38 0 1 1 .76 0v4.331h1.136v-4.331a.38.38 0 1 1 .76 0v4.711c0 .21-.17.38-.38.38z" fill="#000000" opacity="1" data-original="#000000" class=""></path><path d="M27.009 32.591a.38.38 0 0 1-.38-.38v-9.665H16.72v9.665a.38.38 0 0 1-.76 0V22.165c0-.21.17-.38.38-.38H27.01c.21 0 .38.17.38.38v10.046c0 .21-.17.38-.38.38z" fill="#000000" opacity="1" data-original="#000000" class=""></path><path d="M25.07 24.347h-1.664a.38.38 0 1 1 0-.76h1.663a.38.38 0 0 1 0 .76zM25.07 26.149h-1.664a.38.38 0 0 1 0-.76h1.663a.38.38 0 1 1 0 .76zM19.943 27.257h-1.897a.38.38 0 0 1-.38-.38v-4.711a.38.38 0 0 1 .76 0v4.33h1.136v-4.33a.38.38 0 0 1 .76 0v4.71c0 .21-.17.381-.38.381zM6.28 38.622H.38a.38.38 0 0 1 0-.76h5.9a.38.38 0 0 1 0 .76zM42.969 38.622h-5.9a.38.38 0 0 1 0-.76h5.9a.38.38 0 1 1 0 .76zM21.675 4.666a2.696 2.696 0 0 0-2.694 2.693 2.696 2.696 0 0 0 2.694 2.693 2.696 2.696 0 0 0 2.693-2.693 2.696 2.696 0 0 0-2.693-2.693zm0 6.147a3.458 3.458 0 0 1-3.454-3.454 3.458 3.458 0 0 1 3.454-3.454 3.458 3.458 0 0 1 3.453 3.454 3.458 3.458 0 0 1-3.453 3.454z" fill="#000000" opacity="1" data-original="#000000" class=""></path><g stroke="#373435" stroke-linecap="round" stroke-linejoin="round" stroke-width=".2"><path fill="#ab7261" d="M21.294 32.591H14.988v4.331c0 .21-.17.38-.38.38h-1.896a.38.38 0 0 1-.38-.38v-4.33h-.946v9.215h9.908zm-1.56 3.603h-1.662a.38.38 0 0 1 0-.76h1.663a.38.38 0 0 1 0 .76zm0-1.802h-1.662a.38.38 0 0 1 0-.76h1.663a.38.38 0 0 1 0 .76zM25.277 37.303H23.38a.38.38 0 0 1-.38-.38V32.59h-.946v9.216h9.908v-9.216h-6.306v4.331c0 .21-.17.38-.38.38zm5.127-1.11H28.74a.38.38 0 1 1 0-.76h1.663a.38.38 0 0 1 0 .76zm0-1.8H28.74a.38.38 0 0 1 0-.761h1.663a.38.38 0 0 1 0 .76zM21.68 31.83h4.949v-9.284h-6.306v4.33c0 .21-.17.381-.38.381h-1.897a.38.38 0 0 1-.38-.38v-4.331h-.946v9.285h4.955zm3.39-5.681h-1.663a.38.38 0 0 1 0-.76h1.662a.38.38 0 1 1 0 .76zm0-1.802h-1.663a.38.38 0 1 1 0-.76h1.662a.38.38 0 0 1 0 .76z" opacity="1" data-original="#ab7261" class=""></path><path fill="#fff176" d="M23.76 32.591v3.951h1.137v-3.95zM18.426 26.497h1.136v-3.951h-1.136zM14.228 36.542v-3.95h-1.136v3.95z" opacity="1" data-original="#fff176"></path><path fill="#a62226" d="M5.9 41.807v-3.185H.76v3.185z" opacity="1" data-original="#b95e5e" class=""></path><path fill="#a62226" d="M.76 37.861H5.9V19.443c0-.21.17-.38.38-.38h30.788c.21 0 .38.17.38.38v18.418h5.14V13.937H.76z" opacity="1" data-original="#e57373" class=""></path><path fill="#a62226" d="M37.449 38.622v3.185h5.14v-3.185z" opacity="1" data-original="#b95e5e" class=""></path><path fill="#a62226" d="M1.788 13.177H41.56L21.675 1.602zm23.34-5.818a3.458 3.458 0 0 1-3.453 3.454 3.458 3.458 0 0 1-3.454-3.454 3.458 3.458 0 0 1 3.454-3.454 3.458 3.458 0 0 1 3.453 3.454z" opacity="1" data-original="#e57373" class=""></path></g></g></svg>