<svg xmlns="http://www.w3.org/2000/svg" version="1.1" xmlns:xlink="http://www.w3.org/1999/xlink" width="512" height="512" x="0" y="0" viewBox="0 0 128 128" style="enable-background:new 0 0 512 512" xml:space="preserve" class=""><g><rect width="107.83" height="59.36" x="4.56" y="28.56" fill="#a62226" rx="4" opacity="1" data-original="#e8555f" class=""></rect><path fill="#fdbd3f" d="M101.33 48.66v19.15a11.211 11.211 0 0 0-11.21 11.21v.01h-63.3v-.01a11.211 11.211 0 0 0-11.21-11.21V48.66a11.227 11.227 0 0 0 10.9-8.58 11.4 11.4 0 0 0 .31-2.63h63.3a11.4 11.4 0 0 0 .31 2.63 11.227 11.227 0 0 0 10.9 8.58z" opacity="1" data-original="#fdbd3f" class=""></path><path fill="#a62226" d="M58.475 41.973A16.268 16.268 0 1 0 74.742 58.24a16.286 16.286 0 0 0-16.267-16.267z" opacity="1" data-original="#e8555f" class=""></path><path fill="#d3404e" d="M123.44 44.08v51.36a4 4 0 0 1-4 4H19.61a4 4 0 0 1-4-4v-7.52h92.78a4 4 0 0 0 4-4V40.08h7.05a4 4 0 0 1 4 4z" opacity="1" data-original="#d3404e" class=""></path><path fill="#3a2b28" d="M22.681 30.311a1.75 1.75 0 0 1 0-3.5h.574a1.75 1.75 0 1 1 0 3.5zM42.207 58.24a16.268 16.268 0 1 0 16.268-16.267 16.117 16.117 0 0 0-7.094 1.627 1.75 1.75 0 1 0 1.529 3.148 12.632 12.632 0 0 1 5.565-1.273A12.768 12.768 0 1 1 45.707 58.24a1.75 1.75 0 0 0-3.5 0zm3.647-5.432a1.749 1.749 0 0 0 1.522-.883q.236-.412.5-.8a1.75 1.75 0 1 0-2.906-1.951q-.334.5-.632 1.021a1.751 1.751 0 0 0 1.517 2.618zm7.9 9.942a1.75 1.75 0 0 0 0 3.5h2.972v1.64a1.75 1.75 0 0 0 3.5 0v-1.64H63.7a1.75 1.75 0 0 0 0-3.5h-3.475v-1.06H63.7a1.75 1.75 0 0 0 0-3.5H61l3.935-3.931a1.75 1.75 0 0 0-2.472-2.477L58.541 55.7l-3.478-3.84-.012-.014a1.75 1.75 0 0 0-2.6 2.348l3.615 4h-2.313a1.75 1.75 0 0 0 0 3.5h2.972v1.06zm34.975-22.258a12.978 12.978 0 0 0 3.425 6.108 1.75 1.75 0 1 0 2.479-2.471 9.446 9.446 0 0 1-2.5-4.45 9.611 9.611 0 0 1-.263-2.226 1.749 1.749 0 0 0-1.75-1.75h-63.3a1.75 1.75 0 0 0-1.75 1.75 9.662 9.662 0 0 1-.261 2.219 9.438 9.438 0 0 1-9.2 7.241 1.75 1.75 0 0 0-1.75 1.75V67.81a1.751 1.751 0 0 0 1.75 1.75 9.473 9.473 0 0 1 9.46 9.47 1.75 1.75 0 0 0 1.75 1.75h63.3a1.758 1.758 0 0 0 1.75-1.759 9.471 9.471 0 0 1 9.46-9.461 1.75 1.75 0 0 0 1.75-1.75V48.66a1.75 1.75 0 0 0-3.5 0v17.518a12.99 12.99 0 0 0-11.093 11.1H28.454a12.987 12.987 0 0 0-11.094-11.1V50.293a12.925 12.925 0 0 0 10.852-9.807c.1-.425.182-.854.24-1.286h60.036q.089.65.241 1.292zm30.711-2.162h-5.3v-5.769a5.756 5.756 0 0 0-5.75-5.75H31.809a1.75 1.75 0 0 0 0 3.5h76.581a2.253 2.253 0 0 1 2.25 2.25V83.92a2.253 2.253 0 0 1-2.25 2.25H8.56a2.253 2.253 0 0 1-2.25-2.25V32.561a2.252 2.252 0 0 1 2.25-2.25h6.4a1.75 1.75 0 0 0 0-3.5h-6.4a5.756 5.756 0 0 0-5.75 5.75V83.92a5.756 5.756 0 0 0 5.75 5.75h99.83a5.756 5.756 0 0 0 5.75-5.75V41.83h5.3a2.253 2.253 0 0 1 2.25 2.25v51.359a2.252 2.252 0 0 1-2.25 2.25H19.61a2.253 2.253 0 0 1-2.25-2.25 1.75 1.75 0 0 0-3.5 0 5.756 5.756 0 0 0 5.75 5.75h99.83a5.756 5.756 0 0 0 5.75-5.75V44.08a5.756 5.756 0 0 0-5.75-5.75z" opacity="1" data-original="#3a2b28" class=""></path></g></svg>